%TF.GenerationSoftware,KiCad,Pcbnew,(5.0.0)*%
%TF.CreationDate,2018-11-11T16:52:16+07:00*%
%TF.ProjectId,AntennaSwitch_v1.1,416E74656E6E615377697463685F7631,rev?*%
%TF.SameCoordinates,Original*%
%TF.FileFunction,Legend,Top*%
%TF.FilePolarity,Positive*%
%FSLAX46Y46*%
G04 Gerber Fmt 4.6, Leading zero omitted, Abs format (unit mm)*
G04 Created by KiCad (PCBNEW (5.0.0)) date 11/11/18 16:52:16*
%MOMM*%
%LPD*%
G01*
G04 APERTURE LIST*
%ADD10C,0.200000*%
%ADD11C,0.150000*%
%ADD12C,0.120000*%
%ADD13C,0.010000*%
G04 APERTURE END LIST*
D10*
X148137619Y-92543333D02*
X148613809Y-92210000D01*
X148137619Y-91971904D02*
X149137619Y-91971904D01*
X149137619Y-92352857D01*
X149090000Y-92448095D01*
X149042380Y-92495714D01*
X148947142Y-92543333D01*
X148804285Y-92543333D01*
X148709047Y-92495714D01*
X148661428Y-92448095D01*
X148613809Y-92352857D01*
X148613809Y-91971904D01*
X149137619Y-92876666D02*
X148137619Y-93543333D01*
X149137619Y-93543333D02*
X148137619Y-92876666D01*
X149137619Y-84328095D02*
X149137619Y-84899523D01*
X148137619Y-84613809D02*
X149137619Y-84613809D01*
X149137619Y-85137619D02*
X148137619Y-85804285D01*
X149137619Y-85804285D02*
X148137619Y-85137619D01*
X183983333Y-122840952D02*
X183983333Y-123317142D01*
X183697619Y-122745714D02*
X184697619Y-123079047D01*
X183697619Y-123412380D01*
X183697619Y-123745714D02*
X184697619Y-123745714D01*
X183697619Y-124317142D01*
X184697619Y-124317142D01*
X184697619Y-124650476D02*
X184697619Y-125221904D01*
X183697619Y-124936190D02*
X184697619Y-124936190D01*
X184602380Y-125507619D02*
X184650000Y-125555238D01*
X184697619Y-125650476D01*
X184697619Y-125888571D01*
X184650000Y-125983809D01*
X184602380Y-126031428D01*
X184507142Y-126079047D01*
X184411904Y-126079047D01*
X184269047Y-126031428D01*
X183697619Y-125460000D01*
X183697619Y-126079047D01*
X156376666Y-126079047D02*
X156376666Y-125602857D01*
X156662380Y-126174285D02*
X155662380Y-125840952D01*
X156662380Y-125507619D01*
X156662380Y-125174285D02*
X155662380Y-125174285D01*
X156662380Y-124602857D01*
X155662380Y-124602857D01*
X155662380Y-124269523D02*
X155662380Y-123698095D01*
X156662380Y-123983809D02*
X155662380Y-123983809D01*
X156662380Y-122840952D02*
X156662380Y-123412380D01*
X156662380Y-123126666D02*
X155662380Y-123126666D01*
X155805238Y-123221904D01*
X155900476Y-123317142D01*
X155948095Y-123412380D01*
X152021904Y-78240000D02*
X151926666Y-78192380D01*
X151783809Y-78192380D01*
X151640952Y-78240000D01*
X151545714Y-78335238D01*
X151498095Y-78430476D01*
X151450476Y-78620952D01*
X151450476Y-78763809D01*
X151498095Y-78954285D01*
X151545714Y-79049523D01*
X151640952Y-79144761D01*
X151783809Y-79192380D01*
X151879047Y-79192380D01*
X152021904Y-79144761D01*
X152069523Y-79097142D01*
X152069523Y-78763809D01*
X151879047Y-78763809D01*
X152498095Y-79192380D02*
X152498095Y-78192380D01*
X153069523Y-79192380D01*
X153069523Y-78192380D01*
X153545714Y-79192380D02*
X153545714Y-78192380D01*
X153783809Y-78192380D01*
X153926666Y-78240000D01*
X154021904Y-78335238D01*
X154069523Y-78430476D01*
X154117142Y-78620952D01*
X154117142Y-78763809D01*
X154069523Y-78954285D01*
X154021904Y-79049523D01*
X153926666Y-79144761D01*
X153783809Y-79192380D01*
X153545714Y-79192380D01*
X191936666Y-79089047D02*
X191936666Y-78612857D01*
X192222380Y-79184285D02*
X191222380Y-78850952D01*
X192222380Y-78517619D01*
X192222380Y-78184285D02*
X191222380Y-78184285D01*
X192222380Y-77612857D01*
X191222380Y-77612857D01*
X191222380Y-77279523D02*
X191222380Y-76708095D01*
X192222380Y-76993809D02*
X191222380Y-76993809D01*
X191317619Y-76422380D02*
X191270000Y-76374761D01*
X191222380Y-76279523D01*
X191222380Y-76041428D01*
X191270000Y-75946190D01*
X191317619Y-75898571D01*
X191412857Y-75850952D01*
X191508095Y-75850952D01*
X191650952Y-75898571D01*
X192222380Y-76470000D01*
X192222380Y-75850952D01*
X191936666Y-86709047D02*
X191936666Y-86232857D01*
X192222380Y-86804285D02*
X191222380Y-86470952D01*
X192222380Y-86137619D01*
X192222380Y-85804285D02*
X191222380Y-85804285D01*
X192222380Y-85232857D01*
X191222380Y-85232857D01*
X191222380Y-84899523D02*
X191222380Y-84328095D01*
X192222380Y-84613809D02*
X191222380Y-84613809D01*
X192222380Y-83470952D02*
X192222380Y-84042380D01*
X192222380Y-83756666D02*
X191222380Y-83756666D01*
X191365238Y-83851904D01*
X191460476Y-83947142D01*
X191508095Y-84042380D01*
X157604285Y-116340000D02*
X157509047Y-116292380D01*
X157366190Y-116292380D01*
X157223333Y-116340000D01*
X157128095Y-116435238D01*
X157080476Y-116530476D01*
X157032857Y-116720952D01*
X157032857Y-116863809D01*
X157080476Y-117054285D01*
X157128095Y-117149523D01*
X157223333Y-117244761D01*
X157366190Y-117292380D01*
X157461428Y-117292380D01*
X157604285Y-117244761D01*
X157651904Y-117197142D01*
X157651904Y-116863809D01*
X157461428Y-116863809D01*
X158080476Y-117292380D02*
X158080476Y-116292380D01*
X158651904Y-117292380D01*
X158651904Y-116292380D01*
X159128095Y-117292380D02*
X159128095Y-116292380D01*
X159366190Y-116292380D01*
X159509047Y-116340000D01*
X159604285Y-116435238D01*
X159651904Y-116530476D01*
X159699523Y-116720952D01*
X159699523Y-116863809D01*
X159651904Y-117054285D01*
X159604285Y-117149523D01*
X159509047Y-117244761D01*
X159366190Y-117292380D01*
X159128095Y-117292380D01*
X157604285Y-113800000D02*
X157509047Y-113752380D01*
X157366190Y-113752380D01*
X157223333Y-113800000D01*
X157128095Y-113895238D01*
X157080476Y-113990476D01*
X157032857Y-114180952D01*
X157032857Y-114323809D01*
X157080476Y-114514285D01*
X157128095Y-114609523D01*
X157223333Y-114704761D01*
X157366190Y-114752380D01*
X157461428Y-114752380D01*
X157604285Y-114704761D01*
X157651904Y-114657142D01*
X157651904Y-114323809D01*
X157461428Y-114323809D01*
X158080476Y-114752380D02*
X158080476Y-113752380D01*
X158651904Y-114752380D01*
X158651904Y-113752380D01*
X159128095Y-114752380D02*
X159128095Y-113752380D01*
X159366190Y-113752380D01*
X159509047Y-113800000D01*
X159604285Y-113895238D01*
X159651904Y-113990476D01*
X159699523Y-114180952D01*
X159699523Y-114323809D01*
X159651904Y-114514285D01*
X159604285Y-114609523D01*
X159509047Y-114704761D01*
X159366190Y-114752380D01*
X159128095Y-114752380D01*
X157270952Y-111212380D02*
X157890000Y-111212380D01*
X157556666Y-111593333D01*
X157699523Y-111593333D01*
X157794761Y-111640952D01*
X157842380Y-111688571D01*
X157890000Y-111783809D01*
X157890000Y-112021904D01*
X157842380Y-112117142D01*
X157794761Y-112164761D01*
X157699523Y-112212380D01*
X157413809Y-112212380D01*
X157318571Y-112164761D01*
X157270952Y-112117142D01*
X158175714Y-111212380D02*
X158509047Y-112212380D01*
X158842380Y-111212380D01*
X159080476Y-111212380D02*
X159699523Y-111212380D01*
X159366190Y-111593333D01*
X159509047Y-111593333D01*
X159604285Y-111640952D01*
X159651904Y-111688571D01*
X159699523Y-111783809D01*
X159699523Y-112021904D01*
X159651904Y-112117142D01*
X159604285Y-112164761D01*
X159509047Y-112212380D01*
X159223333Y-112212380D01*
X159128095Y-112164761D01*
X159080476Y-112117142D01*
X181279523Y-107037142D02*
X181231904Y-107084761D01*
X181089047Y-107132380D01*
X180993809Y-107132380D01*
X180850952Y-107084761D01*
X180755714Y-106989523D01*
X180708095Y-106894285D01*
X180660476Y-106703809D01*
X180660476Y-106560952D01*
X180708095Y-106370476D01*
X180755714Y-106275238D01*
X180850952Y-106180000D01*
X180993809Y-106132380D01*
X181089047Y-106132380D01*
X181231904Y-106180000D01*
X181279523Y-106227619D01*
X181565238Y-106132380D02*
X182136666Y-106132380D01*
X181850952Y-107132380D02*
X181850952Y-106132380D01*
X183041428Y-107132380D02*
X182708095Y-106656190D01*
X182470000Y-107132380D02*
X182470000Y-106132380D01*
X182850952Y-106132380D01*
X182946190Y-106180000D01*
X182993809Y-106227619D01*
X183041428Y-106322857D01*
X183041428Y-106465714D01*
X182993809Y-106560952D01*
X182946190Y-106608571D01*
X182850952Y-106656190D01*
X182470000Y-106656190D01*
X183946190Y-107132380D02*
X183470000Y-107132380D01*
X183470000Y-106132380D01*
X158270952Y-103592380D02*
X158842380Y-103592380D01*
X158556666Y-104592380D02*
X158556666Y-103592380D01*
X159080476Y-103592380D02*
X159747142Y-104592380D01*
X159747142Y-103592380D02*
X159080476Y-104592380D01*
X158747142Y-107132380D02*
X158413809Y-106656190D01*
X158175714Y-107132380D02*
X158175714Y-106132380D01*
X158556666Y-106132380D01*
X158651904Y-106180000D01*
X158699523Y-106227619D01*
X158747142Y-106322857D01*
X158747142Y-106465714D01*
X158699523Y-106560952D01*
X158651904Y-106608571D01*
X158556666Y-106656190D01*
X158175714Y-106656190D01*
X159080476Y-106132380D02*
X159747142Y-107132380D01*
X159747142Y-106132380D02*
X159080476Y-107132380D01*
X181184285Y-73112380D02*
X180708095Y-73112380D01*
X180660476Y-73588571D01*
X180708095Y-73540952D01*
X180803333Y-73493333D01*
X181041428Y-73493333D01*
X181136666Y-73540952D01*
X181184285Y-73588571D01*
X181231904Y-73683809D01*
X181231904Y-73921904D01*
X181184285Y-74017142D01*
X181136666Y-74064761D01*
X181041428Y-74112380D01*
X180803333Y-74112380D01*
X180708095Y-74064761D01*
X180660476Y-74017142D01*
X181517619Y-73112380D02*
X181850952Y-74112380D01*
X182184285Y-73112380D01*
X181231904Y-70620000D02*
X181136666Y-70572380D01*
X180993809Y-70572380D01*
X180850952Y-70620000D01*
X180755714Y-70715238D01*
X180708095Y-70810476D01*
X180660476Y-71000952D01*
X180660476Y-71143809D01*
X180708095Y-71334285D01*
X180755714Y-71429523D01*
X180850952Y-71524761D01*
X180993809Y-71572380D01*
X181089047Y-71572380D01*
X181231904Y-71524761D01*
X181279523Y-71477142D01*
X181279523Y-71143809D01*
X181089047Y-71143809D01*
X181708095Y-71572380D02*
X181708095Y-70572380D01*
X182279523Y-71572380D01*
X182279523Y-70572380D01*
X182755714Y-71572380D02*
X182755714Y-70572380D01*
X182993809Y-70572380D01*
X183136666Y-70620000D01*
X183231904Y-70715238D01*
X183279523Y-70810476D01*
X183327142Y-71000952D01*
X183327142Y-71143809D01*
X183279523Y-71334285D01*
X183231904Y-71429523D01*
X183136666Y-71524761D01*
X182993809Y-71572380D01*
X182755714Y-71572380D01*
X180612857Y-68032380D02*
X181231904Y-68032380D01*
X180898571Y-68413333D01*
X181041428Y-68413333D01*
X181136666Y-68460952D01*
X181184285Y-68508571D01*
X181231904Y-68603809D01*
X181231904Y-68841904D01*
X181184285Y-68937142D01*
X181136666Y-68984761D01*
X181041428Y-69032380D01*
X180755714Y-69032380D01*
X180660476Y-68984761D01*
X180612857Y-68937142D01*
X181517619Y-68032380D02*
X181850952Y-69032380D01*
X182184285Y-68032380D01*
X182422380Y-68032380D02*
X183041428Y-68032380D01*
X182708095Y-68413333D01*
X182850952Y-68413333D01*
X182946190Y-68460952D01*
X182993809Y-68508571D01*
X183041428Y-68603809D01*
X183041428Y-68841904D01*
X182993809Y-68937142D01*
X182946190Y-68984761D01*
X182850952Y-69032380D01*
X182565238Y-69032380D01*
X182470000Y-68984761D01*
X182422380Y-68937142D01*
X182014761Y-97733809D02*
X182062380Y-97590952D01*
X182062380Y-97352857D01*
X182014761Y-97257619D01*
X181967142Y-97210000D01*
X181871904Y-97162380D01*
X181776666Y-97162380D01*
X181681428Y-97210000D01*
X181633809Y-97257619D01*
X181586190Y-97352857D01*
X181538571Y-97543333D01*
X181490952Y-97638571D01*
X181443333Y-97686190D01*
X181348095Y-97733809D01*
X181252857Y-97733809D01*
X181157619Y-97686190D01*
X181110000Y-97638571D01*
X181062380Y-97543333D01*
X181062380Y-97305238D01*
X181110000Y-97162380D01*
X181062380Y-96876666D02*
X181062380Y-96305238D01*
X182062380Y-96590952D02*
X181062380Y-96590952D01*
X182062380Y-95971904D02*
X181062380Y-95971904D01*
X181776666Y-95638571D01*
X181062380Y-95305238D01*
X182062380Y-95305238D01*
X181062380Y-94924285D02*
X181062380Y-94305238D01*
X181443333Y-94638571D01*
X181443333Y-94495714D01*
X181490952Y-94400476D01*
X181538571Y-94352857D01*
X181633809Y-94305238D01*
X181871904Y-94305238D01*
X181967142Y-94352857D01*
X182014761Y-94400476D01*
X182062380Y-94495714D01*
X182062380Y-94781428D01*
X182014761Y-94876666D01*
X181967142Y-94924285D01*
X181157619Y-93924285D02*
X181110000Y-93876666D01*
X181062380Y-93781428D01*
X181062380Y-93543333D01*
X181110000Y-93448095D01*
X181157619Y-93400476D01*
X181252857Y-93352857D01*
X181348095Y-93352857D01*
X181490952Y-93400476D01*
X182062380Y-93971904D01*
X182062380Y-93352857D01*
X181538571Y-92590952D02*
X181538571Y-92924285D01*
X182062380Y-92924285D02*
X181062380Y-92924285D01*
X181062380Y-92448095D01*
X182062380Y-91543333D02*
X182062380Y-92114761D01*
X182062380Y-91829047D02*
X181062380Y-91829047D01*
X181205238Y-91924285D01*
X181300476Y-92019523D01*
X181348095Y-92114761D01*
X181062380Y-90924285D02*
X181062380Y-90829047D01*
X181110000Y-90733809D01*
X181157619Y-90686190D01*
X181252857Y-90638571D01*
X181443333Y-90590952D01*
X181681428Y-90590952D01*
X181871904Y-90638571D01*
X181967142Y-90686190D01*
X182014761Y-90733809D01*
X182062380Y-90829047D01*
X182062380Y-90924285D01*
X182014761Y-91019523D01*
X181967142Y-91067142D01*
X181871904Y-91114761D01*
X181681428Y-91162380D01*
X181443333Y-91162380D01*
X181252857Y-91114761D01*
X181157619Y-91067142D01*
X181110000Y-91019523D01*
X181062380Y-90924285D01*
X181062380Y-90257619D02*
X181062380Y-89638571D01*
X181443333Y-89971904D01*
X181443333Y-89829047D01*
X181490952Y-89733809D01*
X181538571Y-89686190D01*
X181633809Y-89638571D01*
X181871904Y-89638571D01*
X181967142Y-89686190D01*
X182014761Y-89733809D01*
X182062380Y-89829047D01*
X182062380Y-90114761D01*
X182014761Y-90210000D01*
X181967142Y-90257619D01*
X181967142Y-88638571D02*
X182014761Y-88686190D01*
X182062380Y-88829047D01*
X182062380Y-88924285D01*
X182014761Y-89067142D01*
X181919523Y-89162380D01*
X181824285Y-89210000D01*
X181633809Y-89257619D01*
X181490952Y-89257619D01*
X181300476Y-89210000D01*
X181205238Y-89162380D01*
X181110000Y-89067142D01*
X181062380Y-88924285D01*
X181062380Y-88829047D01*
X181110000Y-88686190D01*
X181157619Y-88638571D01*
X181490952Y-88067142D02*
X181443333Y-88162380D01*
X181395714Y-88210000D01*
X181300476Y-88257619D01*
X181252857Y-88257619D01*
X181157619Y-88210000D01*
X181110000Y-88162380D01*
X181062380Y-88067142D01*
X181062380Y-87876666D01*
X181110000Y-87781428D01*
X181157619Y-87733809D01*
X181252857Y-87686190D01*
X181300476Y-87686190D01*
X181395714Y-87733809D01*
X181443333Y-87781428D01*
X181490952Y-87876666D01*
X181490952Y-88067142D01*
X181538571Y-88162380D01*
X181586190Y-88210000D01*
X181681428Y-88257619D01*
X181871904Y-88257619D01*
X181967142Y-88210000D01*
X182014761Y-88162380D01*
X182062380Y-88067142D01*
X182062380Y-87876666D01*
X182014761Y-87781428D01*
X181967142Y-87733809D01*
X181871904Y-87686190D01*
X181681428Y-87686190D01*
X181586190Y-87733809D01*
X181538571Y-87781428D01*
X181490952Y-87876666D01*
X186814285Y-70620000D02*
X186719047Y-70572380D01*
X186576190Y-70572380D01*
X186433333Y-70620000D01*
X186338095Y-70715238D01*
X186290476Y-70810476D01*
X186242857Y-71000952D01*
X186242857Y-71143809D01*
X186290476Y-71334285D01*
X186338095Y-71429523D01*
X186433333Y-71524761D01*
X186576190Y-71572380D01*
X186671428Y-71572380D01*
X186814285Y-71524761D01*
X186861904Y-71477142D01*
X186861904Y-71143809D01*
X186671428Y-71143809D01*
X187290476Y-71572380D02*
X187290476Y-70572380D01*
X187861904Y-71572380D01*
X187861904Y-70572380D01*
X188338095Y-71572380D02*
X188338095Y-70572380D01*
X188576190Y-70572380D01*
X188719047Y-70620000D01*
X188814285Y-70715238D01*
X188861904Y-70810476D01*
X188909523Y-71000952D01*
X188909523Y-71143809D01*
X188861904Y-71334285D01*
X188814285Y-71429523D01*
X188719047Y-71524761D01*
X188576190Y-71572380D01*
X188338095Y-71572380D01*
X151355238Y-73112380D02*
X151926666Y-73112380D01*
X151640952Y-74112380D02*
X151640952Y-73112380D01*
X152164761Y-73112380D02*
X152831428Y-74112380D01*
X152831428Y-73112380D02*
X152164761Y-74112380D01*
X152069523Y-76652380D02*
X151736190Y-76176190D01*
X151498095Y-76652380D02*
X151498095Y-75652380D01*
X151879047Y-75652380D01*
X151974285Y-75700000D01*
X152021904Y-75747619D01*
X152069523Y-75842857D01*
X152069523Y-75985714D01*
X152021904Y-76080952D01*
X151974285Y-76128571D01*
X151879047Y-76176190D01*
X151498095Y-76176190D01*
X152402857Y-75652380D02*
X153069523Y-76652380D01*
X153069523Y-75652380D02*
X152402857Y-76652380D01*
X188004761Y-68032380D02*
X187528571Y-68032380D01*
X187480952Y-68508571D01*
X187528571Y-68460952D01*
X187623809Y-68413333D01*
X187861904Y-68413333D01*
X187957142Y-68460952D01*
X188004761Y-68508571D01*
X188052380Y-68603809D01*
X188052380Y-68841904D01*
X188004761Y-68937142D01*
X187957142Y-68984761D01*
X187861904Y-69032380D01*
X187623809Y-69032380D01*
X187528571Y-68984761D01*
X187480952Y-68937142D01*
X188338095Y-68032380D02*
X188671428Y-69032380D01*
X189004761Y-68032380D01*
D11*
X192222380Y-114965714D02*
X191555714Y-114965714D01*
X191746190Y-114965714D02*
X191650952Y-114918095D01*
X191603333Y-114870476D01*
X191555714Y-114775238D01*
X191555714Y-114680000D01*
X192222380Y-113918095D02*
X191698571Y-113918095D01*
X191603333Y-113965714D01*
X191555714Y-114060952D01*
X191555714Y-114251428D01*
X191603333Y-114346666D01*
X192174761Y-113918095D02*
X192222380Y-114013333D01*
X192222380Y-114251428D01*
X192174761Y-114346666D01*
X192079523Y-114394285D01*
X191984285Y-114394285D01*
X191889047Y-114346666D01*
X191841428Y-114251428D01*
X191841428Y-114013333D01*
X191793809Y-113918095D01*
X192222380Y-113441904D02*
X191555714Y-113441904D01*
X191650952Y-113441904D02*
X191603333Y-113394285D01*
X191555714Y-113299047D01*
X191555714Y-113156190D01*
X191603333Y-113060952D01*
X191698571Y-113013333D01*
X192222380Y-113013333D01*
X191698571Y-113013333D02*
X191603333Y-112965714D01*
X191555714Y-112870476D01*
X191555714Y-112727619D01*
X191603333Y-112632380D01*
X191698571Y-112584761D01*
X192222380Y-112584761D01*
X192222380Y-111680000D02*
X191698571Y-111680000D01*
X191603333Y-111727619D01*
X191555714Y-111822857D01*
X191555714Y-112013333D01*
X191603333Y-112108571D01*
X192174761Y-111680000D02*
X192222380Y-111775238D01*
X192222380Y-112013333D01*
X192174761Y-112108571D01*
X192079523Y-112156190D01*
X191984285Y-112156190D01*
X191889047Y-112108571D01*
X191841428Y-112013333D01*
X191841428Y-111775238D01*
X191793809Y-111680000D01*
X192127142Y-111203809D02*
X192174761Y-111156190D01*
X192222380Y-111203809D01*
X192174761Y-111251428D01*
X192127142Y-111203809D01*
X192222380Y-111203809D01*
X192222380Y-110584761D02*
X192174761Y-110680000D01*
X192127142Y-110727619D01*
X192031904Y-110775238D01*
X191746190Y-110775238D01*
X191650952Y-110727619D01*
X191603333Y-110680000D01*
X191555714Y-110584761D01*
X191555714Y-110441904D01*
X191603333Y-110346666D01*
X191650952Y-110299047D01*
X191746190Y-110251428D01*
X192031904Y-110251428D01*
X192127142Y-110299047D01*
X192174761Y-110346666D01*
X192222380Y-110441904D01*
X192222380Y-110584761D01*
X192222380Y-109822857D02*
X191555714Y-109822857D01*
X191746190Y-109822857D02*
X191650952Y-109775238D01*
X191603333Y-109727619D01*
X191555714Y-109632380D01*
X191555714Y-109537142D01*
X192222380Y-109203809D02*
X191555714Y-109203809D01*
X191222380Y-109203809D02*
X191270000Y-109251428D01*
X191317619Y-109203809D01*
X191270000Y-109156190D01*
X191222380Y-109203809D01*
X191317619Y-109203809D01*
X192222380Y-108584761D02*
X192174761Y-108680000D01*
X192127142Y-108727619D01*
X192031904Y-108775238D01*
X191746190Y-108775238D01*
X191650952Y-108727619D01*
X191603333Y-108680000D01*
X191555714Y-108584761D01*
X191555714Y-108441904D01*
X191603333Y-108346666D01*
X191650952Y-108299047D01*
X191746190Y-108251428D01*
X192031904Y-108251428D01*
X192127142Y-108299047D01*
X192174761Y-108346666D01*
X192222380Y-108441904D01*
X192222380Y-108584761D01*
X191555714Y-107822857D02*
X192222380Y-107822857D01*
X191650952Y-107822857D02*
X191603333Y-107775238D01*
X191555714Y-107680000D01*
X191555714Y-107537142D01*
X191603333Y-107441904D01*
X191698571Y-107394285D01*
X192222380Y-107394285D01*
X191746190Y-106299047D02*
X191698571Y-106346666D01*
X191650952Y-106441904D01*
X191650952Y-106537142D01*
X191698571Y-106632380D01*
X191746190Y-106680000D01*
X191841428Y-106727619D01*
X191936666Y-106727619D01*
X192031904Y-106680000D01*
X192079523Y-106632380D01*
X192127142Y-106537142D01*
X192127142Y-106441904D01*
X192079523Y-106346666D01*
X192031904Y-106299047D01*
X191650952Y-106299047D02*
X192031904Y-106299047D01*
X192079523Y-106251428D01*
X192079523Y-106203809D01*
X192031904Y-106108571D01*
X191936666Y-106060952D01*
X191698571Y-106060952D01*
X191555714Y-106156190D01*
X191460476Y-106299047D01*
X191412857Y-106489523D01*
X191460476Y-106680000D01*
X191555714Y-106822857D01*
X191698571Y-106918095D01*
X191889047Y-106965714D01*
X192079523Y-106918095D01*
X192222380Y-106822857D01*
X192317619Y-106680000D01*
X192365238Y-106489523D01*
X192317619Y-106299047D01*
X192222380Y-106156190D01*
X191555714Y-105203809D02*
X192365238Y-105203809D01*
X192460476Y-105251428D01*
X192508095Y-105299047D01*
X192555714Y-105394285D01*
X192555714Y-105537142D01*
X192508095Y-105632380D01*
X192174761Y-105203809D02*
X192222380Y-105299047D01*
X192222380Y-105489523D01*
X192174761Y-105584761D01*
X192127142Y-105632380D01*
X192031904Y-105680000D01*
X191746190Y-105680000D01*
X191650952Y-105632380D01*
X191603333Y-105584761D01*
X191555714Y-105489523D01*
X191555714Y-105299047D01*
X191603333Y-105203809D01*
X192222380Y-104727619D02*
X191555714Y-104727619D01*
X191650952Y-104727619D02*
X191603333Y-104680000D01*
X191555714Y-104584761D01*
X191555714Y-104441904D01*
X191603333Y-104346666D01*
X191698571Y-104299047D01*
X192222380Y-104299047D01*
X191698571Y-104299047D02*
X191603333Y-104251428D01*
X191555714Y-104156190D01*
X191555714Y-104013333D01*
X191603333Y-103918095D01*
X191698571Y-103870476D01*
X192222380Y-103870476D01*
X192222380Y-102965714D02*
X191698571Y-102965714D01*
X191603333Y-103013333D01*
X191555714Y-103108571D01*
X191555714Y-103299047D01*
X191603333Y-103394285D01*
X192174761Y-102965714D02*
X192222380Y-103060952D01*
X192222380Y-103299047D01*
X192174761Y-103394285D01*
X192079523Y-103441904D01*
X191984285Y-103441904D01*
X191889047Y-103394285D01*
X191841428Y-103299047D01*
X191841428Y-103060952D01*
X191793809Y-102965714D01*
X192222380Y-102489523D02*
X191555714Y-102489523D01*
X191222380Y-102489523D02*
X191270000Y-102537142D01*
X191317619Y-102489523D01*
X191270000Y-102441904D01*
X191222380Y-102489523D01*
X191317619Y-102489523D01*
X192222380Y-101870476D02*
X192174761Y-101965714D01*
X192079523Y-102013333D01*
X191222380Y-102013333D01*
X192127142Y-101489523D02*
X192174761Y-101441904D01*
X192222380Y-101489523D01*
X192174761Y-101537142D01*
X192127142Y-101489523D01*
X192222380Y-101489523D01*
X192174761Y-100584761D02*
X192222380Y-100680000D01*
X192222380Y-100870476D01*
X192174761Y-100965714D01*
X192127142Y-101013333D01*
X192031904Y-101060952D01*
X191746190Y-101060952D01*
X191650952Y-101013333D01*
X191603333Y-100965714D01*
X191555714Y-100870476D01*
X191555714Y-100680000D01*
X191603333Y-100584761D01*
X192222380Y-100013333D02*
X192174761Y-100108571D01*
X192127142Y-100156190D01*
X192031904Y-100203809D01*
X191746190Y-100203809D01*
X191650952Y-100156190D01*
X191603333Y-100108571D01*
X191555714Y-100013333D01*
X191555714Y-99870476D01*
X191603333Y-99775238D01*
X191650952Y-99727619D01*
X191746190Y-99680000D01*
X192031904Y-99680000D01*
X192127142Y-99727619D01*
X192174761Y-99775238D01*
X192222380Y-99870476D01*
X192222380Y-100013333D01*
X192222380Y-99251428D02*
X191555714Y-99251428D01*
X191650952Y-99251428D02*
X191603333Y-99203809D01*
X191555714Y-99108571D01*
X191555714Y-98965714D01*
X191603333Y-98870476D01*
X191698571Y-98822857D01*
X192222380Y-98822857D01*
X191698571Y-98822857D02*
X191603333Y-98775238D01*
X191555714Y-98680000D01*
X191555714Y-98537142D01*
X191603333Y-98441904D01*
X191698571Y-98394285D01*
X192222380Y-98394285D01*
D10*
X194310000Y-54610000D02*
X194310000Y-130810000D01*
X146050000Y-54610000D02*
X194310000Y-54610000D01*
X146050000Y-130810000D02*
X146050000Y-54610000D01*
X194310000Y-130810000D02*
X146050000Y-130810000D01*
X147640476Y-64506666D02*
X148116666Y-64506666D01*
X147545238Y-64792380D02*
X147878571Y-63792380D01*
X148211904Y-64792380D01*
X148545238Y-64125714D02*
X148545238Y-64792380D01*
X148545238Y-64220952D02*
X148592857Y-64173333D01*
X148688095Y-64125714D01*
X148830952Y-64125714D01*
X148926190Y-64173333D01*
X148973809Y-64268571D01*
X148973809Y-64792380D01*
X149307142Y-64125714D02*
X149688095Y-64125714D01*
X149450000Y-63792380D02*
X149450000Y-64649523D01*
X149497619Y-64744761D01*
X149592857Y-64792380D01*
X149688095Y-64792380D01*
X150402380Y-64744761D02*
X150307142Y-64792380D01*
X150116666Y-64792380D01*
X150021428Y-64744761D01*
X149973809Y-64649523D01*
X149973809Y-64268571D01*
X150021428Y-64173333D01*
X150116666Y-64125714D01*
X150307142Y-64125714D01*
X150402380Y-64173333D01*
X150450000Y-64268571D01*
X150450000Y-64363809D01*
X149973809Y-64459047D01*
X150878571Y-64125714D02*
X150878571Y-64792380D01*
X150878571Y-64220952D02*
X150926190Y-64173333D01*
X151021428Y-64125714D01*
X151164285Y-64125714D01*
X151259523Y-64173333D01*
X151307142Y-64268571D01*
X151307142Y-64792380D01*
X151783333Y-64125714D02*
X151783333Y-64792380D01*
X151783333Y-64220952D02*
X151830952Y-64173333D01*
X151926190Y-64125714D01*
X152069047Y-64125714D01*
X152164285Y-64173333D01*
X152211904Y-64268571D01*
X152211904Y-64792380D01*
X153116666Y-64792380D02*
X153116666Y-64268571D01*
X153069047Y-64173333D01*
X152973809Y-64125714D01*
X152783333Y-64125714D01*
X152688095Y-64173333D01*
X153116666Y-64744761D02*
X153021428Y-64792380D01*
X152783333Y-64792380D01*
X152688095Y-64744761D01*
X152640476Y-64649523D01*
X152640476Y-64554285D01*
X152688095Y-64459047D01*
X152783333Y-64411428D01*
X153021428Y-64411428D01*
X153116666Y-64363809D01*
X154307142Y-64744761D02*
X154450000Y-64792380D01*
X154688095Y-64792380D01*
X154783333Y-64744761D01*
X154830952Y-64697142D01*
X154878571Y-64601904D01*
X154878571Y-64506666D01*
X154830952Y-64411428D01*
X154783333Y-64363809D01*
X154688095Y-64316190D01*
X154497619Y-64268571D01*
X154402380Y-64220952D01*
X154354761Y-64173333D01*
X154307142Y-64078095D01*
X154307142Y-63982857D01*
X154354761Y-63887619D01*
X154402380Y-63840000D01*
X154497619Y-63792380D01*
X154735714Y-63792380D01*
X154878571Y-63840000D01*
X155211904Y-64125714D02*
X155402380Y-64792380D01*
X155592857Y-64316190D01*
X155783333Y-64792380D01*
X155973809Y-64125714D01*
X156354761Y-64792380D02*
X156354761Y-64125714D01*
X156354761Y-63792380D02*
X156307142Y-63840000D01*
X156354761Y-63887619D01*
X156402380Y-63840000D01*
X156354761Y-63792380D01*
X156354761Y-63887619D01*
X156688095Y-64125714D02*
X157069047Y-64125714D01*
X156830952Y-63792380D02*
X156830952Y-64649523D01*
X156878571Y-64744761D01*
X156973809Y-64792380D01*
X157069047Y-64792380D01*
X157830952Y-64744761D02*
X157735714Y-64792380D01*
X157545238Y-64792380D01*
X157450000Y-64744761D01*
X157402380Y-64697142D01*
X157354761Y-64601904D01*
X157354761Y-64316190D01*
X157402380Y-64220952D01*
X157450000Y-64173333D01*
X157545238Y-64125714D01*
X157735714Y-64125714D01*
X157830952Y-64173333D01*
X158259523Y-64792380D02*
X158259523Y-63792380D01*
X158688095Y-64792380D02*
X158688095Y-64268571D01*
X158640476Y-64173333D01*
X158545238Y-64125714D01*
X158402380Y-64125714D01*
X158307142Y-64173333D01*
X158259523Y-64220952D01*
X147592857Y-65825714D02*
X147830952Y-66492380D01*
X148069047Y-65825714D01*
X148830952Y-66444761D02*
X148735714Y-66492380D01*
X148545238Y-66492380D01*
X148450000Y-66444761D01*
X148402380Y-66349523D01*
X148402380Y-65968571D01*
X148450000Y-65873333D01*
X148545238Y-65825714D01*
X148735714Y-65825714D01*
X148830952Y-65873333D01*
X148878571Y-65968571D01*
X148878571Y-66063809D01*
X148402380Y-66159047D01*
X149307142Y-66492380D02*
X149307142Y-65825714D01*
X149307142Y-66016190D02*
X149354761Y-65920952D01*
X149402380Y-65873333D01*
X149497619Y-65825714D01*
X149592857Y-65825714D01*
X151211904Y-66492380D02*
X150640476Y-66492380D01*
X150926190Y-66492380D02*
X150926190Y-65492380D01*
X150830952Y-65635238D01*
X150735714Y-65730476D01*
X150640476Y-65778095D01*
X151640476Y-66397142D02*
X151688095Y-66444761D01*
X151640476Y-66492380D01*
X151592857Y-66444761D01*
X151640476Y-66397142D01*
X151640476Y-66492380D01*
X152640476Y-66492380D02*
X152069047Y-66492380D01*
X152354761Y-66492380D02*
X152354761Y-65492380D01*
X152259523Y-65635238D01*
X152164285Y-65730476D01*
X152069047Y-65778095D01*
X147688095Y-68192380D02*
X147688095Y-67192380D01*
X147688095Y-67573333D02*
X147783333Y-67525714D01*
X147973809Y-67525714D01*
X148069047Y-67573333D01*
X148116666Y-67620952D01*
X148164285Y-67716190D01*
X148164285Y-68001904D01*
X148116666Y-68097142D01*
X148069047Y-68144761D01*
X147973809Y-68192380D01*
X147783333Y-68192380D01*
X147688095Y-68144761D01*
X148497619Y-67525714D02*
X148735714Y-68192380D01*
X148973809Y-67525714D02*
X148735714Y-68192380D01*
X148640476Y-68430476D01*
X148592857Y-68478095D01*
X148497619Y-68525714D01*
X150116666Y-68192380D02*
X150116666Y-67525714D01*
X150116666Y-67716190D02*
X150164285Y-67620952D01*
X150211904Y-67573333D01*
X150307142Y-67525714D01*
X150402380Y-67525714D01*
X151164285Y-68192380D02*
X151164285Y-67668571D01*
X151116666Y-67573333D01*
X151021428Y-67525714D01*
X150830952Y-67525714D01*
X150735714Y-67573333D01*
X151164285Y-68144761D02*
X151069047Y-68192380D01*
X150830952Y-68192380D01*
X150735714Y-68144761D01*
X150688095Y-68049523D01*
X150688095Y-67954285D01*
X150735714Y-67859047D01*
X150830952Y-67811428D01*
X151069047Y-67811428D01*
X151164285Y-67763809D01*
X151640476Y-68192380D02*
X151640476Y-67525714D01*
X151640476Y-67620952D02*
X151688095Y-67573333D01*
X151783333Y-67525714D01*
X151926190Y-67525714D01*
X152021428Y-67573333D01*
X152069047Y-67668571D01*
X152069047Y-68192380D01*
X152069047Y-67668571D02*
X152116666Y-67573333D01*
X152211904Y-67525714D01*
X152354761Y-67525714D01*
X152450000Y-67573333D01*
X152497619Y-67668571D01*
X152497619Y-68192380D01*
X152973809Y-68192380D02*
X152973809Y-67192380D01*
X153402380Y-68192380D02*
X153402380Y-67668571D01*
X153354761Y-67573333D01*
X153259523Y-67525714D01*
X153116666Y-67525714D01*
X153021428Y-67573333D01*
X152973809Y-67620952D01*
X154307142Y-68192380D02*
X154307142Y-67192380D01*
X154307142Y-68144761D02*
X154211904Y-68192380D01*
X154021428Y-68192380D01*
X153926190Y-68144761D01*
X153878571Y-68097142D01*
X153830952Y-68001904D01*
X153830952Y-67716190D01*
X153878571Y-67620952D01*
X153926190Y-67573333D01*
X154021428Y-67525714D01*
X154211904Y-67525714D01*
X154307142Y-67573333D01*
X154783333Y-68192380D02*
X154783333Y-67525714D01*
X154783333Y-67192380D02*
X154735714Y-67240000D01*
X154783333Y-67287619D01*
X154830952Y-67240000D01*
X154783333Y-67192380D01*
X154783333Y-67287619D01*
D12*
X152265000Y-94527500D02*
X152265000Y-90467500D01*
X152265000Y-90467500D02*
X149995000Y-90467500D01*
X149995000Y-90467500D02*
X149995000Y-94527500D01*
D11*
X169080000Y-123990000D02*
X168880000Y-123790000D01*
X168880000Y-122390000D02*
X168880000Y-123790000D01*
X169080000Y-122390000D02*
X168880000Y-122390000D01*
X171480000Y-123990000D02*
X171280000Y-123990000D01*
X171480000Y-122390000D02*
X171480000Y-123990000D01*
X171280000Y-122390000D02*
X171480000Y-122390000D01*
D12*
X187230000Y-124460000D02*
X186730000Y-124710000D01*
X186730000Y-124710000D02*
X186730000Y-124210000D01*
X186730000Y-124210000D02*
X187230000Y-124460000D01*
X169930000Y-62190000D02*
X170180000Y-61690000D01*
X170430000Y-62190000D02*
X169930000Y-62190000D01*
X170180000Y-61690000D02*
X170430000Y-62190000D01*
X153630000Y-124710000D02*
X153130000Y-124460000D01*
X153630000Y-124210000D02*
X153630000Y-124710000D01*
X153130000Y-124460000D02*
X153630000Y-124210000D01*
X147260000Y-74930000D02*
X149920000Y-74930000D01*
X147260000Y-74930000D02*
X147260000Y-80070000D01*
X147260000Y-80070000D02*
X149920000Y-80070000D01*
X149920000Y-74930000D02*
X149920000Y-80070000D01*
X149920000Y-72330000D02*
X149920000Y-73660000D01*
X148590000Y-72330000D02*
X149920000Y-72330000D01*
X179130000Y-115570000D02*
X176470000Y-115570000D01*
X179130000Y-115570000D02*
X179130000Y-67250000D01*
X179130000Y-67250000D02*
X176470000Y-67250000D01*
X176470000Y-115570000D02*
X176470000Y-67250000D01*
X176470000Y-118170000D02*
X176470000Y-116840000D01*
X177800000Y-118170000D02*
X176470000Y-118170000D01*
X162560000Y-67250000D02*
X163890000Y-67250000D01*
X163890000Y-67250000D02*
X163890000Y-68580000D01*
X163890000Y-69850000D02*
X163890000Y-118170000D01*
X161230000Y-118170000D02*
X163890000Y-118170000D01*
X161230000Y-69850000D02*
X161230000Y-118170000D01*
X161230000Y-69850000D02*
X163890000Y-69850000D01*
X190440000Y-69850000D02*
X193100000Y-69850000D01*
X190440000Y-69850000D02*
X190440000Y-72450000D01*
X190440000Y-72450000D02*
X193100000Y-72450000D01*
X193100000Y-69850000D02*
X193100000Y-72450000D01*
X193100000Y-67250000D02*
X193100000Y-68580000D01*
X191770000Y-67250000D02*
X193100000Y-67250000D01*
X177132064Y-123550000D02*
X175927936Y-123550000D01*
X177132064Y-125370000D02*
X175927936Y-125370000D01*
X171090000Y-117507936D02*
X171090000Y-118712064D01*
X169270000Y-117507936D02*
X169270000Y-118712064D01*
X163227936Y-123550000D02*
X164432064Y-123550000D01*
X163227936Y-125370000D02*
X164432064Y-125370000D01*
X188095000Y-82847500D02*
X188095000Y-86907500D01*
X190365000Y-82847500D02*
X188095000Y-82847500D01*
X190365000Y-86907500D02*
X190365000Y-82847500D01*
X190365000Y-79287500D02*
X190365000Y-75227500D01*
X190365000Y-75227500D02*
X188095000Y-75227500D01*
X188095000Y-75227500D02*
X188095000Y-79287500D01*
X149995000Y-82847500D02*
X149995000Y-86907500D01*
X152265000Y-82847500D02*
X149995000Y-82847500D01*
X152265000Y-86907500D02*
X152265000Y-82847500D01*
X184510000Y-85909564D02*
X184510000Y-84705436D01*
X186330000Y-85909564D02*
X186330000Y-84705436D01*
X186330000Y-78289564D02*
X186330000Y-77085436D01*
X184510000Y-78289564D02*
X184510000Y-77085436D01*
X155850000Y-85909564D02*
X155850000Y-84705436D01*
X154030000Y-85909564D02*
X154030000Y-84705436D01*
X154030000Y-93529564D02*
X154030000Y-92325436D01*
X155850000Y-93529564D02*
X155850000Y-92325436D01*
D13*
G36*
X157029203Y-57294301D02*
X157034371Y-57567518D01*
X157017810Y-57712472D01*
X156946804Y-58007270D01*
X156758680Y-58216236D01*
X156364072Y-58390339D01*
X155673611Y-58580548D01*
X155363334Y-58656084D01*
X154413913Y-58878682D01*
X153801535Y-58995012D01*
X153452384Y-59000817D01*
X153292643Y-58891839D01*
X153248495Y-58663821D01*
X153246667Y-58533991D01*
X153271530Y-58285067D01*
X153391351Y-58093877D01*
X153673981Y-57929499D01*
X154187269Y-57761011D01*
X154999063Y-57557491D01*
X155786667Y-57376399D01*
X156494663Y-57223122D01*
X156879071Y-57187629D01*
X157029203Y-57294301D01*
X157029203Y-57294301D01*
G37*
X157029203Y-57294301D02*
X157034371Y-57567518D01*
X157017810Y-57712472D01*
X156946804Y-58007270D01*
X156758680Y-58216236D01*
X156364072Y-58390339D01*
X155673611Y-58580548D01*
X155363334Y-58656084D01*
X154413913Y-58878682D01*
X153801535Y-58995012D01*
X153452384Y-59000817D01*
X153292643Y-58891839D01*
X153248495Y-58663821D01*
X153246667Y-58533991D01*
X153271530Y-58285067D01*
X153391351Y-58093877D01*
X153673981Y-57929499D01*
X154187269Y-57761011D01*
X154999063Y-57557491D01*
X155786667Y-57376399D01*
X156494663Y-57223122D01*
X156879071Y-57187629D01*
X157029203Y-57294301D01*
G36*
X148076732Y-57194670D02*
X148617858Y-57309675D01*
X149320083Y-57466502D01*
X150058142Y-57636641D01*
X150706770Y-57791580D01*
X151140699Y-57902809D01*
X151182917Y-57914966D01*
X151484845Y-58202290D01*
X151553334Y-58540097D01*
X151526847Y-58818474D01*
X151399954Y-58973825D01*
X151101506Y-59009479D01*
X150560356Y-58928763D01*
X149705355Y-58735004D01*
X149330834Y-58644044D01*
X148554387Y-58439498D01*
X148100383Y-58262552D01*
X147876171Y-58057674D01*
X147789102Y-57769336D01*
X147782191Y-57715854D01*
X147767323Y-57302279D01*
X147821973Y-57150000D01*
X148076732Y-57194670D01*
X148076732Y-57194670D01*
G37*
X148076732Y-57194670D02*
X148617858Y-57309675D01*
X149320083Y-57466502D01*
X150058142Y-57636641D01*
X150706770Y-57791580D01*
X151140699Y-57902809D01*
X151182917Y-57914966D01*
X151484845Y-58202290D01*
X151553334Y-58540097D01*
X151526847Y-58818474D01*
X151399954Y-58973825D01*
X151101506Y-59009479D01*
X150560356Y-58928763D01*
X149705355Y-58735004D01*
X149330834Y-58644044D01*
X148554387Y-58439498D01*
X148100383Y-58262552D01*
X147876171Y-58057674D01*
X147789102Y-57769336D01*
X147782191Y-57715854D01*
X147767323Y-57302279D01*
X147821973Y-57150000D01*
X148076732Y-57194670D01*
G36*
X156975289Y-58691400D02*
X156971379Y-58945471D01*
X156768405Y-59357583D01*
X156438116Y-59703175D01*
X155908369Y-59978371D01*
X155102846Y-60212901D01*
X154040417Y-60420394D01*
X153518295Y-60546655D01*
X153294073Y-60766786D01*
X153243599Y-61207556D01*
X153243426Y-61234174D01*
X153179200Y-61814395D01*
X153035000Y-62230000D01*
X152886137Y-62383324D01*
X152836671Y-62166454D01*
X152835916Y-62018333D01*
X152893422Y-61501626D01*
X153032395Y-60792077D01*
X153120528Y-60431438D01*
X153399040Y-59373709D01*
X155117804Y-58963193D01*
X155920942Y-58790598D01*
X156559977Y-58689175D01*
X156929821Y-58674299D01*
X156975289Y-58691400D01*
X156975289Y-58691400D01*
G37*
X156975289Y-58691400D02*
X156971379Y-58945471D01*
X156768405Y-59357583D01*
X156438116Y-59703175D01*
X155908369Y-59978371D01*
X155102846Y-60212901D01*
X154040417Y-60420394D01*
X153518295Y-60546655D01*
X153294073Y-60766786D01*
X153243599Y-61207556D01*
X153243426Y-61234174D01*
X153179200Y-61814395D01*
X153035000Y-62230000D01*
X152886137Y-62383324D01*
X152836671Y-62166454D01*
X152835916Y-62018333D01*
X152893422Y-61501626D01*
X153032395Y-60792077D01*
X153120528Y-60431438D01*
X153399040Y-59373709D01*
X155117804Y-58963193D01*
X155920942Y-58790598D01*
X156559977Y-58689175D01*
X156929821Y-58674299D01*
X156975289Y-58691400D01*
G36*
X148640950Y-58747818D02*
X149400628Y-58898223D01*
X149681430Y-58963010D01*
X151399427Y-59373343D01*
X151696314Y-60533426D01*
X151842153Y-61212708D01*
X151921614Y-61801991D01*
X151934044Y-62224529D01*
X151878787Y-62403574D01*
X151755191Y-62262377D01*
X151710172Y-62159771D01*
X151591604Y-61655518D01*
X151553334Y-61163946D01*
X151501045Y-60753123D01*
X151262856Y-60540955D01*
X150759584Y-60420394D01*
X149629416Y-60197000D01*
X148845935Y-59960567D01*
X148332825Y-59681365D01*
X148031596Y-59357583D01*
X147827903Y-58943158D01*
X147824711Y-58691400D01*
X148080606Y-58673751D01*
X148640950Y-58747818D01*
X148640950Y-58747818D01*
G37*
X148640950Y-58747818D02*
X149400628Y-58898223D01*
X149681430Y-58963010D01*
X151399427Y-59373343D01*
X151696314Y-60533426D01*
X151842153Y-61212708D01*
X151921614Y-61801991D01*
X151934044Y-62224529D01*
X151878787Y-62403574D01*
X151755191Y-62262377D01*
X151710172Y-62159771D01*
X151591604Y-61655518D01*
X151553334Y-61163946D01*
X151501045Y-60753123D01*
X151262856Y-60540955D01*
X150759584Y-60420394D01*
X149629416Y-60197000D01*
X148845935Y-59960567D01*
X148332825Y-59681365D01*
X148031596Y-59357583D01*
X147827903Y-58943158D01*
X147824711Y-58691400D01*
X148080606Y-58673751D01*
X148640950Y-58747818D01*
D11*
X150391904Y-96972380D02*
X150391904Y-95972380D01*
X150630000Y-95972380D01*
X150772857Y-96020000D01*
X150868095Y-96115238D01*
X150915714Y-96210476D01*
X150963333Y-96400952D01*
X150963333Y-96543809D01*
X150915714Y-96734285D01*
X150868095Y-96829523D01*
X150772857Y-96924761D01*
X150630000Y-96972380D01*
X150391904Y-96972380D01*
X151820476Y-96305714D02*
X151820476Y-96972380D01*
X151582380Y-95924761D02*
X151344285Y-96639047D01*
X151963333Y-96639047D01*
X169418095Y-125342380D02*
X169418095Y-126151904D01*
X169465714Y-126247142D01*
X169513333Y-126294761D01*
X169608571Y-126342380D01*
X169799047Y-126342380D01*
X169894285Y-126294761D01*
X169941904Y-126247142D01*
X169989523Y-126151904D01*
X169989523Y-125342380D01*
X170418095Y-125437619D02*
X170465714Y-125390000D01*
X170560952Y-125342380D01*
X170799047Y-125342380D01*
X170894285Y-125390000D01*
X170941904Y-125437619D01*
X170989523Y-125532857D01*
X170989523Y-125628095D01*
X170941904Y-125770952D01*
X170370476Y-126342380D01*
X170989523Y-126342380D01*
X190396666Y-116292380D02*
X190396666Y-117006666D01*
X190349047Y-117149523D01*
X190253809Y-117244761D01*
X190110952Y-117292380D01*
X190015714Y-117292380D01*
X190825238Y-116387619D02*
X190872857Y-116340000D01*
X190968095Y-116292380D01*
X191206190Y-116292380D01*
X191301428Y-116340000D01*
X191349047Y-116387619D01*
X191396666Y-116482857D01*
X191396666Y-116578095D01*
X191349047Y-116720952D01*
X190777619Y-117292380D01*
X191396666Y-117292380D01*
X162632380Y-58523333D02*
X163346666Y-58523333D01*
X163489523Y-58570952D01*
X163584761Y-58666190D01*
X163632380Y-58809047D01*
X163632380Y-58904285D01*
X162632380Y-58142380D02*
X162632380Y-57523333D01*
X163013333Y-57856666D01*
X163013333Y-57713809D01*
X163060952Y-57618571D01*
X163108571Y-57570952D01*
X163203809Y-57523333D01*
X163441904Y-57523333D01*
X163537142Y-57570952D01*
X163584761Y-57618571D01*
X163632380Y-57713809D01*
X163632380Y-57999523D01*
X163584761Y-58094761D01*
X163537142Y-58142380D01*
X149526666Y-116292380D02*
X149526666Y-117006666D01*
X149479047Y-117149523D01*
X149383809Y-117244761D01*
X149240952Y-117292380D01*
X149145714Y-117292380D01*
X150431428Y-116625714D02*
X150431428Y-117292380D01*
X150193333Y-116244761D02*
X149955238Y-116959047D01*
X150574285Y-116959047D01*
X148256666Y-70342380D02*
X148256666Y-71056666D01*
X148209047Y-71199523D01*
X148113809Y-71294761D01*
X147970952Y-71342380D01*
X147875714Y-71342380D01*
X149256666Y-71342380D02*
X148685238Y-71342380D01*
X148970952Y-71342380D02*
X148970952Y-70342380D01*
X148875714Y-70485238D01*
X148780476Y-70580476D01*
X148685238Y-70628095D01*
X177466666Y-119062380D02*
X177466666Y-119776666D01*
X177419047Y-119919523D01*
X177323809Y-120014761D01*
X177180952Y-120062380D01*
X177085714Y-120062380D01*
X178419047Y-119062380D02*
X177942857Y-119062380D01*
X177895238Y-119538571D01*
X177942857Y-119490952D01*
X178038095Y-119443333D01*
X178276190Y-119443333D01*
X178371428Y-119490952D01*
X178419047Y-119538571D01*
X178466666Y-119633809D01*
X178466666Y-119871904D01*
X178419047Y-119967142D01*
X178371428Y-120014761D01*
X178276190Y-120062380D01*
X178038095Y-120062380D01*
X177942857Y-120014761D01*
X177895238Y-119967142D01*
X162226666Y-65262380D02*
X162226666Y-65976666D01*
X162179047Y-66119523D01*
X162083809Y-66214761D01*
X161940952Y-66262380D01*
X161845714Y-66262380D01*
X163131428Y-65262380D02*
X162940952Y-65262380D01*
X162845714Y-65310000D01*
X162798095Y-65357619D01*
X162702857Y-65500476D01*
X162655238Y-65690952D01*
X162655238Y-66071904D01*
X162702857Y-66167142D01*
X162750476Y-66214761D01*
X162845714Y-66262380D01*
X163036190Y-66262380D01*
X163131428Y-66214761D01*
X163179047Y-66167142D01*
X163226666Y-66071904D01*
X163226666Y-65833809D01*
X163179047Y-65738571D01*
X163131428Y-65690952D01*
X163036190Y-65643333D01*
X162845714Y-65643333D01*
X162750476Y-65690952D01*
X162702857Y-65738571D01*
X162655238Y-65833809D01*
X191436666Y-65262380D02*
X191436666Y-65976666D01*
X191389047Y-66119523D01*
X191293809Y-66214761D01*
X191150952Y-66262380D01*
X191055714Y-66262380D01*
X191817619Y-65262380D02*
X192484285Y-65262380D01*
X192055714Y-66262380D01*
X176363333Y-127357142D02*
X176315714Y-127404761D01*
X176172857Y-127452380D01*
X176077619Y-127452380D01*
X175934761Y-127404761D01*
X175839523Y-127309523D01*
X175791904Y-127214285D01*
X175744285Y-127023809D01*
X175744285Y-126880952D01*
X175791904Y-126690476D01*
X175839523Y-126595238D01*
X175934761Y-126500000D01*
X176077619Y-126452380D01*
X176172857Y-126452380D01*
X176315714Y-126500000D01*
X176363333Y-126547619D01*
X176696666Y-126452380D02*
X177315714Y-126452380D01*
X176982380Y-126833333D01*
X177125238Y-126833333D01*
X177220476Y-126880952D01*
X177268095Y-126928571D01*
X177315714Y-127023809D01*
X177315714Y-127261904D01*
X177268095Y-127357142D01*
X177220476Y-127404761D01*
X177125238Y-127452380D01*
X176839523Y-127452380D01*
X176744285Y-127404761D01*
X176696666Y-127357142D01*
X173077142Y-118276666D02*
X173124761Y-118324285D01*
X173172380Y-118467142D01*
X173172380Y-118562380D01*
X173124761Y-118705238D01*
X173029523Y-118800476D01*
X172934285Y-118848095D01*
X172743809Y-118895714D01*
X172600952Y-118895714D01*
X172410476Y-118848095D01*
X172315238Y-118800476D01*
X172220000Y-118705238D01*
X172172380Y-118562380D01*
X172172380Y-118467142D01*
X172220000Y-118324285D01*
X172267619Y-118276666D01*
X172505714Y-117419523D02*
X173172380Y-117419523D01*
X172124761Y-117657619D02*
X172839047Y-117895714D01*
X172839047Y-117276666D01*
X163663333Y-127357142D02*
X163615714Y-127404761D01*
X163472857Y-127452380D01*
X163377619Y-127452380D01*
X163234761Y-127404761D01*
X163139523Y-127309523D01*
X163091904Y-127214285D01*
X163044285Y-127023809D01*
X163044285Y-126880952D01*
X163091904Y-126690476D01*
X163139523Y-126595238D01*
X163234761Y-126500000D01*
X163377619Y-126452380D01*
X163472857Y-126452380D01*
X163615714Y-126500000D01*
X163663333Y-126547619D01*
X164568095Y-126452380D02*
X164091904Y-126452380D01*
X164044285Y-126928571D01*
X164091904Y-126880952D01*
X164187142Y-126833333D01*
X164425238Y-126833333D01*
X164520476Y-126880952D01*
X164568095Y-126928571D01*
X164615714Y-127023809D01*
X164615714Y-127261904D01*
X164568095Y-127357142D01*
X164520476Y-127404761D01*
X164425238Y-127452380D01*
X164187142Y-127452380D01*
X164091904Y-127404761D01*
X164044285Y-127357142D01*
X188491904Y-89352380D02*
X188491904Y-88352380D01*
X188730000Y-88352380D01*
X188872857Y-88400000D01*
X188968095Y-88495238D01*
X189015714Y-88590476D01*
X189063333Y-88780952D01*
X189063333Y-88923809D01*
X189015714Y-89114285D01*
X188968095Y-89209523D01*
X188872857Y-89304761D01*
X188730000Y-89352380D01*
X188491904Y-89352380D01*
X190015714Y-89352380D02*
X189444285Y-89352380D01*
X189730000Y-89352380D02*
X189730000Y-88352380D01*
X189634761Y-88495238D01*
X189539523Y-88590476D01*
X189444285Y-88638095D01*
X188491904Y-81732380D02*
X188491904Y-80732380D01*
X188730000Y-80732380D01*
X188872857Y-80780000D01*
X188968095Y-80875238D01*
X189015714Y-80970476D01*
X189063333Y-81160952D01*
X189063333Y-81303809D01*
X189015714Y-81494285D01*
X188968095Y-81589523D01*
X188872857Y-81684761D01*
X188730000Y-81732380D01*
X188491904Y-81732380D01*
X189444285Y-80827619D02*
X189491904Y-80780000D01*
X189587142Y-80732380D01*
X189825238Y-80732380D01*
X189920476Y-80780000D01*
X189968095Y-80827619D01*
X190015714Y-80922857D01*
X190015714Y-81018095D01*
X189968095Y-81160952D01*
X189396666Y-81732380D01*
X190015714Y-81732380D01*
X150391904Y-89352380D02*
X150391904Y-88352380D01*
X150630000Y-88352380D01*
X150772857Y-88400000D01*
X150868095Y-88495238D01*
X150915714Y-88590476D01*
X150963333Y-88780952D01*
X150963333Y-88923809D01*
X150915714Y-89114285D01*
X150868095Y-89209523D01*
X150772857Y-89304761D01*
X150630000Y-89352380D01*
X150391904Y-89352380D01*
X151296666Y-88352380D02*
X151915714Y-88352380D01*
X151582380Y-88733333D01*
X151725238Y-88733333D01*
X151820476Y-88780952D01*
X151868095Y-88828571D01*
X151915714Y-88923809D01*
X151915714Y-89161904D01*
X151868095Y-89257142D01*
X151820476Y-89304761D01*
X151725238Y-89352380D01*
X151439523Y-89352380D01*
X151344285Y-89304761D01*
X151296666Y-89257142D01*
X185253333Y-89352380D02*
X184920000Y-88876190D01*
X184681904Y-89352380D02*
X184681904Y-88352380D01*
X185062857Y-88352380D01*
X185158095Y-88400000D01*
X185205714Y-88447619D01*
X185253333Y-88542857D01*
X185253333Y-88685714D01*
X185205714Y-88780952D01*
X185158095Y-88828571D01*
X185062857Y-88876190D01*
X184681904Y-88876190D01*
X186205714Y-89352380D02*
X185634285Y-89352380D01*
X185920000Y-89352380D02*
X185920000Y-88352380D01*
X185824761Y-88495238D01*
X185729523Y-88590476D01*
X185634285Y-88638095D01*
X185253333Y-81732380D02*
X184920000Y-81256190D01*
X184681904Y-81732380D02*
X184681904Y-80732380D01*
X185062857Y-80732380D01*
X185158095Y-80780000D01*
X185205714Y-80827619D01*
X185253333Y-80922857D01*
X185253333Y-81065714D01*
X185205714Y-81160952D01*
X185158095Y-81208571D01*
X185062857Y-81256190D01*
X184681904Y-81256190D01*
X185634285Y-80827619D02*
X185681904Y-80780000D01*
X185777142Y-80732380D01*
X186015238Y-80732380D01*
X186110476Y-80780000D01*
X186158095Y-80827619D01*
X186205714Y-80922857D01*
X186205714Y-81018095D01*
X186158095Y-81160952D01*
X185586666Y-81732380D01*
X186205714Y-81732380D01*
X154773333Y-89352380D02*
X154440000Y-88876190D01*
X154201904Y-89352380D02*
X154201904Y-88352380D01*
X154582857Y-88352380D01*
X154678095Y-88400000D01*
X154725714Y-88447619D01*
X154773333Y-88542857D01*
X154773333Y-88685714D01*
X154725714Y-88780952D01*
X154678095Y-88828571D01*
X154582857Y-88876190D01*
X154201904Y-88876190D01*
X155106666Y-88352380D02*
X155725714Y-88352380D01*
X155392380Y-88733333D01*
X155535238Y-88733333D01*
X155630476Y-88780952D01*
X155678095Y-88828571D01*
X155725714Y-88923809D01*
X155725714Y-89161904D01*
X155678095Y-89257142D01*
X155630476Y-89304761D01*
X155535238Y-89352380D01*
X155249523Y-89352380D01*
X155154285Y-89304761D01*
X155106666Y-89257142D01*
X154773333Y-96972380D02*
X154440000Y-96496190D01*
X154201904Y-96972380D02*
X154201904Y-95972380D01*
X154582857Y-95972380D01*
X154678095Y-96020000D01*
X154725714Y-96067619D01*
X154773333Y-96162857D01*
X154773333Y-96305714D01*
X154725714Y-96400952D01*
X154678095Y-96448571D01*
X154582857Y-96496190D01*
X154201904Y-96496190D01*
X155630476Y-96305714D02*
X155630476Y-96972380D01*
X155392380Y-95924761D02*
X155154285Y-96639047D01*
X155773333Y-96639047D01*
M02*
