%TF.GenerationSoftware,KiCad,Pcbnew,(5.0.0)*%
%TF.CreationDate,2018-11-11T16:52:16+07:00*%
%TF.ProjectId,AntennaSwitch_v1.1,416E74656E6E615377697463685F7631,rev?*%
%TF.SameCoordinates,Original*%
%TF.FileFunction,Copper,L2,Bot,Signal*%
%TF.FilePolarity,Positive*%
%FSLAX46Y46*%
G04 Gerber Fmt 4.6, Leading zero omitted, Abs format (unit mm)*
G04 Created by KiCad (PCBNEW (5.0.0)) date 11/11/18 16:52:16*
%MOMM*%
%LPD*%
G01*
G04 APERTURE LIST*
%ADD10C,0.200000*%
%ADD11R,0.950000X0.460000*%
%ADD12C,0.970000*%
%ADD13R,5.080000X2.420000*%
%ADD14R,2.420000X5.080000*%
%ADD15R,0.460000X0.950000*%
%ADD16R,1.700000X1.700000*%
%ADD17O,1.700000X1.700000*%
%ADD18C,0.300000*%
G04 APERTURE END LIST*
D10*
X194310000Y-54610000D02*
X194310000Y-130810000D01*
X146050000Y-54610000D02*
X194310000Y-54610000D01*
X146050000Y-130810000D02*
X146050000Y-54610000D01*
X194310000Y-130810000D02*
X146050000Y-130810000D01*
D11*
X187960000Y-120080000D03*
X187960000Y-128840000D03*
D12*
X187510000Y-120080000D03*
X187510000Y-128840000D03*
D13*
X190950000Y-120080000D03*
X190950000Y-128840000D03*
D14*
X174560000Y-57970000D03*
X165800000Y-57970000D03*
D12*
X174560000Y-61410000D03*
X165800000Y-61410000D03*
D15*
X174560000Y-60960000D03*
X165800000Y-60960000D03*
D13*
X149410000Y-120080000D03*
X149410000Y-128840000D03*
D12*
X152850000Y-120080000D03*
X152850000Y-128840000D03*
D11*
X152400000Y-120080000D03*
X152400000Y-128840000D03*
D16*
X148590000Y-73660000D03*
D17*
X148590000Y-76200000D03*
X148590000Y-78740000D03*
D16*
X177800000Y-116840000D03*
D17*
X177800000Y-114300000D03*
X177800000Y-111760000D03*
X177800000Y-109220000D03*
X177800000Y-106680000D03*
X177800000Y-104140000D03*
X177800000Y-101600000D03*
X177800000Y-99060000D03*
X177800000Y-96520000D03*
X177800000Y-93980000D03*
X177800000Y-91440000D03*
X177800000Y-88900000D03*
X177800000Y-86360000D03*
X177800000Y-83820000D03*
X177800000Y-81280000D03*
X177800000Y-78740000D03*
X177800000Y-76200000D03*
X177800000Y-73660000D03*
X177800000Y-71120000D03*
X177800000Y-68580000D03*
X162560000Y-116840000D03*
X162560000Y-114300000D03*
X162560000Y-111760000D03*
X162560000Y-109220000D03*
X162560000Y-106680000D03*
X162560000Y-104140000D03*
X162560000Y-101600000D03*
X162560000Y-99060000D03*
X162560000Y-96520000D03*
X162560000Y-93980000D03*
X162560000Y-91440000D03*
X162560000Y-88900000D03*
X162560000Y-86360000D03*
X162560000Y-83820000D03*
X162560000Y-81280000D03*
X162560000Y-78740000D03*
X162560000Y-76200000D03*
X162560000Y-73660000D03*
X162560000Y-71120000D03*
D16*
X162560000Y-68580000D03*
X191770000Y-68580000D03*
D17*
X191770000Y-71120000D03*
D18*
X175260000Y-71120000D02*
X177800000Y-73660000D01*
X175260000Y-67310000D02*
X175260000Y-71120000D01*
X176530000Y-66040000D02*
X175260000Y-67310000D01*
X188080000Y-66040000D02*
X176530000Y-66040000D01*
X191770000Y-68580000D02*
X190620000Y-68580000D01*
X190620000Y-68580000D02*
X188080000Y-66040000D01*
X179070000Y-71120000D02*
X191770000Y-71120000D01*
X177800000Y-71120000D02*
X179070000Y-71120000D01*
X148590000Y-76200000D02*
X149860000Y-76200000D01*
X149860000Y-76200000D02*
X153670000Y-80010000D01*
X153670000Y-97790000D02*
X162560000Y-106680000D01*
X153670000Y-80010000D02*
X153670000Y-97790000D01*
X149740000Y-73660000D02*
X156210000Y-80130000D01*
X148590000Y-73660000D02*
X149740000Y-73660000D01*
X156210000Y-97790000D02*
X162560000Y-104140000D01*
X156210000Y-80130000D02*
X156210000Y-97790000D01*
G36*
X163932000Y-55299116D02*
X163932000Y-57701500D01*
X164096500Y-57866000D01*
X165696000Y-57866000D01*
X165696000Y-57846000D01*
X165904000Y-57846000D01*
X165904000Y-57866000D01*
X167503500Y-57866000D01*
X167668000Y-57701500D01*
X167668000Y-55299116D01*
X167610377Y-55160000D01*
X172749623Y-55160000D01*
X172692000Y-55299116D01*
X172692000Y-57701500D01*
X172856500Y-57866000D01*
X174456000Y-57866000D01*
X174456000Y-57846000D01*
X174664000Y-57846000D01*
X174664000Y-57866000D01*
X176263500Y-57866000D01*
X176428000Y-57701500D01*
X176428000Y-55299116D01*
X176370377Y-55160000D01*
X193760000Y-55160000D01*
X193760001Y-118269624D01*
X193620884Y-118212000D01*
X191218500Y-118212000D01*
X191054000Y-118376500D01*
X191054000Y-119976000D01*
X191074000Y-119976000D01*
X191074000Y-120184000D01*
X191054000Y-120184000D01*
X191054000Y-121783500D01*
X191218500Y-121948000D01*
X193620884Y-121948000D01*
X193760001Y-121890376D01*
X193760001Y-127029624D01*
X193620884Y-126972000D01*
X191218500Y-126972000D01*
X191054000Y-127136500D01*
X191054000Y-128736000D01*
X191074000Y-128736000D01*
X191074000Y-128944000D01*
X191054000Y-128944000D01*
X191054000Y-128964000D01*
X190846000Y-128964000D01*
X190846000Y-128944000D01*
X190826000Y-128944000D01*
X190826000Y-128736000D01*
X190846000Y-128736000D01*
X190846000Y-127136500D01*
X190681500Y-126972000D01*
X188279116Y-126972000D01*
X188037273Y-127072174D01*
X187852175Y-127257273D01*
X187752000Y-127499115D01*
X187752000Y-127712786D01*
X187679844Y-127687050D01*
X187225701Y-127709817D01*
X186911870Y-127839809D01*
X186879632Y-128062554D01*
X186990763Y-128173685D01*
X186927175Y-128237273D01*
X186878267Y-128355345D01*
X186732554Y-128209632D01*
X186509809Y-128241870D01*
X186357050Y-128670156D01*
X186379817Y-129124299D01*
X186509809Y-129438130D01*
X186732554Y-129470368D01*
X186878267Y-129324655D01*
X186927175Y-129442727D01*
X186990763Y-129506315D01*
X186879632Y-129617446D01*
X186911870Y-129840191D01*
X187340156Y-129992950D01*
X187752000Y-129972304D01*
X187752000Y-130180885D01*
X187784771Y-130260000D01*
X152575229Y-130260000D01*
X152608000Y-130180885D01*
X152608000Y-129967214D01*
X152680156Y-129992950D01*
X153134299Y-129970183D01*
X153448130Y-129840191D01*
X153480368Y-129617446D01*
X153369237Y-129506315D01*
X153432825Y-129442727D01*
X153481733Y-129324655D01*
X153627446Y-129470368D01*
X153850191Y-129438130D01*
X154002950Y-129009844D01*
X153980183Y-128555701D01*
X153850191Y-128241870D01*
X153627446Y-128209632D01*
X153481733Y-128355345D01*
X153432825Y-128237273D01*
X153369237Y-128173685D01*
X153480368Y-128062554D01*
X153448130Y-127839809D01*
X153019844Y-127687050D01*
X152608000Y-127707696D01*
X152608000Y-127499115D01*
X152507825Y-127257273D01*
X152322727Y-127072174D01*
X152080884Y-126972000D01*
X149678500Y-126972000D01*
X149514000Y-127136500D01*
X149514000Y-128736000D01*
X149534000Y-128736000D01*
X149534000Y-128944000D01*
X149514000Y-128944000D01*
X149514000Y-128964000D01*
X149306000Y-128964000D01*
X149306000Y-128944000D01*
X149286000Y-128944000D01*
X149286000Y-128736000D01*
X149306000Y-128736000D01*
X149306000Y-127136500D01*
X149141500Y-126972000D01*
X146739116Y-126972000D01*
X146600000Y-127029623D01*
X146600000Y-121890377D01*
X146739116Y-121948000D01*
X149141500Y-121948000D01*
X149306000Y-121783500D01*
X149306000Y-120184000D01*
X149286000Y-120184000D01*
X149286000Y-119976000D01*
X149306000Y-119976000D01*
X149306000Y-118376500D01*
X149514000Y-118376500D01*
X149514000Y-119976000D01*
X149534000Y-119976000D01*
X149534000Y-120184000D01*
X149514000Y-120184000D01*
X149514000Y-121783500D01*
X149678500Y-121948000D01*
X152080884Y-121948000D01*
X152322727Y-121847826D01*
X152507825Y-121662727D01*
X152608000Y-121420885D01*
X152608000Y-121207214D01*
X152680156Y-121232950D01*
X153134299Y-121210183D01*
X153448130Y-121080191D01*
X153480368Y-120857446D01*
X153369237Y-120746315D01*
X153432825Y-120682727D01*
X153481733Y-120564655D01*
X153627446Y-120710368D01*
X153850191Y-120678130D01*
X154002950Y-120249844D01*
X153985921Y-119910156D01*
X186357050Y-119910156D01*
X186379817Y-120364299D01*
X186509809Y-120678130D01*
X186732554Y-120710368D01*
X186878267Y-120564655D01*
X186927175Y-120682727D01*
X186990763Y-120746315D01*
X186879632Y-120857446D01*
X186911870Y-121080191D01*
X187340156Y-121232950D01*
X187752000Y-121212304D01*
X187752000Y-121420885D01*
X187852175Y-121662727D01*
X188037273Y-121847826D01*
X188279116Y-121948000D01*
X190681500Y-121948000D01*
X190846000Y-121783500D01*
X190846000Y-120184000D01*
X190826000Y-120184000D01*
X190826000Y-119976000D01*
X190846000Y-119976000D01*
X190846000Y-118376500D01*
X190681500Y-118212000D01*
X188279116Y-118212000D01*
X188037273Y-118312174D01*
X187852175Y-118497273D01*
X187752000Y-118739115D01*
X187752000Y-118952786D01*
X187679844Y-118927050D01*
X187225701Y-118949817D01*
X186911870Y-119079809D01*
X186879632Y-119302554D01*
X186990763Y-119413685D01*
X186927175Y-119477273D01*
X186878267Y-119595345D01*
X186732554Y-119449632D01*
X186509809Y-119481870D01*
X186357050Y-119910156D01*
X153985921Y-119910156D01*
X153980183Y-119795701D01*
X153850191Y-119481870D01*
X153627446Y-119449632D01*
X153481733Y-119595345D01*
X153432825Y-119477273D01*
X153369237Y-119413685D01*
X153480368Y-119302554D01*
X153448130Y-119079809D01*
X153019844Y-118927050D01*
X152608000Y-118947696D01*
X152608000Y-118739115D01*
X152507825Y-118497273D01*
X152322727Y-118312174D01*
X152080884Y-118212000D01*
X149678500Y-118212000D01*
X149514000Y-118376500D01*
X149306000Y-118376500D01*
X149141500Y-118212000D01*
X146739116Y-118212000D01*
X146600000Y-118269623D01*
X146600000Y-117178061D01*
X161090381Y-117178061D01*
X161281772Y-117640137D01*
X161685270Y-118068387D01*
X162221938Y-118309626D01*
X162456000Y-118179917D01*
X162456000Y-116944000D01*
X162664000Y-116944000D01*
X162664000Y-118179917D01*
X162898062Y-118309626D01*
X163434730Y-118068387D01*
X163838228Y-117640137D01*
X164029619Y-117178061D01*
X163899469Y-116944000D01*
X162664000Y-116944000D01*
X162456000Y-116944000D01*
X161220531Y-116944000D01*
X161090381Y-117178061D01*
X146600000Y-117178061D01*
X146600000Y-114638061D01*
X161090381Y-114638061D01*
X161281772Y-115100137D01*
X161685270Y-115528387D01*
X161777844Y-115570000D01*
X161685270Y-115611613D01*
X161281772Y-116039863D01*
X161090381Y-116501939D01*
X161220531Y-116736000D01*
X162456000Y-116736000D01*
X162456000Y-114404000D01*
X162664000Y-114404000D01*
X162664000Y-116736000D01*
X163899469Y-116736000D01*
X164029619Y-116501939D01*
X163838228Y-116039863D01*
X163434730Y-115611613D01*
X163342156Y-115570000D01*
X163434730Y-115528387D01*
X163838228Y-115100137D01*
X164029619Y-114638061D01*
X163899469Y-114404000D01*
X162664000Y-114404000D01*
X162456000Y-114404000D01*
X161220531Y-114404000D01*
X161090381Y-114638061D01*
X146600000Y-114638061D01*
X146600000Y-79078061D01*
X147120381Y-79078061D01*
X147311772Y-79540137D01*
X147715270Y-79968387D01*
X148251938Y-80209626D01*
X148486000Y-80079917D01*
X148486000Y-78844000D01*
X148694000Y-78844000D01*
X148694000Y-80079917D01*
X148928062Y-80209626D01*
X149464730Y-79968387D01*
X149868228Y-79540137D01*
X150059619Y-79078061D01*
X149929469Y-78844000D01*
X148694000Y-78844000D01*
X148486000Y-78844000D01*
X147250531Y-78844000D01*
X147120381Y-79078061D01*
X146600000Y-79078061D01*
X146600000Y-78401939D01*
X147120381Y-78401939D01*
X147250531Y-78636000D01*
X148486000Y-78636000D01*
X148486000Y-78616000D01*
X148694000Y-78616000D01*
X148694000Y-78636000D01*
X149929469Y-78636000D01*
X150059619Y-78401939D01*
X149868228Y-77939863D01*
X149464730Y-77511613D01*
X149167159Y-77377851D01*
X149527247Y-77137247D01*
X149696066Y-76884593D01*
X153070000Y-80258528D01*
X153070001Y-97730909D01*
X153058247Y-97790000D01*
X153104814Y-98024108D01*
X153170727Y-98122753D01*
X153237426Y-98222575D01*
X153287520Y-98256047D01*
X161313661Y-106282190D01*
X161234532Y-106680000D01*
X161335427Y-107187235D01*
X161622753Y-107617247D01*
X162052765Y-107904573D01*
X162281142Y-107950000D01*
X162052765Y-107995427D01*
X161622753Y-108282753D01*
X161335427Y-108712765D01*
X161234532Y-109220000D01*
X161335427Y-109727235D01*
X161622753Y-110157247D01*
X162052765Y-110444573D01*
X162281142Y-110490000D01*
X162052765Y-110535427D01*
X161622753Y-110822753D01*
X161335427Y-111252765D01*
X161234532Y-111760000D01*
X161335427Y-112267235D01*
X161622753Y-112697247D01*
X161982841Y-112937851D01*
X161685270Y-113071613D01*
X161281772Y-113499863D01*
X161090381Y-113961939D01*
X161220531Y-114196000D01*
X162456000Y-114196000D01*
X162456000Y-114176000D01*
X162664000Y-114176000D01*
X162664000Y-114196000D01*
X163899469Y-114196000D01*
X164029619Y-113961939D01*
X163838228Y-113499863D01*
X163434730Y-113071613D01*
X163137159Y-112937851D01*
X163497247Y-112697247D01*
X163784573Y-112267235D01*
X163885468Y-111760000D01*
X163784573Y-111252765D01*
X163497247Y-110822753D01*
X163067235Y-110535427D01*
X162838858Y-110490000D01*
X163067235Y-110444573D01*
X163497247Y-110157247D01*
X163784573Y-109727235D01*
X163885468Y-109220000D01*
X163784573Y-108712765D01*
X163497247Y-108282753D01*
X163067235Y-107995427D01*
X162838858Y-107950000D01*
X163067235Y-107904573D01*
X163497247Y-107617247D01*
X163784573Y-107187235D01*
X163885468Y-106680000D01*
X163784573Y-106172765D01*
X163497247Y-105742753D01*
X163067235Y-105455427D01*
X162838858Y-105410000D01*
X163067235Y-105364573D01*
X163497247Y-105077247D01*
X163784573Y-104647235D01*
X163885468Y-104140000D01*
X163784573Y-103632765D01*
X163497247Y-103202753D01*
X163067235Y-102915427D01*
X162838858Y-102870000D01*
X163067235Y-102824573D01*
X163497247Y-102537247D01*
X163784573Y-102107235D01*
X163885468Y-101600000D01*
X163784573Y-101092765D01*
X163497247Y-100662753D01*
X163067235Y-100375427D01*
X162838858Y-100330000D01*
X163067235Y-100284573D01*
X163497247Y-99997247D01*
X163784573Y-99567235D01*
X163885468Y-99060000D01*
X163784573Y-98552765D01*
X163497247Y-98122753D01*
X163067235Y-97835427D01*
X162838858Y-97790000D01*
X163067235Y-97744573D01*
X163497247Y-97457247D01*
X163784573Y-97027235D01*
X163885468Y-96520000D01*
X163784573Y-96012765D01*
X163497247Y-95582753D01*
X163067235Y-95295427D01*
X162838858Y-95250000D01*
X163067235Y-95204573D01*
X163497247Y-94917247D01*
X163784573Y-94487235D01*
X163885468Y-93980000D01*
X163784573Y-93472765D01*
X163497247Y-93042753D01*
X163067235Y-92755427D01*
X162838858Y-92710000D01*
X163067235Y-92664573D01*
X163497247Y-92377247D01*
X163784573Y-91947235D01*
X163885468Y-91440000D01*
X163784573Y-90932765D01*
X163497247Y-90502753D01*
X163067235Y-90215427D01*
X162838858Y-90170000D01*
X163067235Y-90124573D01*
X163497247Y-89837247D01*
X163784573Y-89407235D01*
X163885468Y-88900000D01*
X163784573Y-88392765D01*
X163497247Y-87962753D01*
X163067235Y-87675427D01*
X162838858Y-87630000D01*
X163067235Y-87584573D01*
X163497247Y-87297247D01*
X163784573Y-86867235D01*
X163885468Y-86360000D01*
X163784573Y-85852765D01*
X163497247Y-85422753D01*
X163067235Y-85135427D01*
X162838858Y-85090000D01*
X163067235Y-85044573D01*
X163497247Y-84757247D01*
X163784573Y-84327235D01*
X163885468Y-83820000D01*
X163784573Y-83312765D01*
X163497247Y-82882753D01*
X163067235Y-82595427D01*
X162838858Y-82550000D01*
X163067235Y-82504573D01*
X163497247Y-82217247D01*
X163784573Y-81787235D01*
X163885468Y-81280000D01*
X163784573Y-80772765D01*
X163497247Y-80342753D01*
X163067235Y-80055427D01*
X162838858Y-80010000D01*
X163067235Y-79964573D01*
X163497247Y-79677247D01*
X163784573Y-79247235D01*
X163885468Y-78740000D01*
X163784573Y-78232765D01*
X163497247Y-77802753D01*
X163067235Y-77515427D01*
X162838858Y-77470000D01*
X163067235Y-77424573D01*
X163497247Y-77137247D01*
X163784573Y-76707235D01*
X163885468Y-76200000D01*
X163784573Y-75692765D01*
X163497247Y-75262753D01*
X163067235Y-74975427D01*
X162838858Y-74930000D01*
X163067235Y-74884573D01*
X163497247Y-74597247D01*
X163784573Y-74167235D01*
X163885468Y-73660000D01*
X163784573Y-73152765D01*
X163497247Y-72722753D01*
X163067235Y-72435427D01*
X162838858Y-72390000D01*
X163067235Y-72344573D01*
X163497247Y-72057247D01*
X163784573Y-71627235D01*
X163885468Y-71120000D01*
X163784573Y-70612765D01*
X163497247Y-70182753D01*
X163067235Y-69895427D01*
X163033999Y-69888816D01*
X163410000Y-69888816D01*
X163585581Y-69853891D01*
X163734432Y-69754432D01*
X163833891Y-69605581D01*
X163868816Y-69430000D01*
X163868816Y-67730000D01*
X163833891Y-67554419D01*
X163734432Y-67405568D01*
X163591405Y-67310000D01*
X174648247Y-67310000D01*
X174660000Y-67369086D01*
X174660001Y-71060909D01*
X174648247Y-71120000D01*
X174660001Y-71179091D01*
X174694814Y-71354108D01*
X174827426Y-71552575D01*
X174877520Y-71586047D01*
X176553661Y-73262189D01*
X176474532Y-73660000D01*
X176575427Y-74167235D01*
X176862753Y-74597247D01*
X177292765Y-74884573D01*
X177521142Y-74930000D01*
X177292765Y-74975427D01*
X176862753Y-75262753D01*
X176575427Y-75692765D01*
X176474532Y-76200000D01*
X176575427Y-76707235D01*
X176862753Y-77137247D01*
X177292765Y-77424573D01*
X177521142Y-77470000D01*
X177292765Y-77515427D01*
X176862753Y-77802753D01*
X176575427Y-78232765D01*
X176474532Y-78740000D01*
X176575427Y-79247235D01*
X176862753Y-79677247D01*
X177292765Y-79964573D01*
X177521142Y-80010000D01*
X177292765Y-80055427D01*
X176862753Y-80342753D01*
X176575427Y-80772765D01*
X176474532Y-81280000D01*
X176575427Y-81787235D01*
X176862753Y-82217247D01*
X177292765Y-82504573D01*
X177521142Y-82550000D01*
X177292765Y-82595427D01*
X176862753Y-82882753D01*
X176575427Y-83312765D01*
X176474532Y-83820000D01*
X176575427Y-84327235D01*
X176862753Y-84757247D01*
X177292765Y-85044573D01*
X177521142Y-85090000D01*
X177292765Y-85135427D01*
X176862753Y-85422753D01*
X176575427Y-85852765D01*
X176474532Y-86360000D01*
X176575427Y-86867235D01*
X176862753Y-87297247D01*
X177292765Y-87584573D01*
X177521142Y-87630000D01*
X177292765Y-87675427D01*
X176862753Y-87962753D01*
X176575427Y-88392765D01*
X176474532Y-88900000D01*
X176575427Y-89407235D01*
X176862753Y-89837247D01*
X177292765Y-90124573D01*
X177521142Y-90170000D01*
X177292765Y-90215427D01*
X176862753Y-90502753D01*
X176575427Y-90932765D01*
X176474532Y-91440000D01*
X176575427Y-91947235D01*
X176862753Y-92377247D01*
X177292765Y-92664573D01*
X177521142Y-92710000D01*
X177292765Y-92755427D01*
X176862753Y-93042753D01*
X176575427Y-93472765D01*
X176474532Y-93980000D01*
X176575427Y-94487235D01*
X176862753Y-94917247D01*
X177292765Y-95204573D01*
X177521142Y-95250000D01*
X177292765Y-95295427D01*
X176862753Y-95582753D01*
X176575427Y-96012765D01*
X176474532Y-96520000D01*
X176575427Y-97027235D01*
X176862753Y-97457247D01*
X177292765Y-97744573D01*
X177521142Y-97790000D01*
X177292765Y-97835427D01*
X176862753Y-98122753D01*
X176575427Y-98552765D01*
X176474532Y-99060000D01*
X176575427Y-99567235D01*
X176862753Y-99997247D01*
X177292765Y-100284573D01*
X177521142Y-100330000D01*
X177292765Y-100375427D01*
X176862753Y-100662753D01*
X176575427Y-101092765D01*
X176474532Y-101600000D01*
X176575427Y-102107235D01*
X176862753Y-102537247D01*
X177292765Y-102824573D01*
X177521142Y-102870000D01*
X177292765Y-102915427D01*
X176862753Y-103202753D01*
X176575427Y-103632765D01*
X176474532Y-104140000D01*
X176575427Y-104647235D01*
X176862753Y-105077247D01*
X177292765Y-105364573D01*
X177521142Y-105410000D01*
X177292765Y-105455427D01*
X176862753Y-105742753D01*
X176575427Y-106172765D01*
X176474532Y-106680000D01*
X176575427Y-107187235D01*
X176862753Y-107617247D01*
X177292765Y-107904573D01*
X177521142Y-107950000D01*
X177292765Y-107995427D01*
X176862753Y-108282753D01*
X176575427Y-108712765D01*
X176474532Y-109220000D01*
X176575427Y-109727235D01*
X176862753Y-110157247D01*
X177292765Y-110444573D01*
X177521142Y-110490000D01*
X177292765Y-110535427D01*
X176862753Y-110822753D01*
X176575427Y-111252765D01*
X176474532Y-111760000D01*
X176575427Y-112267235D01*
X176862753Y-112697247D01*
X177292765Y-112984573D01*
X177521142Y-113030000D01*
X177292765Y-113075427D01*
X176862753Y-113362753D01*
X176575427Y-113792765D01*
X176474532Y-114300000D01*
X176575427Y-114807235D01*
X176862753Y-115237247D01*
X177292765Y-115524573D01*
X177326001Y-115531184D01*
X176950000Y-115531184D01*
X176774419Y-115566109D01*
X176625568Y-115665568D01*
X176526109Y-115814419D01*
X176491184Y-115990000D01*
X176491184Y-117690000D01*
X176526109Y-117865581D01*
X176625568Y-118014432D01*
X176774419Y-118113891D01*
X176950000Y-118148816D01*
X178650000Y-118148816D01*
X178825581Y-118113891D01*
X178974432Y-118014432D01*
X179073891Y-117865581D01*
X179108816Y-117690000D01*
X179108816Y-115990000D01*
X179073891Y-115814419D01*
X178974432Y-115665568D01*
X178825581Y-115566109D01*
X178650000Y-115531184D01*
X178273999Y-115531184D01*
X178307235Y-115524573D01*
X178737247Y-115237247D01*
X179024573Y-114807235D01*
X179125468Y-114300000D01*
X179024573Y-113792765D01*
X178737247Y-113362753D01*
X178307235Y-113075427D01*
X178078858Y-113030000D01*
X178307235Y-112984573D01*
X178737247Y-112697247D01*
X179024573Y-112267235D01*
X179125468Y-111760000D01*
X179024573Y-111252765D01*
X178737247Y-110822753D01*
X178307235Y-110535427D01*
X178078858Y-110490000D01*
X178307235Y-110444573D01*
X178737247Y-110157247D01*
X179024573Y-109727235D01*
X179125468Y-109220000D01*
X179024573Y-108712765D01*
X178737247Y-108282753D01*
X178307235Y-107995427D01*
X178078858Y-107950000D01*
X178307235Y-107904573D01*
X178737247Y-107617247D01*
X179024573Y-107187235D01*
X179125468Y-106680000D01*
X179024573Y-106172765D01*
X178737247Y-105742753D01*
X178307235Y-105455427D01*
X178078858Y-105410000D01*
X178307235Y-105364573D01*
X178737247Y-105077247D01*
X179024573Y-104647235D01*
X179125468Y-104140000D01*
X179024573Y-103632765D01*
X178737247Y-103202753D01*
X178307235Y-102915427D01*
X178078858Y-102870000D01*
X178307235Y-102824573D01*
X178737247Y-102537247D01*
X179024573Y-102107235D01*
X179125468Y-101600000D01*
X179024573Y-101092765D01*
X178737247Y-100662753D01*
X178307235Y-100375427D01*
X178078858Y-100330000D01*
X178307235Y-100284573D01*
X178737247Y-99997247D01*
X179024573Y-99567235D01*
X179125468Y-99060000D01*
X179024573Y-98552765D01*
X178737247Y-98122753D01*
X178307235Y-97835427D01*
X178078858Y-97790000D01*
X178307235Y-97744573D01*
X178737247Y-97457247D01*
X179024573Y-97027235D01*
X179125468Y-96520000D01*
X179024573Y-96012765D01*
X178737247Y-95582753D01*
X178307235Y-95295427D01*
X178078858Y-95250000D01*
X178307235Y-95204573D01*
X178737247Y-94917247D01*
X179024573Y-94487235D01*
X179125468Y-93980000D01*
X179024573Y-93472765D01*
X178737247Y-93042753D01*
X178307235Y-92755427D01*
X178078858Y-92710000D01*
X178307235Y-92664573D01*
X178737247Y-92377247D01*
X179024573Y-91947235D01*
X179125468Y-91440000D01*
X179024573Y-90932765D01*
X178737247Y-90502753D01*
X178307235Y-90215427D01*
X178078858Y-90170000D01*
X178307235Y-90124573D01*
X178737247Y-89837247D01*
X179024573Y-89407235D01*
X179125468Y-88900000D01*
X179024573Y-88392765D01*
X178737247Y-87962753D01*
X178307235Y-87675427D01*
X178078858Y-87630000D01*
X178307235Y-87584573D01*
X178737247Y-87297247D01*
X179024573Y-86867235D01*
X179125468Y-86360000D01*
X179024573Y-85852765D01*
X178737247Y-85422753D01*
X178307235Y-85135427D01*
X178078858Y-85090000D01*
X178307235Y-85044573D01*
X178737247Y-84757247D01*
X179024573Y-84327235D01*
X179125468Y-83820000D01*
X179024573Y-83312765D01*
X178737247Y-82882753D01*
X178307235Y-82595427D01*
X178078858Y-82550000D01*
X178307235Y-82504573D01*
X178737247Y-82217247D01*
X179024573Y-81787235D01*
X179125468Y-81280000D01*
X179024573Y-80772765D01*
X178737247Y-80342753D01*
X178307235Y-80055427D01*
X178078858Y-80010000D01*
X178307235Y-79964573D01*
X178737247Y-79677247D01*
X179024573Y-79247235D01*
X179125468Y-78740000D01*
X179024573Y-78232765D01*
X178737247Y-77802753D01*
X178307235Y-77515427D01*
X178078858Y-77470000D01*
X178307235Y-77424573D01*
X178737247Y-77137247D01*
X179024573Y-76707235D01*
X179125468Y-76200000D01*
X179024573Y-75692765D01*
X178737247Y-75262753D01*
X178307235Y-74975427D01*
X178078858Y-74930000D01*
X178307235Y-74884573D01*
X178737247Y-74597247D01*
X179024573Y-74167235D01*
X179125468Y-73660000D01*
X179024573Y-73152765D01*
X178737247Y-72722753D01*
X178377159Y-72482149D01*
X178674730Y-72348387D01*
X179078228Y-71920137D01*
X179269619Y-71458061D01*
X190300381Y-71458061D01*
X190491772Y-71920137D01*
X190895270Y-72348387D01*
X191431938Y-72589626D01*
X191666000Y-72459917D01*
X191666000Y-71224000D01*
X191874000Y-71224000D01*
X191874000Y-72459917D01*
X192108062Y-72589626D01*
X192644730Y-72348387D01*
X193048228Y-71920137D01*
X193239619Y-71458061D01*
X193109469Y-71224000D01*
X191874000Y-71224000D01*
X191666000Y-71224000D01*
X190430531Y-71224000D01*
X190300381Y-71458061D01*
X179269619Y-71458061D01*
X179139469Y-71224000D01*
X177904000Y-71224000D01*
X177904000Y-71244000D01*
X177696000Y-71244000D01*
X177696000Y-71224000D01*
X176460531Y-71224000D01*
X176371907Y-71383380D01*
X175860000Y-70871473D01*
X175860000Y-70781939D01*
X176330381Y-70781939D01*
X176460531Y-71016000D01*
X177696000Y-71016000D01*
X177696000Y-70996000D01*
X177904000Y-70996000D01*
X177904000Y-71016000D01*
X179139469Y-71016000D01*
X179269619Y-70781939D01*
X179078228Y-70319863D01*
X178674730Y-69891613D01*
X178377159Y-69757851D01*
X178737247Y-69517247D01*
X179024573Y-69087235D01*
X179125468Y-68580000D01*
X179024573Y-68072765D01*
X178737247Y-67642753D01*
X178307235Y-67355427D01*
X177928037Y-67280000D01*
X177671963Y-67280000D01*
X177292765Y-67355427D01*
X176862753Y-67642753D01*
X176575427Y-68072765D01*
X176474532Y-68580000D01*
X176575427Y-69087235D01*
X176862753Y-69517247D01*
X177222841Y-69757851D01*
X176925270Y-69891613D01*
X176521772Y-70319863D01*
X176330381Y-70781939D01*
X175860000Y-70781939D01*
X175860000Y-67558527D01*
X176778528Y-66640000D01*
X187831473Y-66640000D01*
X190153953Y-68962481D01*
X190187425Y-69012575D01*
X190385892Y-69145187D01*
X190461184Y-69160163D01*
X190461184Y-69430000D01*
X190496109Y-69605581D01*
X190595568Y-69754432D01*
X190744419Y-69853891D01*
X190907170Y-69886264D01*
X190895270Y-69891613D01*
X190491772Y-70319863D01*
X190300381Y-70781939D01*
X190430531Y-71016000D01*
X191666000Y-71016000D01*
X191666000Y-70996000D01*
X191874000Y-70996000D01*
X191874000Y-71016000D01*
X193109469Y-71016000D01*
X193239619Y-70781939D01*
X193048228Y-70319863D01*
X192644730Y-69891613D01*
X192632830Y-69886264D01*
X192795581Y-69853891D01*
X192944432Y-69754432D01*
X193043891Y-69605581D01*
X193078816Y-69430000D01*
X193078816Y-67730000D01*
X193043891Y-67554419D01*
X192944432Y-67405568D01*
X192795581Y-67306109D01*
X192620000Y-67271184D01*
X190920000Y-67271184D01*
X190744419Y-67306109D01*
X190595568Y-67405568D01*
X190496109Y-67554419D01*
X190487289Y-67598761D01*
X188546049Y-65657522D01*
X188512575Y-65607425D01*
X188314108Y-65474813D01*
X188139091Y-65440000D01*
X188139086Y-65440000D01*
X188080000Y-65428247D01*
X188020914Y-65440000D01*
X176589086Y-65440000D01*
X176529999Y-65428247D01*
X176470913Y-65440000D01*
X176470909Y-65440000D01*
X176295892Y-65474813D01*
X176097425Y-65607425D01*
X176063953Y-65657519D01*
X174877521Y-66843951D01*
X174827425Y-66877425D01*
X174694813Y-67075893D01*
X174660000Y-67250910D01*
X174660000Y-67250914D01*
X174648247Y-67310000D01*
X163591405Y-67310000D01*
X163585581Y-67306109D01*
X163410000Y-67271184D01*
X161710000Y-67271184D01*
X161534419Y-67306109D01*
X161385568Y-67405568D01*
X161286109Y-67554419D01*
X161251184Y-67730000D01*
X161251184Y-69430000D01*
X161286109Y-69605581D01*
X161385568Y-69754432D01*
X161534419Y-69853891D01*
X161710000Y-69888816D01*
X162086001Y-69888816D01*
X162052765Y-69895427D01*
X161622753Y-70182753D01*
X161335427Y-70612765D01*
X161234532Y-71120000D01*
X161335427Y-71627235D01*
X161622753Y-72057247D01*
X162052765Y-72344573D01*
X162281142Y-72390000D01*
X162052765Y-72435427D01*
X161622753Y-72722753D01*
X161335427Y-73152765D01*
X161234532Y-73660000D01*
X161335427Y-74167235D01*
X161622753Y-74597247D01*
X162052765Y-74884573D01*
X162281142Y-74930000D01*
X162052765Y-74975427D01*
X161622753Y-75262753D01*
X161335427Y-75692765D01*
X161234532Y-76200000D01*
X161335427Y-76707235D01*
X161622753Y-77137247D01*
X162052765Y-77424573D01*
X162281142Y-77470000D01*
X162052765Y-77515427D01*
X161622753Y-77802753D01*
X161335427Y-78232765D01*
X161234532Y-78740000D01*
X161335427Y-79247235D01*
X161622753Y-79677247D01*
X162052765Y-79964573D01*
X162281142Y-80010000D01*
X162052765Y-80055427D01*
X161622753Y-80342753D01*
X161335427Y-80772765D01*
X161234532Y-81280000D01*
X161335427Y-81787235D01*
X161622753Y-82217247D01*
X162052765Y-82504573D01*
X162281142Y-82550000D01*
X162052765Y-82595427D01*
X161622753Y-82882753D01*
X161335427Y-83312765D01*
X161234532Y-83820000D01*
X161335427Y-84327235D01*
X161622753Y-84757247D01*
X162052765Y-85044573D01*
X162281142Y-85090000D01*
X162052765Y-85135427D01*
X161622753Y-85422753D01*
X161335427Y-85852765D01*
X161234532Y-86360000D01*
X161335427Y-86867235D01*
X161622753Y-87297247D01*
X162052765Y-87584573D01*
X162281142Y-87630000D01*
X162052765Y-87675427D01*
X161622753Y-87962753D01*
X161335427Y-88392765D01*
X161234532Y-88900000D01*
X161335427Y-89407235D01*
X161622753Y-89837247D01*
X162052765Y-90124573D01*
X162281142Y-90170000D01*
X162052765Y-90215427D01*
X161622753Y-90502753D01*
X161335427Y-90932765D01*
X161234532Y-91440000D01*
X161335427Y-91947235D01*
X161622753Y-92377247D01*
X162052765Y-92664573D01*
X162281142Y-92710000D01*
X162052765Y-92755427D01*
X161622753Y-93042753D01*
X161335427Y-93472765D01*
X161234532Y-93980000D01*
X161335427Y-94487235D01*
X161622753Y-94917247D01*
X162052765Y-95204573D01*
X162281142Y-95250000D01*
X162052765Y-95295427D01*
X161622753Y-95582753D01*
X161335427Y-96012765D01*
X161234532Y-96520000D01*
X161335427Y-97027235D01*
X161622753Y-97457247D01*
X162052765Y-97744573D01*
X162281142Y-97790000D01*
X162052765Y-97835427D01*
X161622753Y-98122753D01*
X161335427Y-98552765D01*
X161234532Y-99060000D01*
X161335427Y-99567235D01*
X161622753Y-99997247D01*
X162052765Y-100284573D01*
X162281142Y-100330000D01*
X162052765Y-100375427D01*
X161622753Y-100662753D01*
X161335427Y-101092765D01*
X161234532Y-101600000D01*
X161325412Y-102056884D01*
X156810000Y-97541473D01*
X156810000Y-80189088D01*
X156821753Y-80130000D01*
X156810000Y-80070910D01*
X156810000Y-80070909D01*
X156775187Y-79895892D01*
X156775187Y-79895891D01*
X156676047Y-79747519D01*
X156642575Y-79697425D01*
X156592482Y-79663954D01*
X150206049Y-73277522D01*
X150172575Y-73227425D01*
X149974108Y-73094813D01*
X149898816Y-73079837D01*
X149898816Y-72810000D01*
X149863891Y-72634419D01*
X149764432Y-72485568D01*
X149615581Y-72386109D01*
X149440000Y-72351184D01*
X147740000Y-72351184D01*
X147564419Y-72386109D01*
X147415568Y-72485568D01*
X147316109Y-72634419D01*
X147281184Y-72810000D01*
X147281184Y-74510000D01*
X147316109Y-74685581D01*
X147415568Y-74834432D01*
X147564419Y-74933891D01*
X147740000Y-74968816D01*
X148116001Y-74968816D01*
X148082765Y-74975427D01*
X147652753Y-75262753D01*
X147365427Y-75692765D01*
X147264532Y-76200000D01*
X147365427Y-76707235D01*
X147652753Y-77137247D01*
X148012841Y-77377851D01*
X147715270Y-77511613D01*
X147311772Y-77939863D01*
X147120381Y-78401939D01*
X146600000Y-78401939D01*
X146600000Y-58238500D01*
X163932000Y-58238500D01*
X163932000Y-60640884D01*
X164032174Y-60882727D01*
X164217273Y-61067825D01*
X164459115Y-61168000D01*
X164672786Y-61168000D01*
X164647050Y-61240156D01*
X164669817Y-61694299D01*
X164799809Y-62008130D01*
X165022554Y-62040368D01*
X165133685Y-61929237D01*
X165197273Y-61992825D01*
X165315345Y-62041733D01*
X165169632Y-62187446D01*
X165201870Y-62410191D01*
X165630156Y-62562950D01*
X166084299Y-62540183D01*
X166398130Y-62410191D01*
X166430368Y-62187446D01*
X166284655Y-62041733D01*
X166402727Y-61992825D01*
X166466315Y-61929237D01*
X166577446Y-62040368D01*
X166800191Y-62008130D01*
X166952950Y-61579844D01*
X166932304Y-61168000D01*
X167140885Y-61168000D01*
X167382727Y-61067825D01*
X167567826Y-60882727D01*
X167668000Y-60640884D01*
X167668000Y-58238500D01*
X172692000Y-58238500D01*
X172692000Y-60640884D01*
X172792174Y-60882727D01*
X172977273Y-61067825D01*
X173219115Y-61168000D01*
X173432786Y-61168000D01*
X173407050Y-61240156D01*
X173429817Y-61694299D01*
X173559809Y-62008130D01*
X173782554Y-62040368D01*
X173893685Y-61929237D01*
X173957273Y-61992825D01*
X174075345Y-62041733D01*
X173929632Y-62187446D01*
X173961870Y-62410191D01*
X174390156Y-62562950D01*
X174844299Y-62540183D01*
X175158130Y-62410191D01*
X175190368Y-62187446D01*
X175044655Y-62041733D01*
X175162727Y-61992825D01*
X175226315Y-61929237D01*
X175337446Y-62040368D01*
X175560191Y-62008130D01*
X175712950Y-61579844D01*
X175692304Y-61168000D01*
X175900885Y-61168000D01*
X176142727Y-61067825D01*
X176327826Y-60882727D01*
X176428000Y-60640884D01*
X176428000Y-58238500D01*
X176263500Y-58074000D01*
X174664000Y-58074000D01*
X174664000Y-58094000D01*
X174456000Y-58094000D01*
X174456000Y-58074000D01*
X172856500Y-58074000D01*
X172692000Y-58238500D01*
X167668000Y-58238500D01*
X167503500Y-58074000D01*
X165904000Y-58074000D01*
X165904000Y-58094000D01*
X165696000Y-58094000D01*
X165696000Y-58074000D01*
X164096500Y-58074000D01*
X163932000Y-58238500D01*
X146600000Y-58238500D01*
X146600000Y-55160000D01*
X163989623Y-55160000D01*
X163932000Y-55299116D01*
X163932000Y-55299116D01*
G37*
X163932000Y-55299116D02*
X163932000Y-57701500D01*
X164096500Y-57866000D01*
X165696000Y-57866000D01*
X165696000Y-57846000D01*
X165904000Y-57846000D01*
X165904000Y-57866000D01*
X167503500Y-57866000D01*
X167668000Y-57701500D01*
X167668000Y-55299116D01*
X167610377Y-55160000D01*
X172749623Y-55160000D01*
X172692000Y-55299116D01*
X172692000Y-57701500D01*
X172856500Y-57866000D01*
X174456000Y-57866000D01*
X174456000Y-57846000D01*
X174664000Y-57846000D01*
X174664000Y-57866000D01*
X176263500Y-57866000D01*
X176428000Y-57701500D01*
X176428000Y-55299116D01*
X176370377Y-55160000D01*
X193760000Y-55160000D01*
X193760001Y-118269624D01*
X193620884Y-118212000D01*
X191218500Y-118212000D01*
X191054000Y-118376500D01*
X191054000Y-119976000D01*
X191074000Y-119976000D01*
X191074000Y-120184000D01*
X191054000Y-120184000D01*
X191054000Y-121783500D01*
X191218500Y-121948000D01*
X193620884Y-121948000D01*
X193760001Y-121890376D01*
X193760001Y-127029624D01*
X193620884Y-126972000D01*
X191218500Y-126972000D01*
X191054000Y-127136500D01*
X191054000Y-128736000D01*
X191074000Y-128736000D01*
X191074000Y-128944000D01*
X191054000Y-128944000D01*
X191054000Y-128964000D01*
X190846000Y-128964000D01*
X190846000Y-128944000D01*
X190826000Y-128944000D01*
X190826000Y-128736000D01*
X190846000Y-128736000D01*
X190846000Y-127136500D01*
X190681500Y-126972000D01*
X188279116Y-126972000D01*
X188037273Y-127072174D01*
X187852175Y-127257273D01*
X187752000Y-127499115D01*
X187752000Y-127712786D01*
X187679844Y-127687050D01*
X187225701Y-127709817D01*
X186911870Y-127839809D01*
X186879632Y-128062554D01*
X186990763Y-128173685D01*
X186927175Y-128237273D01*
X186878267Y-128355345D01*
X186732554Y-128209632D01*
X186509809Y-128241870D01*
X186357050Y-128670156D01*
X186379817Y-129124299D01*
X186509809Y-129438130D01*
X186732554Y-129470368D01*
X186878267Y-129324655D01*
X186927175Y-129442727D01*
X186990763Y-129506315D01*
X186879632Y-129617446D01*
X186911870Y-129840191D01*
X187340156Y-129992950D01*
X187752000Y-129972304D01*
X187752000Y-130180885D01*
X187784771Y-130260000D01*
X152575229Y-130260000D01*
X152608000Y-130180885D01*
X152608000Y-129967214D01*
X152680156Y-129992950D01*
X153134299Y-129970183D01*
X153448130Y-129840191D01*
X153480368Y-129617446D01*
X153369237Y-129506315D01*
X153432825Y-129442727D01*
X153481733Y-129324655D01*
X153627446Y-129470368D01*
X153850191Y-129438130D01*
X154002950Y-129009844D01*
X153980183Y-128555701D01*
X153850191Y-128241870D01*
X153627446Y-128209632D01*
X153481733Y-128355345D01*
X153432825Y-128237273D01*
X153369237Y-128173685D01*
X153480368Y-128062554D01*
X153448130Y-127839809D01*
X153019844Y-127687050D01*
X152608000Y-127707696D01*
X152608000Y-127499115D01*
X152507825Y-127257273D01*
X152322727Y-127072174D01*
X152080884Y-126972000D01*
X149678500Y-126972000D01*
X149514000Y-127136500D01*
X149514000Y-128736000D01*
X149534000Y-128736000D01*
X149534000Y-128944000D01*
X149514000Y-128944000D01*
X149514000Y-128964000D01*
X149306000Y-128964000D01*
X149306000Y-128944000D01*
X149286000Y-128944000D01*
X149286000Y-128736000D01*
X149306000Y-128736000D01*
X149306000Y-127136500D01*
X149141500Y-126972000D01*
X146739116Y-126972000D01*
X146600000Y-127029623D01*
X146600000Y-121890377D01*
X146739116Y-121948000D01*
X149141500Y-121948000D01*
X149306000Y-121783500D01*
X149306000Y-120184000D01*
X149286000Y-120184000D01*
X149286000Y-119976000D01*
X149306000Y-119976000D01*
X149306000Y-118376500D01*
X149514000Y-118376500D01*
X149514000Y-119976000D01*
X149534000Y-119976000D01*
X149534000Y-120184000D01*
X149514000Y-120184000D01*
X149514000Y-121783500D01*
X149678500Y-121948000D01*
X152080884Y-121948000D01*
X152322727Y-121847826D01*
X152507825Y-121662727D01*
X152608000Y-121420885D01*
X152608000Y-121207214D01*
X152680156Y-121232950D01*
X153134299Y-121210183D01*
X153448130Y-121080191D01*
X153480368Y-120857446D01*
X153369237Y-120746315D01*
X153432825Y-120682727D01*
X153481733Y-120564655D01*
X153627446Y-120710368D01*
X153850191Y-120678130D01*
X154002950Y-120249844D01*
X153985921Y-119910156D01*
X186357050Y-119910156D01*
X186379817Y-120364299D01*
X186509809Y-120678130D01*
X186732554Y-120710368D01*
X186878267Y-120564655D01*
X186927175Y-120682727D01*
X186990763Y-120746315D01*
X186879632Y-120857446D01*
X186911870Y-121080191D01*
X187340156Y-121232950D01*
X187752000Y-121212304D01*
X187752000Y-121420885D01*
X187852175Y-121662727D01*
X188037273Y-121847826D01*
X188279116Y-121948000D01*
X190681500Y-121948000D01*
X190846000Y-121783500D01*
X190846000Y-120184000D01*
X190826000Y-120184000D01*
X190826000Y-119976000D01*
X190846000Y-119976000D01*
X190846000Y-118376500D01*
X190681500Y-118212000D01*
X188279116Y-118212000D01*
X188037273Y-118312174D01*
X187852175Y-118497273D01*
X187752000Y-118739115D01*
X187752000Y-118952786D01*
X187679844Y-118927050D01*
X187225701Y-118949817D01*
X186911870Y-119079809D01*
X186879632Y-119302554D01*
X186990763Y-119413685D01*
X186927175Y-119477273D01*
X186878267Y-119595345D01*
X186732554Y-119449632D01*
X186509809Y-119481870D01*
X186357050Y-119910156D01*
X153985921Y-119910156D01*
X153980183Y-119795701D01*
X153850191Y-119481870D01*
X153627446Y-119449632D01*
X153481733Y-119595345D01*
X153432825Y-119477273D01*
X153369237Y-119413685D01*
X153480368Y-119302554D01*
X153448130Y-119079809D01*
X153019844Y-118927050D01*
X152608000Y-118947696D01*
X152608000Y-118739115D01*
X152507825Y-118497273D01*
X152322727Y-118312174D01*
X152080884Y-118212000D01*
X149678500Y-118212000D01*
X149514000Y-118376500D01*
X149306000Y-118376500D01*
X149141500Y-118212000D01*
X146739116Y-118212000D01*
X146600000Y-118269623D01*
X146600000Y-117178061D01*
X161090381Y-117178061D01*
X161281772Y-117640137D01*
X161685270Y-118068387D01*
X162221938Y-118309626D01*
X162456000Y-118179917D01*
X162456000Y-116944000D01*
X162664000Y-116944000D01*
X162664000Y-118179917D01*
X162898062Y-118309626D01*
X163434730Y-118068387D01*
X163838228Y-117640137D01*
X164029619Y-117178061D01*
X163899469Y-116944000D01*
X162664000Y-116944000D01*
X162456000Y-116944000D01*
X161220531Y-116944000D01*
X161090381Y-117178061D01*
X146600000Y-117178061D01*
X146600000Y-114638061D01*
X161090381Y-114638061D01*
X161281772Y-115100137D01*
X161685270Y-115528387D01*
X161777844Y-115570000D01*
X161685270Y-115611613D01*
X161281772Y-116039863D01*
X161090381Y-116501939D01*
X161220531Y-116736000D01*
X162456000Y-116736000D01*
X162456000Y-114404000D01*
X162664000Y-114404000D01*
X162664000Y-116736000D01*
X163899469Y-116736000D01*
X164029619Y-116501939D01*
X163838228Y-116039863D01*
X163434730Y-115611613D01*
X163342156Y-115570000D01*
X163434730Y-115528387D01*
X163838228Y-115100137D01*
X164029619Y-114638061D01*
X163899469Y-114404000D01*
X162664000Y-114404000D01*
X162456000Y-114404000D01*
X161220531Y-114404000D01*
X161090381Y-114638061D01*
X146600000Y-114638061D01*
X146600000Y-79078061D01*
X147120381Y-79078061D01*
X147311772Y-79540137D01*
X147715270Y-79968387D01*
X148251938Y-80209626D01*
X148486000Y-80079917D01*
X148486000Y-78844000D01*
X148694000Y-78844000D01*
X148694000Y-80079917D01*
X148928062Y-80209626D01*
X149464730Y-79968387D01*
X149868228Y-79540137D01*
X150059619Y-79078061D01*
X149929469Y-78844000D01*
X148694000Y-78844000D01*
X148486000Y-78844000D01*
X147250531Y-78844000D01*
X147120381Y-79078061D01*
X146600000Y-79078061D01*
X146600000Y-78401939D01*
X147120381Y-78401939D01*
X147250531Y-78636000D01*
X148486000Y-78636000D01*
X148486000Y-78616000D01*
X148694000Y-78616000D01*
X148694000Y-78636000D01*
X149929469Y-78636000D01*
X150059619Y-78401939D01*
X149868228Y-77939863D01*
X149464730Y-77511613D01*
X149167159Y-77377851D01*
X149527247Y-77137247D01*
X149696066Y-76884593D01*
X153070000Y-80258528D01*
X153070001Y-97730909D01*
X153058247Y-97790000D01*
X153104814Y-98024108D01*
X153170727Y-98122753D01*
X153237426Y-98222575D01*
X153287520Y-98256047D01*
X161313661Y-106282190D01*
X161234532Y-106680000D01*
X161335427Y-107187235D01*
X161622753Y-107617247D01*
X162052765Y-107904573D01*
X162281142Y-107950000D01*
X162052765Y-107995427D01*
X161622753Y-108282753D01*
X161335427Y-108712765D01*
X161234532Y-109220000D01*
X161335427Y-109727235D01*
X161622753Y-110157247D01*
X162052765Y-110444573D01*
X162281142Y-110490000D01*
X162052765Y-110535427D01*
X161622753Y-110822753D01*
X161335427Y-111252765D01*
X161234532Y-111760000D01*
X161335427Y-112267235D01*
X161622753Y-112697247D01*
X161982841Y-112937851D01*
X161685270Y-113071613D01*
X161281772Y-113499863D01*
X161090381Y-113961939D01*
X161220531Y-114196000D01*
X162456000Y-114196000D01*
X162456000Y-114176000D01*
X162664000Y-114176000D01*
X162664000Y-114196000D01*
X163899469Y-114196000D01*
X164029619Y-113961939D01*
X163838228Y-113499863D01*
X163434730Y-113071613D01*
X163137159Y-112937851D01*
X163497247Y-112697247D01*
X163784573Y-112267235D01*
X163885468Y-111760000D01*
X163784573Y-111252765D01*
X163497247Y-110822753D01*
X163067235Y-110535427D01*
X162838858Y-110490000D01*
X163067235Y-110444573D01*
X163497247Y-110157247D01*
X163784573Y-109727235D01*
X163885468Y-109220000D01*
X163784573Y-108712765D01*
X163497247Y-108282753D01*
X163067235Y-107995427D01*
X162838858Y-107950000D01*
X163067235Y-107904573D01*
X163497247Y-107617247D01*
X163784573Y-107187235D01*
X163885468Y-106680000D01*
X163784573Y-106172765D01*
X163497247Y-105742753D01*
X163067235Y-105455427D01*
X162838858Y-105410000D01*
X163067235Y-105364573D01*
X163497247Y-105077247D01*
X163784573Y-104647235D01*
X163885468Y-104140000D01*
X163784573Y-103632765D01*
X163497247Y-103202753D01*
X163067235Y-102915427D01*
X162838858Y-102870000D01*
X163067235Y-102824573D01*
X163497247Y-102537247D01*
X163784573Y-102107235D01*
X163885468Y-101600000D01*
X163784573Y-101092765D01*
X163497247Y-100662753D01*
X163067235Y-100375427D01*
X162838858Y-100330000D01*
X163067235Y-100284573D01*
X163497247Y-99997247D01*
X163784573Y-99567235D01*
X163885468Y-99060000D01*
X163784573Y-98552765D01*
X163497247Y-98122753D01*
X163067235Y-97835427D01*
X162838858Y-97790000D01*
X163067235Y-97744573D01*
X163497247Y-97457247D01*
X163784573Y-97027235D01*
X163885468Y-96520000D01*
X163784573Y-96012765D01*
X163497247Y-95582753D01*
X163067235Y-95295427D01*
X162838858Y-95250000D01*
X163067235Y-95204573D01*
X163497247Y-94917247D01*
X163784573Y-94487235D01*
X163885468Y-93980000D01*
X163784573Y-93472765D01*
X163497247Y-93042753D01*
X163067235Y-92755427D01*
X162838858Y-92710000D01*
X163067235Y-92664573D01*
X163497247Y-92377247D01*
X163784573Y-91947235D01*
X163885468Y-91440000D01*
X163784573Y-90932765D01*
X163497247Y-90502753D01*
X163067235Y-90215427D01*
X162838858Y-90170000D01*
X163067235Y-90124573D01*
X163497247Y-89837247D01*
X163784573Y-89407235D01*
X163885468Y-88900000D01*
X163784573Y-88392765D01*
X163497247Y-87962753D01*
X163067235Y-87675427D01*
X162838858Y-87630000D01*
X163067235Y-87584573D01*
X163497247Y-87297247D01*
X163784573Y-86867235D01*
X163885468Y-86360000D01*
X163784573Y-85852765D01*
X163497247Y-85422753D01*
X163067235Y-85135427D01*
X162838858Y-85090000D01*
X163067235Y-85044573D01*
X163497247Y-84757247D01*
X163784573Y-84327235D01*
X163885468Y-83820000D01*
X163784573Y-83312765D01*
X163497247Y-82882753D01*
X163067235Y-82595427D01*
X162838858Y-82550000D01*
X163067235Y-82504573D01*
X163497247Y-82217247D01*
X163784573Y-81787235D01*
X163885468Y-81280000D01*
X163784573Y-80772765D01*
X163497247Y-80342753D01*
X163067235Y-80055427D01*
X162838858Y-80010000D01*
X163067235Y-79964573D01*
X163497247Y-79677247D01*
X163784573Y-79247235D01*
X163885468Y-78740000D01*
X163784573Y-78232765D01*
X163497247Y-77802753D01*
X163067235Y-77515427D01*
X162838858Y-77470000D01*
X163067235Y-77424573D01*
X163497247Y-77137247D01*
X163784573Y-76707235D01*
X163885468Y-76200000D01*
X163784573Y-75692765D01*
X163497247Y-75262753D01*
X163067235Y-74975427D01*
X162838858Y-74930000D01*
X163067235Y-74884573D01*
X163497247Y-74597247D01*
X163784573Y-74167235D01*
X163885468Y-73660000D01*
X163784573Y-73152765D01*
X163497247Y-72722753D01*
X163067235Y-72435427D01*
X162838858Y-72390000D01*
X163067235Y-72344573D01*
X163497247Y-72057247D01*
X163784573Y-71627235D01*
X163885468Y-71120000D01*
X163784573Y-70612765D01*
X163497247Y-70182753D01*
X163067235Y-69895427D01*
X163033999Y-69888816D01*
X163410000Y-69888816D01*
X163585581Y-69853891D01*
X163734432Y-69754432D01*
X163833891Y-69605581D01*
X163868816Y-69430000D01*
X163868816Y-67730000D01*
X163833891Y-67554419D01*
X163734432Y-67405568D01*
X163591405Y-67310000D01*
X174648247Y-67310000D01*
X174660000Y-67369086D01*
X174660001Y-71060909D01*
X174648247Y-71120000D01*
X174660001Y-71179091D01*
X174694814Y-71354108D01*
X174827426Y-71552575D01*
X174877520Y-71586047D01*
X176553661Y-73262189D01*
X176474532Y-73660000D01*
X176575427Y-74167235D01*
X176862753Y-74597247D01*
X177292765Y-74884573D01*
X177521142Y-74930000D01*
X177292765Y-74975427D01*
X176862753Y-75262753D01*
X176575427Y-75692765D01*
X176474532Y-76200000D01*
X176575427Y-76707235D01*
X176862753Y-77137247D01*
X177292765Y-77424573D01*
X177521142Y-77470000D01*
X177292765Y-77515427D01*
X176862753Y-77802753D01*
X176575427Y-78232765D01*
X176474532Y-78740000D01*
X176575427Y-79247235D01*
X176862753Y-79677247D01*
X177292765Y-79964573D01*
X177521142Y-80010000D01*
X177292765Y-80055427D01*
X176862753Y-80342753D01*
X176575427Y-80772765D01*
X176474532Y-81280000D01*
X176575427Y-81787235D01*
X176862753Y-82217247D01*
X177292765Y-82504573D01*
X177521142Y-82550000D01*
X177292765Y-82595427D01*
X176862753Y-82882753D01*
X176575427Y-83312765D01*
X176474532Y-83820000D01*
X176575427Y-84327235D01*
X176862753Y-84757247D01*
X177292765Y-85044573D01*
X177521142Y-85090000D01*
X177292765Y-85135427D01*
X176862753Y-85422753D01*
X176575427Y-85852765D01*
X176474532Y-86360000D01*
X176575427Y-86867235D01*
X176862753Y-87297247D01*
X177292765Y-87584573D01*
X177521142Y-87630000D01*
X177292765Y-87675427D01*
X176862753Y-87962753D01*
X176575427Y-88392765D01*
X176474532Y-88900000D01*
X176575427Y-89407235D01*
X176862753Y-89837247D01*
X177292765Y-90124573D01*
X177521142Y-90170000D01*
X177292765Y-90215427D01*
X176862753Y-90502753D01*
X176575427Y-90932765D01*
X176474532Y-91440000D01*
X176575427Y-91947235D01*
X176862753Y-92377247D01*
X177292765Y-92664573D01*
X177521142Y-92710000D01*
X177292765Y-92755427D01*
X176862753Y-93042753D01*
X176575427Y-93472765D01*
X176474532Y-93980000D01*
X176575427Y-94487235D01*
X176862753Y-94917247D01*
X177292765Y-95204573D01*
X177521142Y-95250000D01*
X177292765Y-95295427D01*
X176862753Y-95582753D01*
X176575427Y-96012765D01*
X176474532Y-96520000D01*
X176575427Y-97027235D01*
X176862753Y-97457247D01*
X177292765Y-97744573D01*
X177521142Y-97790000D01*
X177292765Y-97835427D01*
X176862753Y-98122753D01*
X176575427Y-98552765D01*
X176474532Y-99060000D01*
X176575427Y-99567235D01*
X176862753Y-99997247D01*
X177292765Y-100284573D01*
X177521142Y-100330000D01*
X177292765Y-100375427D01*
X176862753Y-100662753D01*
X176575427Y-101092765D01*
X176474532Y-101600000D01*
X176575427Y-102107235D01*
X176862753Y-102537247D01*
X177292765Y-102824573D01*
X177521142Y-102870000D01*
X177292765Y-102915427D01*
X176862753Y-103202753D01*
X176575427Y-103632765D01*
X176474532Y-104140000D01*
X176575427Y-104647235D01*
X176862753Y-105077247D01*
X177292765Y-105364573D01*
X177521142Y-105410000D01*
X177292765Y-105455427D01*
X176862753Y-105742753D01*
X176575427Y-106172765D01*
X176474532Y-106680000D01*
X176575427Y-107187235D01*
X176862753Y-107617247D01*
X177292765Y-107904573D01*
X177521142Y-107950000D01*
X177292765Y-107995427D01*
X176862753Y-108282753D01*
X176575427Y-108712765D01*
X176474532Y-109220000D01*
X176575427Y-109727235D01*
X176862753Y-110157247D01*
X177292765Y-110444573D01*
X177521142Y-110490000D01*
X177292765Y-110535427D01*
X176862753Y-110822753D01*
X176575427Y-111252765D01*
X176474532Y-111760000D01*
X176575427Y-112267235D01*
X176862753Y-112697247D01*
X177292765Y-112984573D01*
X177521142Y-113030000D01*
X177292765Y-113075427D01*
X176862753Y-113362753D01*
X176575427Y-113792765D01*
X176474532Y-114300000D01*
X176575427Y-114807235D01*
X176862753Y-115237247D01*
X177292765Y-115524573D01*
X177326001Y-115531184D01*
X176950000Y-115531184D01*
X176774419Y-115566109D01*
X176625568Y-115665568D01*
X176526109Y-115814419D01*
X176491184Y-115990000D01*
X176491184Y-117690000D01*
X176526109Y-117865581D01*
X176625568Y-118014432D01*
X176774419Y-118113891D01*
X176950000Y-118148816D01*
X178650000Y-118148816D01*
X178825581Y-118113891D01*
X178974432Y-118014432D01*
X179073891Y-117865581D01*
X179108816Y-117690000D01*
X179108816Y-115990000D01*
X179073891Y-115814419D01*
X178974432Y-115665568D01*
X178825581Y-115566109D01*
X178650000Y-115531184D01*
X178273999Y-115531184D01*
X178307235Y-115524573D01*
X178737247Y-115237247D01*
X179024573Y-114807235D01*
X179125468Y-114300000D01*
X179024573Y-113792765D01*
X178737247Y-113362753D01*
X178307235Y-113075427D01*
X178078858Y-113030000D01*
X178307235Y-112984573D01*
X178737247Y-112697247D01*
X179024573Y-112267235D01*
X179125468Y-111760000D01*
X179024573Y-111252765D01*
X178737247Y-110822753D01*
X178307235Y-110535427D01*
X178078858Y-110490000D01*
X178307235Y-110444573D01*
X178737247Y-110157247D01*
X179024573Y-109727235D01*
X179125468Y-109220000D01*
X179024573Y-108712765D01*
X178737247Y-108282753D01*
X178307235Y-107995427D01*
X178078858Y-107950000D01*
X178307235Y-107904573D01*
X178737247Y-107617247D01*
X179024573Y-107187235D01*
X179125468Y-106680000D01*
X179024573Y-106172765D01*
X178737247Y-105742753D01*
X178307235Y-105455427D01*
X178078858Y-105410000D01*
X178307235Y-105364573D01*
X178737247Y-105077247D01*
X179024573Y-104647235D01*
X179125468Y-104140000D01*
X179024573Y-103632765D01*
X178737247Y-103202753D01*
X178307235Y-102915427D01*
X178078858Y-102870000D01*
X178307235Y-102824573D01*
X178737247Y-102537247D01*
X179024573Y-102107235D01*
X179125468Y-101600000D01*
X179024573Y-101092765D01*
X178737247Y-100662753D01*
X178307235Y-100375427D01*
X178078858Y-100330000D01*
X178307235Y-100284573D01*
X178737247Y-99997247D01*
X179024573Y-99567235D01*
X179125468Y-99060000D01*
X179024573Y-98552765D01*
X178737247Y-98122753D01*
X178307235Y-97835427D01*
X178078858Y-97790000D01*
X178307235Y-97744573D01*
X178737247Y-97457247D01*
X179024573Y-97027235D01*
X179125468Y-96520000D01*
X179024573Y-96012765D01*
X178737247Y-95582753D01*
X178307235Y-95295427D01*
X178078858Y-95250000D01*
X178307235Y-95204573D01*
X178737247Y-94917247D01*
X179024573Y-94487235D01*
X179125468Y-93980000D01*
X179024573Y-93472765D01*
X178737247Y-93042753D01*
X178307235Y-92755427D01*
X178078858Y-92710000D01*
X178307235Y-92664573D01*
X178737247Y-92377247D01*
X179024573Y-91947235D01*
X179125468Y-91440000D01*
X179024573Y-90932765D01*
X178737247Y-90502753D01*
X178307235Y-90215427D01*
X178078858Y-90170000D01*
X178307235Y-90124573D01*
X178737247Y-89837247D01*
X179024573Y-89407235D01*
X179125468Y-88900000D01*
X179024573Y-88392765D01*
X178737247Y-87962753D01*
X178307235Y-87675427D01*
X178078858Y-87630000D01*
X178307235Y-87584573D01*
X178737247Y-87297247D01*
X179024573Y-86867235D01*
X179125468Y-86360000D01*
X179024573Y-85852765D01*
X178737247Y-85422753D01*
X178307235Y-85135427D01*
X178078858Y-85090000D01*
X178307235Y-85044573D01*
X178737247Y-84757247D01*
X179024573Y-84327235D01*
X179125468Y-83820000D01*
X179024573Y-83312765D01*
X178737247Y-82882753D01*
X178307235Y-82595427D01*
X178078858Y-82550000D01*
X178307235Y-82504573D01*
X178737247Y-82217247D01*
X179024573Y-81787235D01*
X179125468Y-81280000D01*
X179024573Y-80772765D01*
X178737247Y-80342753D01*
X178307235Y-80055427D01*
X178078858Y-80010000D01*
X178307235Y-79964573D01*
X178737247Y-79677247D01*
X179024573Y-79247235D01*
X179125468Y-78740000D01*
X179024573Y-78232765D01*
X178737247Y-77802753D01*
X178307235Y-77515427D01*
X178078858Y-77470000D01*
X178307235Y-77424573D01*
X178737247Y-77137247D01*
X179024573Y-76707235D01*
X179125468Y-76200000D01*
X179024573Y-75692765D01*
X178737247Y-75262753D01*
X178307235Y-74975427D01*
X178078858Y-74930000D01*
X178307235Y-74884573D01*
X178737247Y-74597247D01*
X179024573Y-74167235D01*
X179125468Y-73660000D01*
X179024573Y-73152765D01*
X178737247Y-72722753D01*
X178377159Y-72482149D01*
X178674730Y-72348387D01*
X179078228Y-71920137D01*
X179269619Y-71458061D01*
X190300381Y-71458061D01*
X190491772Y-71920137D01*
X190895270Y-72348387D01*
X191431938Y-72589626D01*
X191666000Y-72459917D01*
X191666000Y-71224000D01*
X191874000Y-71224000D01*
X191874000Y-72459917D01*
X192108062Y-72589626D01*
X192644730Y-72348387D01*
X193048228Y-71920137D01*
X193239619Y-71458061D01*
X193109469Y-71224000D01*
X191874000Y-71224000D01*
X191666000Y-71224000D01*
X190430531Y-71224000D01*
X190300381Y-71458061D01*
X179269619Y-71458061D01*
X179139469Y-71224000D01*
X177904000Y-71224000D01*
X177904000Y-71244000D01*
X177696000Y-71244000D01*
X177696000Y-71224000D01*
X176460531Y-71224000D01*
X176371907Y-71383380D01*
X175860000Y-70871473D01*
X175860000Y-70781939D01*
X176330381Y-70781939D01*
X176460531Y-71016000D01*
X177696000Y-71016000D01*
X177696000Y-70996000D01*
X177904000Y-70996000D01*
X177904000Y-71016000D01*
X179139469Y-71016000D01*
X179269619Y-70781939D01*
X179078228Y-70319863D01*
X178674730Y-69891613D01*
X178377159Y-69757851D01*
X178737247Y-69517247D01*
X179024573Y-69087235D01*
X179125468Y-68580000D01*
X179024573Y-68072765D01*
X178737247Y-67642753D01*
X178307235Y-67355427D01*
X177928037Y-67280000D01*
X177671963Y-67280000D01*
X177292765Y-67355427D01*
X176862753Y-67642753D01*
X176575427Y-68072765D01*
X176474532Y-68580000D01*
X176575427Y-69087235D01*
X176862753Y-69517247D01*
X177222841Y-69757851D01*
X176925270Y-69891613D01*
X176521772Y-70319863D01*
X176330381Y-70781939D01*
X175860000Y-70781939D01*
X175860000Y-67558527D01*
X176778528Y-66640000D01*
X187831473Y-66640000D01*
X190153953Y-68962481D01*
X190187425Y-69012575D01*
X190385892Y-69145187D01*
X190461184Y-69160163D01*
X190461184Y-69430000D01*
X190496109Y-69605581D01*
X190595568Y-69754432D01*
X190744419Y-69853891D01*
X190907170Y-69886264D01*
X190895270Y-69891613D01*
X190491772Y-70319863D01*
X190300381Y-70781939D01*
X190430531Y-71016000D01*
X191666000Y-71016000D01*
X191666000Y-70996000D01*
X191874000Y-70996000D01*
X191874000Y-71016000D01*
X193109469Y-71016000D01*
X193239619Y-70781939D01*
X193048228Y-70319863D01*
X192644730Y-69891613D01*
X192632830Y-69886264D01*
X192795581Y-69853891D01*
X192944432Y-69754432D01*
X193043891Y-69605581D01*
X193078816Y-69430000D01*
X193078816Y-67730000D01*
X193043891Y-67554419D01*
X192944432Y-67405568D01*
X192795581Y-67306109D01*
X192620000Y-67271184D01*
X190920000Y-67271184D01*
X190744419Y-67306109D01*
X190595568Y-67405568D01*
X190496109Y-67554419D01*
X190487289Y-67598761D01*
X188546049Y-65657522D01*
X188512575Y-65607425D01*
X188314108Y-65474813D01*
X188139091Y-65440000D01*
X188139086Y-65440000D01*
X188080000Y-65428247D01*
X188020914Y-65440000D01*
X176589086Y-65440000D01*
X176529999Y-65428247D01*
X176470913Y-65440000D01*
X176470909Y-65440000D01*
X176295892Y-65474813D01*
X176097425Y-65607425D01*
X176063953Y-65657519D01*
X174877521Y-66843951D01*
X174827425Y-66877425D01*
X174694813Y-67075893D01*
X174660000Y-67250910D01*
X174660000Y-67250914D01*
X174648247Y-67310000D01*
X163591405Y-67310000D01*
X163585581Y-67306109D01*
X163410000Y-67271184D01*
X161710000Y-67271184D01*
X161534419Y-67306109D01*
X161385568Y-67405568D01*
X161286109Y-67554419D01*
X161251184Y-67730000D01*
X161251184Y-69430000D01*
X161286109Y-69605581D01*
X161385568Y-69754432D01*
X161534419Y-69853891D01*
X161710000Y-69888816D01*
X162086001Y-69888816D01*
X162052765Y-69895427D01*
X161622753Y-70182753D01*
X161335427Y-70612765D01*
X161234532Y-71120000D01*
X161335427Y-71627235D01*
X161622753Y-72057247D01*
X162052765Y-72344573D01*
X162281142Y-72390000D01*
X162052765Y-72435427D01*
X161622753Y-72722753D01*
X161335427Y-73152765D01*
X161234532Y-73660000D01*
X161335427Y-74167235D01*
X161622753Y-74597247D01*
X162052765Y-74884573D01*
X162281142Y-74930000D01*
X162052765Y-74975427D01*
X161622753Y-75262753D01*
X161335427Y-75692765D01*
X161234532Y-76200000D01*
X161335427Y-76707235D01*
X161622753Y-77137247D01*
X162052765Y-77424573D01*
X162281142Y-77470000D01*
X162052765Y-77515427D01*
X161622753Y-77802753D01*
X161335427Y-78232765D01*
X161234532Y-78740000D01*
X161335427Y-79247235D01*
X161622753Y-79677247D01*
X162052765Y-79964573D01*
X162281142Y-80010000D01*
X162052765Y-80055427D01*
X161622753Y-80342753D01*
X161335427Y-80772765D01*
X161234532Y-81280000D01*
X161335427Y-81787235D01*
X161622753Y-82217247D01*
X162052765Y-82504573D01*
X162281142Y-82550000D01*
X162052765Y-82595427D01*
X161622753Y-82882753D01*
X161335427Y-83312765D01*
X161234532Y-83820000D01*
X161335427Y-84327235D01*
X161622753Y-84757247D01*
X162052765Y-85044573D01*
X162281142Y-85090000D01*
X162052765Y-85135427D01*
X161622753Y-85422753D01*
X161335427Y-85852765D01*
X161234532Y-86360000D01*
X161335427Y-86867235D01*
X161622753Y-87297247D01*
X162052765Y-87584573D01*
X162281142Y-87630000D01*
X162052765Y-87675427D01*
X161622753Y-87962753D01*
X161335427Y-88392765D01*
X161234532Y-88900000D01*
X161335427Y-89407235D01*
X161622753Y-89837247D01*
X162052765Y-90124573D01*
X162281142Y-90170000D01*
X162052765Y-90215427D01*
X161622753Y-90502753D01*
X161335427Y-90932765D01*
X161234532Y-91440000D01*
X161335427Y-91947235D01*
X161622753Y-92377247D01*
X162052765Y-92664573D01*
X162281142Y-92710000D01*
X162052765Y-92755427D01*
X161622753Y-93042753D01*
X161335427Y-93472765D01*
X161234532Y-93980000D01*
X161335427Y-94487235D01*
X161622753Y-94917247D01*
X162052765Y-95204573D01*
X162281142Y-95250000D01*
X162052765Y-95295427D01*
X161622753Y-95582753D01*
X161335427Y-96012765D01*
X161234532Y-96520000D01*
X161335427Y-97027235D01*
X161622753Y-97457247D01*
X162052765Y-97744573D01*
X162281142Y-97790000D01*
X162052765Y-97835427D01*
X161622753Y-98122753D01*
X161335427Y-98552765D01*
X161234532Y-99060000D01*
X161335427Y-99567235D01*
X161622753Y-99997247D01*
X162052765Y-100284573D01*
X162281142Y-100330000D01*
X162052765Y-100375427D01*
X161622753Y-100662753D01*
X161335427Y-101092765D01*
X161234532Y-101600000D01*
X161325412Y-102056884D01*
X156810000Y-97541473D01*
X156810000Y-80189088D01*
X156821753Y-80130000D01*
X156810000Y-80070910D01*
X156810000Y-80070909D01*
X156775187Y-79895892D01*
X156775187Y-79895891D01*
X156676047Y-79747519D01*
X156642575Y-79697425D01*
X156592482Y-79663954D01*
X150206049Y-73277522D01*
X150172575Y-73227425D01*
X149974108Y-73094813D01*
X149898816Y-73079837D01*
X149898816Y-72810000D01*
X149863891Y-72634419D01*
X149764432Y-72485568D01*
X149615581Y-72386109D01*
X149440000Y-72351184D01*
X147740000Y-72351184D01*
X147564419Y-72386109D01*
X147415568Y-72485568D01*
X147316109Y-72634419D01*
X147281184Y-72810000D01*
X147281184Y-74510000D01*
X147316109Y-74685581D01*
X147415568Y-74834432D01*
X147564419Y-74933891D01*
X147740000Y-74968816D01*
X148116001Y-74968816D01*
X148082765Y-74975427D01*
X147652753Y-75262753D01*
X147365427Y-75692765D01*
X147264532Y-76200000D01*
X147365427Y-76707235D01*
X147652753Y-77137247D01*
X148012841Y-77377851D01*
X147715270Y-77511613D01*
X147311772Y-77939863D01*
X147120381Y-78401939D01*
X146600000Y-78401939D01*
X146600000Y-58238500D01*
X163932000Y-58238500D01*
X163932000Y-60640884D01*
X164032174Y-60882727D01*
X164217273Y-61067825D01*
X164459115Y-61168000D01*
X164672786Y-61168000D01*
X164647050Y-61240156D01*
X164669817Y-61694299D01*
X164799809Y-62008130D01*
X165022554Y-62040368D01*
X165133685Y-61929237D01*
X165197273Y-61992825D01*
X165315345Y-62041733D01*
X165169632Y-62187446D01*
X165201870Y-62410191D01*
X165630156Y-62562950D01*
X166084299Y-62540183D01*
X166398130Y-62410191D01*
X166430368Y-62187446D01*
X166284655Y-62041733D01*
X166402727Y-61992825D01*
X166466315Y-61929237D01*
X166577446Y-62040368D01*
X166800191Y-62008130D01*
X166952950Y-61579844D01*
X166932304Y-61168000D01*
X167140885Y-61168000D01*
X167382727Y-61067825D01*
X167567826Y-60882727D01*
X167668000Y-60640884D01*
X167668000Y-58238500D01*
X172692000Y-58238500D01*
X172692000Y-60640884D01*
X172792174Y-60882727D01*
X172977273Y-61067825D01*
X173219115Y-61168000D01*
X173432786Y-61168000D01*
X173407050Y-61240156D01*
X173429817Y-61694299D01*
X173559809Y-62008130D01*
X173782554Y-62040368D01*
X173893685Y-61929237D01*
X173957273Y-61992825D01*
X174075345Y-62041733D01*
X173929632Y-62187446D01*
X173961870Y-62410191D01*
X174390156Y-62562950D01*
X174844299Y-62540183D01*
X175158130Y-62410191D01*
X175190368Y-62187446D01*
X175044655Y-62041733D01*
X175162727Y-61992825D01*
X175226315Y-61929237D01*
X175337446Y-62040368D01*
X175560191Y-62008130D01*
X175712950Y-61579844D01*
X175692304Y-61168000D01*
X175900885Y-61168000D01*
X176142727Y-61067825D01*
X176327826Y-60882727D01*
X176428000Y-60640884D01*
X176428000Y-58238500D01*
X176263500Y-58074000D01*
X174664000Y-58074000D01*
X174664000Y-58094000D01*
X174456000Y-58094000D01*
X174456000Y-58074000D01*
X172856500Y-58074000D01*
X172692000Y-58238500D01*
X167668000Y-58238500D01*
X167503500Y-58074000D01*
X165904000Y-58074000D01*
X165904000Y-58094000D01*
X165696000Y-58094000D01*
X165696000Y-58074000D01*
X164096500Y-58074000D01*
X163932000Y-58238500D01*
X146600000Y-58238500D01*
X146600000Y-55160000D01*
X163989623Y-55160000D01*
X163932000Y-55299116D01*
M02*
