M48
;DRILL file {KiCad (5.0.0)} date 11/11/18 16:52:45
;FORMAT={-:-/ absolute / inch / decimal}
FMAT,2
INCH,TZ
T1C0.0181
T2C0.0394
%
G90
G05
M72
T1
X6.0177Y-4.7276
X6.0177Y-5.0724
X6.5276Y-2.4177
X6.8724Y-2.4177
X7.3823Y-4.7276
X7.3823Y-5.0724
T2
X6.4Y-2.7
X6.4Y-2.8
X6.4Y-2.9
X6.4Y-3.
X6.4Y-3.1
X6.4Y-3.2
X6.4Y-3.3
X6.4Y-3.4
X6.4Y-3.5
X6.4Y-3.6
X6.4Y-3.7
X6.4Y-3.8
X6.4Y-3.9
X6.4Y-4.
X6.4Y-4.1
X6.4Y-4.2
X6.4Y-4.3
X6.4Y-4.4
X6.4Y-4.5
X6.4Y-4.6
X7.Y-2.7
X7.Y-2.8
X7.Y-2.9
X7.Y-3.
X7.Y-3.1
X7.Y-3.2
X7.Y-3.3
X7.Y-3.4
X7.Y-3.5
X7.Y-3.6
X7.Y-3.7
X7.Y-3.8
X7.Y-3.9
X7.Y-4.
X7.Y-4.1
X7.Y-4.2
X7.Y-4.3
X7.Y-4.4
X7.Y-4.5
X7.Y-4.6
X5.85Y-2.9
X5.85Y-3.
X5.85Y-3.1
X7.55Y-2.7
X7.55Y-2.8
T0
M30
