%TF.GenerationSoftware,KiCad,Pcbnew,(5.0.0)*%
%TF.CreationDate,2018-11-11T16:52:16+07:00*%
%TF.ProjectId,AntennaSwitch_v1.1,416E74656E6E615377697463685F7631,rev?*%
%TF.SameCoordinates,Original*%
%TF.FileFunction,Copper,L1,Top,Signal*%
%TF.FilePolarity,Positive*%
%FSLAX46Y46*%
G04 Gerber Fmt 4.6, Leading zero omitted, Abs format (unit mm)*
G04 Created by KiCad (PCBNEW (5.0.0)) date 11/11/18 16:52:16*
%MOMM*%
%LPD*%
G01*
G04 APERTURE LIST*
%ADD10C,0.200000*%
%ADD11C,0.100000*%
%ADD12C,1.425000*%
%ADD13C,0.400000*%
%ADD14R,0.950000X0.460000*%
%ADD15C,0.970000*%
%ADD16R,5.080000X2.420000*%
%ADD17R,5.080000X2.290000*%
%ADD18R,2.290000X5.080000*%
%ADD19R,2.420000X5.080000*%
%ADD20R,0.460000X0.950000*%
%ADD21R,1.700000X1.700000*%
%ADD22O,1.700000X1.700000*%
%ADD23C,0.300000*%
%ADD24C,0.250000*%
%ADD25C,1.600000*%
%ADD26C,0.400000*%
G04 APERTURE END LIST*
D10*
X194310000Y-54610000D02*
X194310000Y-130810000D01*
X146050000Y-54610000D02*
X194310000Y-54610000D01*
X146050000Y-130810000D02*
X146050000Y-54610000D01*
X194310000Y-130810000D02*
X146050000Y-130810000D01*
D11*
G36*
X151779504Y-90728704D02*
X151803773Y-90732304D01*
X151827571Y-90738265D01*
X151850671Y-90746530D01*
X151872849Y-90757020D01*
X151893893Y-90769633D01*
X151913598Y-90784247D01*
X151931777Y-90800723D01*
X151948253Y-90818902D01*
X151962867Y-90838607D01*
X151975480Y-90859651D01*
X151985970Y-90881829D01*
X151994235Y-90904929D01*
X152000196Y-90928727D01*
X152003796Y-90952996D01*
X152005000Y-90977500D01*
X152005000Y-91902500D01*
X152003796Y-91927004D01*
X152000196Y-91951273D01*
X151994235Y-91975071D01*
X151985970Y-91998171D01*
X151975480Y-92020349D01*
X151962867Y-92041393D01*
X151948253Y-92061098D01*
X151931777Y-92079277D01*
X151913598Y-92095753D01*
X151893893Y-92110367D01*
X151872849Y-92122980D01*
X151850671Y-92133470D01*
X151827571Y-92141735D01*
X151803773Y-92147696D01*
X151779504Y-92151296D01*
X151755000Y-92152500D01*
X150505000Y-92152500D01*
X150480496Y-92151296D01*
X150456227Y-92147696D01*
X150432429Y-92141735D01*
X150409329Y-92133470D01*
X150387151Y-92122980D01*
X150366107Y-92110367D01*
X150346402Y-92095753D01*
X150328223Y-92079277D01*
X150311747Y-92061098D01*
X150297133Y-92041393D01*
X150284520Y-92020349D01*
X150274030Y-91998171D01*
X150265765Y-91975071D01*
X150259804Y-91951273D01*
X150256204Y-91927004D01*
X150255000Y-91902500D01*
X150255000Y-90977500D01*
X150256204Y-90952996D01*
X150259804Y-90928727D01*
X150265765Y-90904929D01*
X150274030Y-90881829D01*
X150284520Y-90859651D01*
X150297133Y-90838607D01*
X150311747Y-90818902D01*
X150328223Y-90800723D01*
X150346402Y-90784247D01*
X150366107Y-90769633D01*
X150387151Y-90757020D01*
X150409329Y-90746530D01*
X150432429Y-90738265D01*
X150456227Y-90732304D01*
X150480496Y-90728704D01*
X150505000Y-90727500D01*
X151755000Y-90727500D01*
X151779504Y-90728704D01*
X151779504Y-90728704D01*
G37*
D12*
X151130000Y-91440000D03*
D11*
G36*
X151779504Y-93703704D02*
X151803773Y-93707304D01*
X151827571Y-93713265D01*
X151850671Y-93721530D01*
X151872849Y-93732020D01*
X151893893Y-93744633D01*
X151913598Y-93759247D01*
X151931777Y-93775723D01*
X151948253Y-93793902D01*
X151962867Y-93813607D01*
X151975480Y-93834651D01*
X151985970Y-93856829D01*
X151994235Y-93879929D01*
X152000196Y-93903727D01*
X152003796Y-93927996D01*
X152005000Y-93952500D01*
X152005000Y-94877500D01*
X152003796Y-94902004D01*
X152000196Y-94926273D01*
X151994235Y-94950071D01*
X151985970Y-94973171D01*
X151975480Y-94995349D01*
X151962867Y-95016393D01*
X151948253Y-95036098D01*
X151931777Y-95054277D01*
X151913598Y-95070753D01*
X151893893Y-95085367D01*
X151872849Y-95097980D01*
X151850671Y-95108470D01*
X151827571Y-95116735D01*
X151803773Y-95122696D01*
X151779504Y-95126296D01*
X151755000Y-95127500D01*
X150505000Y-95127500D01*
X150480496Y-95126296D01*
X150456227Y-95122696D01*
X150432429Y-95116735D01*
X150409329Y-95108470D01*
X150387151Y-95097980D01*
X150366107Y-95085367D01*
X150346402Y-95070753D01*
X150328223Y-95054277D01*
X150311747Y-95036098D01*
X150297133Y-95016393D01*
X150284520Y-94995349D01*
X150274030Y-94973171D01*
X150265765Y-94950071D01*
X150259804Y-94926273D01*
X150256204Y-94902004D01*
X150255000Y-94877500D01*
X150255000Y-93952500D01*
X150256204Y-93927996D01*
X150259804Y-93903727D01*
X150265765Y-93879929D01*
X150274030Y-93856829D01*
X150284520Y-93834651D01*
X150297133Y-93813607D01*
X150311747Y-93793902D01*
X150328223Y-93775723D01*
X150346402Y-93759247D01*
X150366107Y-93744633D01*
X150387151Y-93732020D01*
X150409329Y-93721530D01*
X150432429Y-93713265D01*
X150456227Y-93707304D01*
X150480496Y-93703704D01*
X150505000Y-93702500D01*
X151755000Y-93702500D01*
X151779504Y-93703704D01*
X151779504Y-93703704D01*
G37*
D12*
X151130000Y-94415000D03*
D13*
X170180000Y-124165000D03*
D11*
G36*
X169980000Y-124415000D02*
X169980000Y-123915000D01*
X170380000Y-123915000D01*
X170380000Y-124415000D01*
X169980000Y-124415000D01*
X169980000Y-124415000D01*
G37*
D13*
X169530000Y-124165000D03*
D11*
G36*
X169330000Y-124415000D02*
X169330000Y-123915000D01*
X169730000Y-123915000D01*
X169730000Y-124415000D01*
X169330000Y-124415000D01*
X169330000Y-124415000D01*
G37*
D13*
X170830000Y-124165000D03*
D11*
G36*
X170630000Y-124415000D02*
X170630000Y-123915000D01*
X171030000Y-123915000D01*
X171030000Y-124415000D01*
X170630000Y-124415000D01*
X170630000Y-124415000D01*
G37*
D13*
X170830000Y-122215000D03*
D11*
G36*
X170630000Y-122465000D02*
X170630000Y-121965000D01*
X171030000Y-121965000D01*
X171030000Y-122465000D01*
X170630000Y-122465000D01*
X170630000Y-122465000D01*
G37*
D13*
X170180000Y-122215000D03*
D11*
G36*
X169980000Y-122465000D02*
X169980000Y-121965000D01*
X170380000Y-121965000D01*
X170380000Y-122465000D01*
X169980000Y-122465000D01*
X169980000Y-122465000D01*
G37*
D13*
X169530000Y-122215000D03*
D11*
G36*
X169330000Y-122465000D02*
X169330000Y-121965000D01*
X169730000Y-121965000D01*
X169730000Y-122465000D01*
X169330000Y-122465000D01*
X169330000Y-122465000D01*
G37*
D14*
X187960000Y-120080000D03*
X187960000Y-128840000D03*
D15*
X187510000Y-120080000D03*
X187510000Y-128840000D03*
D16*
X190950000Y-120080000D03*
X190950000Y-128840000D03*
D17*
X190950000Y-124460000D03*
D18*
X170180000Y-57970000D03*
D19*
X174560000Y-57970000D03*
X165800000Y-57970000D03*
D15*
X174560000Y-61410000D03*
X165800000Y-61410000D03*
D20*
X174560000Y-60960000D03*
X165800000Y-60960000D03*
D17*
X149410000Y-124460000D03*
D16*
X149410000Y-120080000D03*
X149410000Y-128840000D03*
D15*
X152850000Y-120080000D03*
X152850000Y-128840000D03*
D14*
X152400000Y-120080000D03*
X152400000Y-128840000D03*
D21*
X148590000Y-73660000D03*
D22*
X148590000Y-76200000D03*
X148590000Y-78740000D03*
D21*
X177800000Y-116840000D03*
D22*
X177800000Y-114300000D03*
X177800000Y-111760000D03*
X177800000Y-109220000D03*
X177800000Y-106680000D03*
X177800000Y-104140000D03*
X177800000Y-101600000D03*
X177800000Y-99060000D03*
X177800000Y-96520000D03*
X177800000Y-93980000D03*
X177800000Y-91440000D03*
X177800000Y-88900000D03*
X177800000Y-86360000D03*
X177800000Y-83820000D03*
X177800000Y-81280000D03*
X177800000Y-78740000D03*
X177800000Y-76200000D03*
X177800000Y-73660000D03*
X177800000Y-71120000D03*
X177800000Y-68580000D03*
X162560000Y-116840000D03*
X162560000Y-114300000D03*
X162560000Y-111760000D03*
X162560000Y-109220000D03*
X162560000Y-106680000D03*
X162560000Y-104140000D03*
X162560000Y-101600000D03*
X162560000Y-99060000D03*
X162560000Y-96520000D03*
X162560000Y-93980000D03*
X162560000Y-91440000D03*
X162560000Y-88900000D03*
X162560000Y-86360000D03*
X162560000Y-83820000D03*
X162560000Y-81280000D03*
X162560000Y-78740000D03*
X162560000Y-76200000D03*
X162560000Y-73660000D03*
X162560000Y-71120000D03*
D21*
X162560000Y-68580000D03*
X191770000Y-68580000D03*
D22*
X191770000Y-71120000D03*
D11*
G36*
X175529504Y-123586204D02*
X175553773Y-123589804D01*
X175577571Y-123595765D01*
X175600671Y-123604030D01*
X175622849Y-123614520D01*
X175643893Y-123627133D01*
X175663598Y-123641747D01*
X175681777Y-123658223D01*
X175698253Y-123676402D01*
X175712867Y-123696107D01*
X175725480Y-123717151D01*
X175735970Y-123739329D01*
X175744235Y-123762429D01*
X175750196Y-123786227D01*
X175753796Y-123810496D01*
X175755000Y-123835000D01*
X175755000Y-125085000D01*
X175753796Y-125109504D01*
X175750196Y-125133773D01*
X175744235Y-125157571D01*
X175735970Y-125180671D01*
X175725480Y-125202849D01*
X175712867Y-125223893D01*
X175698253Y-125243598D01*
X175681777Y-125261777D01*
X175663598Y-125278253D01*
X175643893Y-125292867D01*
X175622849Y-125305480D01*
X175600671Y-125315970D01*
X175577571Y-125324235D01*
X175553773Y-125330196D01*
X175529504Y-125333796D01*
X175505000Y-125335000D01*
X174580000Y-125335000D01*
X174555496Y-125333796D01*
X174531227Y-125330196D01*
X174507429Y-125324235D01*
X174484329Y-125315970D01*
X174462151Y-125305480D01*
X174441107Y-125292867D01*
X174421402Y-125278253D01*
X174403223Y-125261777D01*
X174386747Y-125243598D01*
X174372133Y-125223893D01*
X174359520Y-125202849D01*
X174349030Y-125180671D01*
X174340765Y-125157571D01*
X174334804Y-125133773D01*
X174331204Y-125109504D01*
X174330000Y-125085000D01*
X174330000Y-123835000D01*
X174331204Y-123810496D01*
X174334804Y-123786227D01*
X174340765Y-123762429D01*
X174349030Y-123739329D01*
X174359520Y-123717151D01*
X174372133Y-123696107D01*
X174386747Y-123676402D01*
X174403223Y-123658223D01*
X174421402Y-123641747D01*
X174441107Y-123627133D01*
X174462151Y-123614520D01*
X174484329Y-123604030D01*
X174507429Y-123595765D01*
X174531227Y-123589804D01*
X174555496Y-123586204D01*
X174580000Y-123585000D01*
X175505000Y-123585000D01*
X175529504Y-123586204D01*
X175529504Y-123586204D01*
G37*
D12*
X175042500Y-124460000D03*
D11*
G36*
X178504504Y-123586204D02*
X178528773Y-123589804D01*
X178552571Y-123595765D01*
X178575671Y-123604030D01*
X178597849Y-123614520D01*
X178618893Y-123627133D01*
X178638598Y-123641747D01*
X178656777Y-123658223D01*
X178673253Y-123676402D01*
X178687867Y-123696107D01*
X178700480Y-123717151D01*
X178710970Y-123739329D01*
X178719235Y-123762429D01*
X178725196Y-123786227D01*
X178728796Y-123810496D01*
X178730000Y-123835000D01*
X178730000Y-125085000D01*
X178728796Y-125109504D01*
X178725196Y-125133773D01*
X178719235Y-125157571D01*
X178710970Y-125180671D01*
X178700480Y-125202849D01*
X178687867Y-125223893D01*
X178673253Y-125243598D01*
X178656777Y-125261777D01*
X178638598Y-125278253D01*
X178618893Y-125292867D01*
X178597849Y-125305480D01*
X178575671Y-125315970D01*
X178552571Y-125324235D01*
X178528773Y-125330196D01*
X178504504Y-125333796D01*
X178480000Y-125335000D01*
X177555000Y-125335000D01*
X177530496Y-125333796D01*
X177506227Y-125330196D01*
X177482429Y-125324235D01*
X177459329Y-125315970D01*
X177437151Y-125305480D01*
X177416107Y-125292867D01*
X177396402Y-125278253D01*
X177378223Y-125261777D01*
X177361747Y-125243598D01*
X177347133Y-125223893D01*
X177334520Y-125202849D01*
X177324030Y-125180671D01*
X177315765Y-125157571D01*
X177309804Y-125133773D01*
X177306204Y-125109504D01*
X177305000Y-125085000D01*
X177305000Y-123835000D01*
X177306204Y-123810496D01*
X177309804Y-123786227D01*
X177315765Y-123762429D01*
X177324030Y-123739329D01*
X177334520Y-123717151D01*
X177347133Y-123696107D01*
X177361747Y-123676402D01*
X177378223Y-123658223D01*
X177396402Y-123641747D01*
X177416107Y-123627133D01*
X177437151Y-123614520D01*
X177459329Y-123604030D01*
X177482429Y-123595765D01*
X177506227Y-123589804D01*
X177530496Y-123586204D01*
X177555000Y-123585000D01*
X178480000Y-123585000D01*
X178504504Y-123586204D01*
X178504504Y-123586204D01*
G37*
D12*
X178017500Y-124460000D03*
D11*
G36*
X170829504Y-115911204D02*
X170853773Y-115914804D01*
X170877571Y-115920765D01*
X170900671Y-115929030D01*
X170922849Y-115939520D01*
X170943893Y-115952133D01*
X170963598Y-115966747D01*
X170981777Y-115983223D01*
X170998253Y-116001402D01*
X171012867Y-116021107D01*
X171025480Y-116042151D01*
X171035970Y-116064329D01*
X171044235Y-116087429D01*
X171050196Y-116111227D01*
X171053796Y-116135496D01*
X171055000Y-116160000D01*
X171055000Y-117085000D01*
X171053796Y-117109504D01*
X171050196Y-117133773D01*
X171044235Y-117157571D01*
X171035970Y-117180671D01*
X171025480Y-117202849D01*
X171012867Y-117223893D01*
X170998253Y-117243598D01*
X170981777Y-117261777D01*
X170963598Y-117278253D01*
X170943893Y-117292867D01*
X170922849Y-117305480D01*
X170900671Y-117315970D01*
X170877571Y-117324235D01*
X170853773Y-117330196D01*
X170829504Y-117333796D01*
X170805000Y-117335000D01*
X169555000Y-117335000D01*
X169530496Y-117333796D01*
X169506227Y-117330196D01*
X169482429Y-117324235D01*
X169459329Y-117315970D01*
X169437151Y-117305480D01*
X169416107Y-117292867D01*
X169396402Y-117278253D01*
X169378223Y-117261777D01*
X169361747Y-117243598D01*
X169347133Y-117223893D01*
X169334520Y-117202849D01*
X169324030Y-117180671D01*
X169315765Y-117157571D01*
X169309804Y-117133773D01*
X169306204Y-117109504D01*
X169305000Y-117085000D01*
X169305000Y-116160000D01*
X169306204Y-116135496D01*
X169309804Y-116111227D01*
X169315765Y-116087429D01*
X169324030Y-116064329D01*
X169334520Y-116042151D01*
X169347133Y-116021107D01*
X169361747Y-116001402D01*
X169378223Y-115983223D01*
X169396402Y-115966747D01*
X169416107Y-115952133D01*
X169437151Y-115939520D01*
X169459329Y-115929030D01*
X169482429Y-115920765D01*
X169506227Y-115914804D01*
X169530496Y-115911204D01*
X169555000Y-115910000D01*
X170805000Y-115910000D01*
X170829504Y-115911204D01*
X170829504Y-115911204D01*
G37*
D12*
X170180000Y-116622500D03*
D11*
G36*
X170829504Y-118886204D02*
X170853773Y-118889804D01*
X170877571Y-118895765D01*
X170900671Y-118904030D01*
X170922849Y-118914520D01*
X170943893Y-118927133D01*
X170963598Y-118941747D01*
X170981777Y-118958223D01*
X170998253Y-118976402D01*
X171012867Y-118996107D01*
X171025480Y-119017151D01*
X171035970Y-119039329D01*
X171044235Y-119062429D01*
X171050196Y-119086227D01*
X171053796Y-119110496D01*
X171055000Y-119135000D01*
X171055000Y-120060000D01*
X171053796Y-120084504D01*
X171050196Y-120108773D01*
X171044235Y-120132571D01*
X171035970Y-120155671D01*
X171025480Y-120177849D01*
X171012867Y-120198893D01*
X170998253Y-120218598D01*
X170981777Y-120236777D01*
X170963598Y-120253253D01*
X170943893Y-120267867D01*
X170922849Y-120280480D01*
X170900671Y-120290970D01*
X170877571Y-120299235D01*
X170853773Y-120305196D01*
X170829504Y-120308796D01*
X170805000Y-120310000D01*
X169555000Y-120310000D01*
X169530496Y-120308796D01*
X169506227Y-120305196D01*
X169482429Y-120299235D01*
X169459329Y-120290970D01*
X169437151Y-120280480D01*
X169416107Y-120267867D01*
X169396402Y-120253253D01*
X169378223Y-120236777D01*
X169361747Y-120218598D01*
X169347133Y-120198893D01*
X169334520Y-120177849D01*
X169324030Y-120155671D01*
X169315765Y-120132571D01*
X169309804Y-120108773D01*
X169306204Y-120084504D01*
X169305000Y-120060000D01*
X169305000Y-119135000D01*
X169306204Y-119110496D01*
X169309804Y-119086227D01*
X169315765Y-119062429D01*
X169324030Y-119039329D01*
X169334520Y-119017151D01*
X169347133Y-118996107D01*
X169361747Y-118976402D01*
X169378223Y-118958223D01*
X169396402Y-118941747D01*
X169416107Y-118927133D01*
X169437151Y-118914520D01*
X169459329Y-118904030D01*
X169482429Y-118895765D01*
X169506227Y-118889804D01*
X169530496Y-118886204D01*
X169555000Y-118885000D01*
X170805000Y-118885000D01*
X170829504Y-118886204D01*
X170829504Y-118886204D01*
G37*
D12*
X170180000Y-119597500D03*
D11*
G36*
X162829504Y-123586204D02*
X162853773Y-123589804D01*
X162877571Y-123595765D01*
X162900671Y-123604030D01*
X162922849Y-123614520D01*
X162943893Y-123627133D01*
X162963598Y-123641747D01*
X162981777Y-123658223D01*
X162998253Y-123676402D01*
X163012867Y-123696107D01*
X163025480Y-123717151D01*
X163035970Y-123739329D01*
X163044235Y-123762429D01*
X163050196Y-123786227D01*
X163053796Y-123810496D01*
X163055000Y-123835000D01*
X163055000Y-125085000D01*
X163053796Y-125109504D01*
X163050196Y-125133773D01*
X163044235Y-125157571D01*
X163035970Y-125180671D01*
X163025480Y-125202849D01*
X163012867Y-125223893D01*
X162998253Y-125243598D01*
X162981777Y-125261777D01*
X162963598Y-125278253D01*
X162943893Y-125292867D01*
X162922849Y-125305480D01*
X162900671Y-125315970D01*
X162877571Y-125324235D01*
X162853773Y-125330196D01*
X162829504Y-125333796D01*
X162805000Y-125335000D01*
X161880000Y-125335000D01*
X161855496Y-125333796D01*
X161831227Y-125330196D01*
X161807429Y-125324235D01*
X161784329Y-125315970D01*
X161762151Y-125305480D01*
X161741107Y-125292867D01*
X161721402Y-125278253D01*
X161703223Y-125261777D01*
X161686747Y-125243598D01*
X161672133Y-125223893D01*
X161659520Y-125202849D01*
X161649030Y-125180671D01*
X161640765Y-125157571D01*
X161634804Y-125133773D01*
X161631204Y-125109504D01*
X161630000Y-125085000D01*
X161630000Y-123835000D01*
X161631204Y-123810496D01*
X161634804Y-123786227D01*
X161640765Y-123762429D01*
X161649030Y-123739329D01*
X161659520Y-123717151D01*
X161672133Y-123696107D01*
X161686747Y-123676402D01*
X161703223Y-123658223D01*
X161721402Y-123641747D01*
X161741107Y-123627133D01*
X161762151Y-123614520D01*
X161784329Y-123604030D01*
X161807429Y-123595765D01*
X161831227Y-123589804D01*
X161855496Y-123586204D01*
X161880000Y-123585000D01*
X162805000Y-123585000D01*
X162829504Y-123586204D01*
X162829504Y-123586204D01*
G37*
D12*
X162342500Y-124460000D03*
D11*
G36*
X165804504Y-123586204D02*
X165828773Y-123589804D01*
X165852571Y-123595765D01*
X165875671Y-123604030D01*
X165897849Y-123614520D01*
X165918893Y-123627133D01*
X165938598Y-123641747D01*
X165956777Y-123658223D01*
X165973253Y-123676402D01*
X165987867Y-123696107D01*
X166000480Y-123717151D01*
X166010970Y-123739329D01*
X166019235Y-123762429D01*
X166025196Y-123786227D01*
X166028796Y-123810496D01*
X166030000Y-123835000D01*
X166030000Y-125085000D01*
X166028796Y-125109504D01*
X166025196Y-125133773D01*
X166019235Y-125157571D01*
X166010970Y-125180671D01*
X166000480Y-125202849D01*
X165987867Y-125223893D01*
X165973253Y-125243598D01*
X165956777Y-125261777D01*
X165938598Y-125278253D01*
X165918893Y-125292867D01*
X165897849Y-125305480D01*
X165875671Y-125315970D01*
X165852571Y-125324235D01*
X165828773Y-125330196D01*
X165804504Y-125333796D01*
X165780000Y-125335000D01*
X164855000Y-125335000D01*
X164830496Y-125333796D01*
X164806227Y-125330196D01*
X164782429Y-125324235D01*
X164759329Y-125315970D01*
X164737151Y-125305480D01*
X164716107Y-125292867D01*
X164696402Y-125278253D01*
X164678223Y-125261777D01*
X164661747Y-125243598D01*
X164647133Y-125223893D01*
X164634520Y-125202849D01*
X164624030Y-125180671D01*
X164615765Y-125157571D01*
X164609804Y-125133773D01*
X164606204Y-125109504D01*
X164605000Y-125085000D01*
X164605000Y-123835000D01*
X164606204Y-123810496D01*
X164609804Y-123786227D01*
X164615765Y-123762429D01*
X164624030Y-123739329D01*
X164634520Y-123717151D01*
X164647133Y-123696107D01*
X164661747Y-123676402D01*
X164678223Y-123658223D01*
X164696402Y-123641747D01*
X164716107Y-123627133D01*
X164737151Y-123614520D01*
X164759329Y-123604030D01*
X164782429Y-123595765D01*
X164806227Y-123589804D01*
X164830496Y-123586204D01*
X164855000Y-123585000D01*
X165780000Y-123585000D01*
X165804504Y-123586204D01*
X165804504Y-123586204D01*
G37*
D12*
X165317500Y-124460000D03*
D11*
G36*
X189879504Y-86083704D02*
X189903773Y-86087304D01*
X189927571Y-86093265D01*
X189950671Y-86101530D01*
X189972849Y-86112020D01*
X189993893Y-86124633D01*
X190013598Y-86139247D01*
X190031777Y-86155723D01*
X190048253Y-86173902D01*
X190062867Y-86193607D01*
X190075480Y-86214651D01*
X190085970Y-86236829D01*
X190094235Y-86259929D01*
X190100196Y-86283727D01*
X190103796Y-86307996D01*
X190105000Y-86332500D01*
X190105000Y-87257500D01*
X190103796Y-87282004D01*
X190100196Y-87306273D01*
X190094235Y-87330071D01*
X190085970Y-87353171D01*
X190075480Y-87375349D01*
X190062867Y-87396393D01*
X190048253Y-87416098D01*
X190031777Y-87434277D01*
X190013598Y-87450753D01*
X189993893Y-87465367D01*
X189972849Y-87477980D01*
X189950671Y-87488470D01*
X189927571Y-87496735D01*
X189903773Y-87502696D01*
X189879504Y-87506296D01*
X189855000Y-87507500D01*
X188605000Y-87507500D01*
X188580496Y-87506296D01*
X188556227Y-87502696D01*
X188532429Y-87496735D01*
X188509329Y-87488470D01*
X188487151Y-87477980D01*
X188466107Y-87465367D01*
X188446402Y-87450753D01*
X188428223Y-87434277D01*
X188411747Y-87416098D01*
X188397133Y-87396393D01*
X188384520Y-87375349D01*
X188374030Y-87353171D01*
X188365765Y-87330071D01*
X188359804Y-87306273D01*
X188356204Y-87282004D01*
X188355000Y-87257500D01*
X188355000Y-86332500D01*
X188356204Y-86307996D01*
X188359804Y-86283727D01*
X188365765Y-86259929D01*
X188374030Y-86236829D01*
X188384520Y-86214651D01*
X188397133Y-86193607D01*
X188411747Y-86173902D01*
X188428223Y-86155723D01*
X188446402Y-86139247D01*
X188466107Y-86124633D01*
X188487151Y-86112020D01*
X188509329Y-86101530D01*
X188532429Y-86093265D01*
X188556227Y-86087304D01*
X188580496Y-86083704D01*
X188605000Y-86082500D01*
X189855000Y-86082500D01*
X189879504Y-86083704D01*
X189879504Y-86083704D01*
G37*
D12*
X189230000Y-86795000D03*
D11*
G36*
X189879504Y-83108704D02*
X189903773Y-83112304D01*
X189927571Y-83118265D01*
X189950671Y-83126530D01*
X189972849Y-83137020D01*
X189993893Y-83149633D01*
X190013598Y-83164247D01*
X190031777Y-83180723D01*
X190048253Y-83198902D01*
X190062867Y-83218607D01*
X190075480Y-83239651D01*
X190085970Y-83261829D01*
X190094235Y-83284929D01*
X190100196Y-83308727D01*
X190103796Y-83332996D01*
X190105000Y-83357500D01*
X190105000Y-84282500D01*
X190103796Y-84307004D01*
X190100196Y-84331273D01*
X190094235Y-84355071D01*
X190085970Y-84378171D01*
X190075480Y-84400349D01*
X190062867Y-84421393D01*
X190048253Y-84441098D01*
X190031777Y-84459277D01*
X190013598Y-84475753D01*
X189993893Y-84490367D01*
X189972849Y-84502980D01*
X189950671Y-84513470D01*
X189927571Y-84521735D01*
X189903773Y-84527696D01*
X189879504Y-84531296D01*
X189855000Y-84532500D01*
X188605000Y-84532500D01*
X188580496Y-84531296D01*
X188556227Y-84527696D01*
X188532429Y-84521735D01*
X188509329Y-84513470D01*
X188487151Y-84502980D01*
X188466107Y-84490367D01*
X188446402Y-84475753D01*
X188428223Y-84459277D01*
X188411747Y-84441098D01*
X188397133Y-84421393D01*
X188384520Y-84400349D01*
X188374030Y-84378171D01*
X188365765Y-84355071D01*
X188359804Y-84331273D01*
X188356204Y-84307004D01*
X188355000Y-84282500D01*
X188355000Y-83357500D01*
X188356204Y-83332996D01*
X188359804Y-83308727D01*
X188365765Y-83284929D01*
X188374030Y-83261829D01*
X188384520Y-83239651D01*
X188397133Y-83218607D01*
X188411747Y-83198902D01*
X188428223Y-83180723D01*
X188446402Y-83164247D01*
X188466107Y-83149633D01*
X188487151Y-83137020D01*
X188509329Y-83126530D01*
X188532429Y-83118265D01*
X188556227Y-83112304D01*
X188580496Y-83108704D01*
X188605000Y-83107500D01*
X189855000Y-83107500D01*
X189879504Y-83108704D01*
X189879504Y-83108704D01*
G37*
D12*
X189230000Y-83820000D03*
D11*
G36*
X189879504Y-75488704D02*
X189903773Y-75492304D01*
X189927571Y-75498265D01*
X189950671Y-75506530D01*
X189972849Y-75517020D01*
X189993893Y-75529633D01*
X190013598Y-75544247D01*
X190031777Y-75560723D01*
X190048253Y-75578902D01*
X190062867Y-75598607D01*
X190075480Y-75619651D01*
X190085970Y-75641829D01*
X190094235Y-75664929D01*
X190100196Y-75688727D01*
X190103796Y-75712996D01*
X190105000Y-75737500D01*
X190105000Y-76662500D01*
X190103796Y-76687004D01*
X190100196Y-76711273D01*
X190094235Y-76735071D01*
X190085970Y-76758171D01*
X190075480Y-76780349D01*
X190062867Y-76801393D01*
X190048253Y-76821098D01*
X190031777Y-76839277D01*
X190013598Y-76855753D01*
X189993893Y-76870367D01*
X189972849Y-76882980D01*
X189950671Y-76893470D01*
X189927571Y-76901735D01*
X189903773Y-76907696D01*
X189879504Y-76911296D01*
X189855000Y-76912500D01*
X188605000Y-76912500D01*
X188580496Y-76911296D01*
X188556227Y-76907696D01*
X188532429Y-76901735D01*
X188509329Y-76893470D01*
X188487151Y-76882980D01*
X188466107Y-76870367D01*
X188446402Y-76855753D01*
X188428223Y-76839277D01*
X188411747Y-76821098D01*
X188397133Y-76801393D01*
X188384520Y-76780349D01*
X188374030Y-76758171D01*
X188365765Y-76735071D01*
X188359804Y-76711273D01*
X188356204Y-76687004D01*
X188355000Y-76662500D01*
X188355000Y-75737500D01*
X188356204Y-75712996D01*
X188359804Y-75688727D01*
X188365765Y-75664929D01*
X188374030Y-75641829D01*
X188384520Y-75619651D01*
X188397133Y-75598607D01*
X188411747Y-75578902D01*
X188428223Y-75560723D01*
X188446402Y-75544247D01*
X188466107Y-75529633D01*
X188487151Y-75517020D01*
X188509329Y-75506530D01*
X188532429Y-75498265D01*
X188556227Y-75492304D01*
X188580496Y-75488704D01*
X188605000Y-75487500D01*
X189855000Y-75487500D01*
X189879504Y-75488704D01*
X189879504Y-75488704D01*
G37*
D12*
X189230000Y-76200000D03*
D11*
G36*
X189879504Y-78463704D02*
X189903773Y-78467304D01*
X189927571Y-78473265D01*
X189950671Y-78481530D01*
X189972849Y-78492020D01*
X189993893Y-78504633D01*
X190013598Y-78519247D01*
X190031777Y-78535723D01*
X190048253Y-78553902D01*
X190062867Y-78573607D01*
X190075480Y-78594651D01*
X190085970Y-78616829D01*
X190094235Y-78639929D01*
X190100196Y-78663727D01*
X190103796Y-78687996D01*
X190105000Y-78712500D01*
X190105000Y-79637500D01*
X190103796Y-79662004D01*
X190100196Y-79686273D01*
X190094235Y-79710071D01*
X190085970Y-79733171D01*
X190075480Y-79755349D01*
X190062867Y-79776393D01*
X190048253Y-79796098D01*
X190031777Y-79814277D01*
X190013598Y-79830753D01*
X189993893Y-79845367D01*
X189972849Y-79857980D01*
X189950671Y-79868470D01*
X189927571Y-79876735D01*
X189903773Y-79882696D01*
X189879504Y-79886296D01*
X189855000Y-79887500D01*
X188605000Y-79887500D01*
X188580496Y-79886296D01*
X188556227Y-79882696D01*
X188532429Y-79876735D01*
X188509329Y-79868470D01*
X188487151Y-79857980D01*
X188466107Y-79845367D01*
X188446402Y-79830753D01*
X188428223Y-79814277D01*
X188411747Y-79796098D01*
X188397133Y-79776393D01*
X188384520Y-79755349D01*
X188374030Y-79733171D01*
X188365765Y-79710071D01*
X188359804Y-79686273D01*
X188356204Y-79662004D01*
X188355000Y-79637500D01*
X188355000Y-78712500D01*
X188356204Y-78687996D01*
X188359804Y-78663727D01*
X188365765Y-78639929D01*
X188374030Y-78616829D01*
X188384520Y-78594651D01*
X188397133Y-78573607D01*
X188411747Y-78553902D01*
X188428223Y-78535723D01*
X188446402Y-78519247D01*
X188466107Y-78504633D01*
X188487151Y-78492020D01*
X188509329Y-78481530D01*
X188532429Y-78473265D01*
X188556227Y-78467304D01*
X188580496Y-78463704D01*
X188605000Y-78462500D01*
X189855000Y-78462500D01*
X189879504Y-78463704D01*
X189879504Y-78463704D01*
G37*
D12*
X189230000Y-79175000D03*
D11*
G36*
X151779504Y-86083704D02*
X151803773Y-86087304D01*
X151827571Y-86093265D01*
X151850671Y-86101530D01*
X151872849Y-86112020D01*
X151893893Y-86124633D01*
X151913598Y-86139247D01*
X151931777Y-86155723D01*
X151948253Y-86173902D01*
X151962867Y-86193607D01*
X151975480Y-86214651D01*
X151985970Y-86236829D01*
X151994235Y-86259929D01*
X152000196Y-86283727D01*
X152003796Y-86307996D01*
X152005000Y-86332500D01*
X152005000Y-87257500D01*
X152003796Y-87282004D01*
X152000196Y-87306273D01*
X151994235Y-87330071D01*
X151985970Y-87353171D01*
X151975480Y-87375349D01*
X151962867Y-87396393D01*
X151948253Y-87416098D01*
X151931777Y-87434277D01*
X151913598Y-87450753D01*
X151893893Y-87465367D01*
X151872849Y-87477980D01*
X151850671Y-87488470D01*
X151827571Y-87496735D01*
X151803773Y-87502696D01*
X151779504Y-87506296D01*
X151755000Y-87507500D01*
X150505000Y-87507500D01*
X150480496Y-87506296D01*
X150456227Y-87502696D01*
X150432429Y-87496735D01*
X150409329Y-87488470D01*
X150387151Y-87477980D01*
X150366107Y-87465367D01*
X150346402Y-87450753D01*
X150328223Y-87434277D01*
X150311747Y-87416098D01*
X150297133Y-87396393D01*
X150284520Y-87375349D01*
X150274030Y-87353171D01*
X150265765Y-87330071D01*
X150259804Y-87306273D01*
X150256204Y-87282004D01*
X150255000Y-87257500D01*
X150255000Y-86332500D01*
X150256204Y-86307996D01*
X150259804Y-86283727D01*
X150265765Y-86259929D01*
X150274030Y-86236829D01*
X150284520Y-86214651D01*
X150297133Y-86193607D01*
X150311747Y-86173902D01*
X150328223Y-86155723D01*
X150346402Y-86139247D01*
X150366107Y-86124633D01*
X150387151Y-86112020D01*
X150409329Y-86101530D01*
X150432429Y-86093265D01*
X150456227Y-86087304D01*
X150480496Y-86083704D01*
X150505000Y-86082500D01*
X151755000Y-86082500D01*
X151779504Y-86083704D01*
X151779504Y-86083704D01*
G37*
D12*
X151130000Y-86795000D03*
D11*
G36*
X151779504Y-83108704D02*
X151803773Y-83112304D01*
X151827571Y-83118265D01*
X151850671Y-83126530D01*
X151872849Y-83137020D01*
X151893893Y-83149633D01*
X151913598Y-83164247D01*
X151931777Y-83180723D01*
X151948253Y-83198902D01*
X151962867Y-83218607D01*
X151975480Y-83239651D01*
X151985970Y-83261829D01*
X151994235Y-83284929D01*
X152000196Y-83308727D01*
X152003796Y-83332996D01*
X152005000Y-83357500D01*
X152005000Y-84282500D01*
X152003796Y-84307004D01*
X152000196Y-84331273D01*
X151994235Y-84355071D01*
X151985970Y-84378171D01*
X151975480Y-84400349D01*
X151962867Y-84421393D01*
X151948253Y-84441098D01*
X151931777Y-84459277D01*
X151913598Y-84475753D01*
X151893893Y-84490367D01*
X151872849Y-84502980D01*
X151850671Y-84513470D01*
X151827571Y-84521735D01*
X151803773Y-84527696D01*
X151779504Y-84531296D01*
X151755000Y-84532500D01*
X150505000Y-84532500D01*
X150480496Y-84531296D01*
X150456227Y-84527696D01*
X150432429Y-84521735D01*
X150409329Y-84513470D01*
X150387151Y-84502980D01*
X150366107Y-84490367D01*
X150346402Y-84475753D01*
X150328223Y-84459277D01*
X150311747Y-84441098D01*
X150297133Y-84421393D01*
X150284520Y-84400349D01*
X150274030Y-84378171D01*
X150265765Y-84355071D01*
X150259804Y-84331273D01*
X150256204Y-84307004D01*
X150255000Y-84282500D01*
X150255000Y-83357500D01*
X150256204Y-83332996D01*
X150259804Y-83308727D01*
X150265765Y-83284929D01*
X150274030Y-83261829D01*
X150284520Y-83239651D01*
X150297133Y-83218607D01*
X150311747Y-83198902D01*
X150328223Y-83180723D01*
X150346402Y-83164247D01*
X150366107Y-83149633D01*
X150387151Y-83137020D01*
X150409329Y-83126530D01*
X150432429Y-83118265D01*
X150456227Y-83112304D01*
X150480496Y-83108704D01*
X150505000Y-83107500D01*
X151755000Y-83107500D01*
X151779504Y-83108704D01*
X151779504Y-83108704D01*
G37*
D12*
X151130000Y-83820000D03*
D11*
G36*
X186069504Y-86083704D02*
X186093773Y-86087304D01*
X186117571Y-86093265D01*
X186140671Y-86101530D01*
X186162849Y-86112020D01*
X186183893Y-86124633D01*
X186203598Y-86139247D01*
X186221777Y-86155723D01*
X186238253Y-86173902D01*
X186252867Y-86193607D01*
X186265480Y-86214651D01*
X186275970Y-86236829D01*
X186284235Y-86259929D01*
X186290196Y-86283727D01*
X186293796Y-86307996D01*
X186295000Y-86332500D01*
X186295000Y-87257500D01*
X186293796Y-87282004D01*
X186290196Y-87306273D01*
X186284235Y-87330071D01*
X186275970Y-87353171D01*
X186265480Y-87375349D01*
X186252867Y-87396393D01*
X186238253Y-87416098D01*
X186221777Y-87434277D01*
X186203598Y-87450753D01*
X186183893Y-87465367D01*
X186162849Y-87477980D01*
X186140671Y-87488470D01*
X186117571Y-87496735D01*
X186093773Y-87502696D01*
X186069504Y-87506296D01*
X186045000Y-87507500D01*
X184795000Y-87507500D01*
X184770496Y-87506296D01*
X184746227Y-87502696D01*
X184722429Y-87496735D01*
X184699329Y-87488470D01*
X184677151Y-87477980D01*
X184656107Y-87465367D01*
X184636402Y-87450753D01*
X184618223Y-87434277D01*
X184601747Y-87416098D01*
X184587133Y-87396393D01*
X184574520Y-87375349D01*
X184564030Y-87353171D01*
X184555765Y-87330071D01*
X184549804Y-87306273D01*
X184546204Y-87282004D01*
X184545000Y-87257500D01*
X184545000Y-86332500D01*
X184546204Y-86307996D01*
X184549804Y-86283727D01*
X184555765Y-86259929D01*
X184564030Y-86236829D01*
X184574520Y-86214651D01*
X184587133Y-86193607D01*
X184601747Y-86173902D01*
X184618223Y-86155723D01*
X184636402Y-86139247D01*
X184656107Y-86124633D01*
X184677151Y-86112020D01*
X184699329Y-86101530D01*
X184722429Y-86093265D01*
X184746227Y-86087304D01*
X184770496Y-86083704D01*
X184795000Y-86082500D01*
X186045000Y-86082500D01*
X186069504Y-86083704D01*
X186069504Y-86083704D01*
G37*
D12*
X185420000Y-86795000D03*
D11*
G36*
X186069504Y-83108704D02*
X186093773Y-83112304D01*
X186117571Y-83118265D01*
X186140671Y-83126530D01*
X186162849Y-83137020D01*
X186183893Y-83149633D01*
X186203598Y-83164247D01*
X186221777Y-83180723D01*
X186238253Y-83198902D01*
X186252867Y-83218607D01*
X186265480Y-83239651D01*
X186275970Y-83261829D01*
X186284235Y-83284929D01*
X186290196Y-83308727D01*
X186293796Y-83332996D01*
X186295000Y-83357500D01*
X186295000Y-84282500D01*
X186293796Y-84307004D01*
X186290196Y-84331273D01*
X186284235Y-84355071D01*
X186275970Y-84378171D01*
X186265480Y-84400349D01*
X186252867Y-84421393D01*
X186238253Y-84441098D01*
X186221777Y-84459277D01*
X186203598Y-84475753D01*
X186183893Y-84490367D01*
X186162849Y-84502980D01*
X186140671Y-84513470D01*
X186117571Y-84521735D01*
X186093773Y-84527696D01*
X186069504Y-84531296D01*
X186045000Y-84532500D01*
X184795000Y-84532500D01*
X184770496Y-84531296D01*
X184746227Y-84527696D01*
X184722429Y-84521735D01*
X184699329Y-84513470D01*
X184677151Y-84502980D01*
X184656107Y-84490367D01*
X184636402Y-84475753D01*
X184618223Y-84459277D01*
X184601747Y-84441098D01*
X184587133Y-84421393D01*
X184574520Y-84400349D01*
X184564030Y-84378171D01*
X184555765Y-84355071D01*
X184549804Y-84331273D01*
X184546204Y-84307004D01*
X184545000Y-84282500D01*
X184545000Y-83357500D01*
X184546204Y-83332996D01*
X184549804Y-83308727D01*
X184555765Y-83284929D01*
X184564030Y-83261829D01*
X184574520Y-83239651D01*
X184587133Y-83218607D01*
X184601747Y-83198902D01*
X184618223Y-83180723D01*
X184636402Y-83164247D01*
X184656107Y-83149633D01*
X184677151Y-83137020D01*
X184699329Y-83126530D01*
X184722429Y-83118265D01*
X184746227Y-83112304D01*
X184770496Y-83108704D01*
X184795000Y-83107500D01*
X186045000Y-83107500D01*
X186069504Y-83108704D01*
X186069504Y-83108704D01*
G37*
D12*
X185420000Y-83820000D03*
D11*
G36*
X186069504Y-75488704D02*
X186093773Y-75492304D01*
X186117571Y-75498265D01*
X186140671Y-75506530D01*
X186162849Y-75517020D01*
X186183893Y-75529633D01*
X186203598Y-75544247D01*
X186221777Y-75560723D01*
X186238253Y-75578902D01*
X186252867Y-75598607D01*
X186265480Y-75619651D01*
X186275970Y-75641829D01*
X186284235Y-75664929D01*
X186290196Y-75688727D01*
X186293796Y-75712996D01*
X186295000Y-75737500D01*
X186295000Y-76662500D01*
X186293796Y-76687004D01*
X186290196Y-76711273D01*
X186284235Y-76735071D01*
X186275970Y-76758171D01*
X186265480Y-76780349D01*
X186252867Y-76801393D01*
X186238253Y-76821098D01*
X186221777Y-76839277D01*
X186203598Y-76855753D01*
X186183893Y-76870367D01*
X186162849Y-76882980D01*
X186140671Y-76893470D01*
X186117571Y-76901735D01*
X186093773Y-76907696D01*
X186069504Y-76911296D01*
X186045000Y-76912500D01*
X184795000Y-76912500D01*
X184770496Y-76911296D01*
X184746227Y-76907696D01*
X184722429Y-76901735D01*
X184699329Y-76893470D01*
X184677151Y-76882980D01*
X184656107Y-76870367D01*
X184636402Y-76855753D01*
X184618223Y-76839277D01*
X184601747Y-76821098D01*
X184587133Y-76801393D01*
X184574520Y-76780349D01*
X184564030Y-76758171D01*
X184555765Y-76735071D01*
X184549804Y-76711273D01*
X184546204Y-76687004D01*
X184545000Y-76662500D01*
X184545000Y-75737500D01*
X184546204Y-75712996D01*
X184549804Y-75688727D01*
X184555765Y-75664929D01*
X184564030Y-75641829D01*
X184574520Y-75619651D01*
X184587133Y-75598607D01*
X184601747Y-75578902D01*
X184618223Y-75560723D01*
X184636402Y-75544247D01*
X184656107Y-75529633D01*
X184677151Y-75517020D01*
X184699329Y-75506530D01*
X184722429Y-75498265D01*
X184746227Y-75492304D01*
X184770496Y-75488704D01*
X184795000Y-75487500D01*
X186045000Y-75487500D01*
X186069504Y-75488704D01*
X186069504Y-75488704D01*
G37*
D12*
X185420000Y-76200000D03*
D11*
G36*
X186069504Y-78463704D02*
X186093773Y-78467304D01*
X186117571Y-78473265D01*
X186140671Y-78481530D01*
X186162849Y-78492020D01*
X186183893Y-78504633D01*
X186203598Y-78519247D01*
X186221777Y-78535723D01*
X186238253Y-78553902D01*
X186252867Y-78573607D01*
X186265480Y-78594651D01*
X186275970Y-78616829D01*
X186284235Y-78639929D01*
X186290196Y-78663727D01*
X186293796Y-78687996D01*
X186295000Y-78712500D01*
X186295000Y-79637500D01*
X186293796Y-79662004D01*
X186290196Y-79686273D01*
X186284235Y-79710071D01*
X186275970Y-79733171D01*
X186265480Y-79755349D01*
X186252867Y-79776393D01*
X186238253Y-79796098D01*
X186221777Y-79814277D01*
X186203598Y-79830753D01*
X186183893Y-79845367D01*
X186162849Y-79857980D01*
X186140671Y-79868470D01*
X186117571Y-79876735D01*
X186093773Y-79882696D01*
X186069504Y-79886296D01*
X186045000Y-79887500D01*
X184795000Y-79887500D01*
X184770496Y-79886296D01*
X184746227Y-79882696D01*
X184722429Y-79876735D01*
X184699329Y-79868470D01*
X184677151Y-79857980D01*
X184656107Y-79845367D01*
X184636402Y-79830753D01*
X184618223Y-79814277D01*
X184601747Y-79796098D01*
X184587133Y-79776393D01*
X184574520Y-79755349D01*
X184564030Y-79733171D01*
X184555765Y-79710071D01*
X184549804Y-79686273D01*
X184546204Y-79662004D01*
X184545000Y-79637500D01*
X184545000Y-78712500D01*
X184546204Y-78687996D01*
X184549804Y-78663727D01*
X184555765Y-78639929D01*
X184564030Y-78616829D01*
X184574520Y-78594651D01*
X184587133Y-78573607D01*
X184601747Y-78553902D01*
X184618223Y-78535723D01*
X184636402Y-78519247D01*
X184656107Y-78504633D01*
X184677151Y-78492020D01*
X184699329Y-78481530D01*
X184722429Y-78473265D01*
X184746227Y-78467304D01*
X184770496Y-78463704D01*
X184795000Y-78462500D01*
X186045000Y-78462500D01*
X186069504Y-78463704D01*
X186069504Y-78463704D01*
G37*
D12*
X185420000Y-79175000D03*
D11*
G36*
X155589504Y-83108704D02*
X155613773Y-83112304D01*
X155637571Y-83118265D01*
X155660671Y-83126530D01*
X155682849Y-83137020D01*
X155703893Y-83149633D01*
X155723598Y-83164247D01*
X155741777Y-83180723D01*
X155758253Y-83198902D01*
X155772867Y-83218607D01*
X155785480Y-83239651D01*
X155795970Y-83261829D01*
X155804235Y-83284929D01*
X155810196Y-83308727D01*
X155813796Y-83332996D01*
X155815000Y-83357500D01*
X155815000Y-84282500D01*
X155813796Y-84307004D01*
X155810196Y-84331273D01*
X155804235Y-84355071D01*
X155795970Y-84378171D01*
X155785480Y-84400349D01*
X155772867Y-84421393D01*
X155758253Y-84441098D01*
X155741777Y-84459277D01*
X155723598Y-84475753D01*
X155703893Y-84490367D01*
X155682849Y-84502980D01*
X155660671Y-84513470D01*
X155637571Y-84521735D01*
X155613773Y-84527696D01*
X155589504Y-84531296D01*
X155565000Y-84532500D01*
X154315000Y-84532500D01*
X154290496Y-84531296D01*
X154266227Y-84527696D01*
X154242429Y-84521735D01*
X154219329Y-84513470D01*
X154197151Y-84502980D01*
X154176107Y-84490367D01*
X154156402Y-84475753D01*
X154138223Y-84459277D01*
X154121747Y-84441098D01*
X154107133Y-84421393D01*
X154094520Y-84400349D01*
X154084030Y-84378171D01*
X154075765Y-84355071D01*
X154069804Y-84331273D01*
X154066204Y-84307004D01*
X154065000Y-84282500D01*
X154065000Y-83357500D01*
X154066204Y-83332996D01*
X154069804Y-83308727D01*
X154075765Y-83284929D01*
X154084030Y-83261829D01*
X154094520Y-83239651D01*
X154107133Y-83218607D01*
X154121747Y-83198902D01*
X154138223Y-83180723D01*
X154156402Y-83164247D01*
X154176107Y-83149633D01*
X154197151Y-83137020D01*
X154219329Y-83126530D01*
X154242429Y-83118265D01*
X154266227Y-83112304D01*
X154290496Y-83108704D01*
X154315000Y-83107500D01*
X155565000Y-83107500D01*
X155589504Y-83108704D01*
X155589504Y-83108704D01*
G37*
D12*
X154940000Y-83820000D03*
D11*
G36*
X155589504Y-86083704D02*
X155613773Y-86087304D01*
X155637571Y-86093265D01*
X155660671Y-86101530D01*
X155682849Y-86112020D01*
X155703893Y-86124633D01*
X155723598Y-86139247D01*
X155741777Y-86155723D01*
X155758253Y-86173902D01*
X155772867Y-86193607D01*
X155785480Y-86214651D01*
X155795970Y-86236829D01*
X155804235Y-86259929D01*
X155810196Y-86283727D01*
X155813796Y-86307996D01*
X155815000Y-86332500D01*
X155815000Y-87257500D01*
X155813796Y-87282004D01*
X155810196Y-87306273D01*
X155804235Y-87330071D01*
X155795970Y-87353171D01*
X155785480Y-87375349D01*
X155772867Y-87396393D01*
X155758253Y-87416098D01*
X155741777Y-87434277D01*
X155723598Y-87450753D01*
X155703893Y-87465367D01*
X155682849Y-87477980D01*
X155660671Y-87488470D01*
X155637571Y-87496735D01*
X155613773Y-87502696D01*
X155589504Y-87506296D01*
X155565000Y-87507500D01*
X154315000Y-87507500D01*
X154290496Y-87506296D01*
X154266227Y-87502696D01*
X154242429Y-87496735D01*
X154219329Y-87488470D01*
X154197151Y-87477980D01*
X154176107Y-87465367D01*
X154156402Y-87450753D01*
X154138223Y-87434277D01*
X154121747Y-87416098D01*
X154107133Y-87396393D01*
X154094520Y-87375349D01*
X154084030Y-87353171D01*
X154075765Y-87330071D01*
X154069804Y-87306273D01*
X154066204Y-87282004D01*
X154065000Y-87257500D01*
X154065000Y-86332500D01*
X154066204Y-86307996D01*
X154069804Y-86283727D01*
X154075765Y-86259929D01*
X154084030Y-86236829D01*
X154094520Y-86214651D01*
X154107133Y-86193607D01*
X154121747Y-86173902D01*
X154138223Y-86155723D01*
X154156402Y-86139247D01*
X154176107Y-86124633D01*
X154197151Y-86112020D01*
X154219329Y-86101530D01*
X154242429Y-86093265D01*
X154266227Y-86087304D01*
X154290496Y-86083704D01*
X154315000Y-86082500D01*
X155565000Y-86082500D01*
X155589504Y-86083704D01*
X155589504Y-86083704D01*
G37*
D12*
X154940000Y-86795000D03*
D11*
G36*
X155589504Y-93703704D02*
X155613773Y-93707304D01*
X155637571Y-93713265D01*
X155660671Y-93721530D01*
X155682849Y-93732020D01*
X155703893Y-93744633D01*
X155723598Y-93759247D01*
X155741777Y-93775723D01*
X155758253Y-93793902D01*
X155772867Y-93813607D01*
X155785480Y-93834651D01*
X155795970Y-93856829D01*
X155804235Y-93879929D01*
X155810196Y-93903727D01*
X155813796Y-93927996D01*
X155815000Y-93952500D01*
X155815000Y-94877500D01*
X155813796Y-94902004D01*
X155810196Y-94926273D01*
X155804235Y-94950071D01*
X155795970Y-94973171D01*
X155785480Y-94995349D01*
X155772867Y-95016393D01*
X155758253Y-95036098D01*
X155741777Y-95054277D01*
X155723598Y-95070753D01*
X155703893Y-95085367D01*
X155682849Y-95097980D01*
X155660671Y-95108470D01*
X155637571Y-95116735D01*
X155613773Y-95122696D01*
X155589504Y-95126296D01*
X155565000Y-95127500D01*
X154315000Y-95127500D01*
X154290496Y-95126296D01*
X154266227Y-95122696D01*
X154242429Y-95116735D01*
X154219329Y-95108470D01*
X154197151Y-95097980D01*
X154176107Y-95085367D01*
X154156402Y-95070753D01*
X154138223Y-95054277D01*
X154121747Y-95036098D01*
X154107133Y-95016393D01*
X154094520Y-94995349D01*
X154084030Y-94973171D01*
X154075765Y-94950071D01*
X154069804Y-94926273D01*
X154066204Y-94902004D01*
X154065000Y-94877500D01*
X154065000Y-93952500D01*
X154066204Y-93927996D01*
X154069804Y-93903727D01*
X154075765Y-93879929D01*
X154084030Y-93856829D01*
X154094520Y-93834651D01*
X154107133Y-93813607D01*
X154121747Y-93793902D01*
X154138223Y-93775723D01*
X154156402Y-93759247D01*
X154176107Y-93744633D01*
X154197151Y-93732020D01*
X154219329Y-93721530D01*
X154242429Y-93713265D01*
X154266227Y-93707304D01*
X154290496Y-93703704D01*
X154315000Y-93702500D01*
X155565000Y-93702500D01*
X155589504Y-93703704D01*
X155589504Y-93703704D01*
G37*
D12*
X154940000Y-94415000D03*
D11*
G36*
X155589504Y-90728704D02*
X155613773Y-90732304D01*
X155637571Y-90738265D01*
X155660671Y-90746530D01*
X155682849Y-90757020D01*
X155703893Y-90769633D01*
X155723598Y-90784247D01*
X155741777Y-90800723D01*
X155758253Y-90818902D01*
X155772867Y-90838607D01*
X155785480Y-90859651D01*
X155795970Y-90881829D01*
X155804235Y-90904929D01*
X155810196Y-90928727D01*
X155813796Y-90952996D01*
X155815000Y-90977500D01*
X155815000Y-91902500D01*
X155813796Y-91927004D01*
X155810196Y-91951273D01*
X155804235Y-91975071D01*
X155795970Y-91998171D01*
X155785480Y-92020349D01*
X155772867Y-92041393D01*
X155758253Y-92061098D01*
X155741777Y-92079277D01*
X155723598Y-92095753D01*
X155703893Y-92110367D01*
X155682849Y-92122980D01*
X155660671Y-92133470D01*
X155637571Y-92141735D01*
X155613773Y-92147696D01*
X155589504Y-92151296D01*
X155565000Y-92152500D01*
X154315000Y-92152500D01*
X154290496Y-92151296D01*
X154266227Y-92147696D01*
X154242429Y-92141735D01*
X154219329Y-92133470D01*
X154197151Y-92122980D01*
X154176107Y-92110367D01*
X154156402Y-92095753D01*
X154138223Y-92079277D01*
X154121747Y-92061098D01*
X154107133Y-92041393D01*
X154094520Y-92020349D01*
X154084030Y-91998171D01*
X154075765Y-91975071D01*
X154069804Y-91951273D01*
X154066204Y-91927004D01*
X154065000Y-91902500D01*
X154065000Y-90977500D01*
X154066204Y-90952996D01*
X154069804Y-90928727D01*
X154075765Y-90904929D01*
X154084030Y-90881829D01*
X154094520Y-90859651D01*
X154107133Y-90838607D01*
X154121747Y-90818902D01*
X154138223Y-90800723D01*
X154156402Y-90784247D01*
X154176107Y-90769633D01*
X154197151Y-90757020D01*
X154219329Y-90746530D01*
X154242429Y-90738265D01*
X154266227Y-90732304D01*
X154290496Y-90728704D01*
X154315000Y-90727500D01*
X155565000Y-90727500D01*
X155589504Y-90728704D01*
X155589504Y-90728704D01*
G37*
D12*
X154940000Y-91440000D03*
D23*
X170180000Y-124165000D02*
X170180000Y-127635000D01*
D24*
X187445000Y-128905000D02*
X187510000Y-128840000D01*
D23*
X154940000Y-94415000D02*
X157480000Y-91875000D01*
X157480000Y-89335000D02*
X154940000Y-86795000D01*
X157480000Y-91875000D02*
X157480000Y-89335000D01*
X169530000Y-122215000D02*
X165100000Y-117785000D01*
X165100000Y-114300000D02*
X162560000Y-111760000D01*
X165100000Y-117785000D02*
X165100000Y-114300000D01*
X154940000Y-104140000D02*
X154940000Y-94415000D01*
X162560000Y-111760000D02*
X154940000Y-104140000D01*
X177800000Y-68580000D02*
X181610000Y-68580000D01*
X185420000Y-72390000D02*
X185420000Y-76200000D01*
X181610000Y-68580000D02*
X185420000Y-72390000D01*
D25*
X177555000Y-124460000D02*
X190950000Y-124460000D01*
X175505000Y-124460000D02*
X172720000Y-124460000D01*
X172720000Y-124460000D02*
X171958000Y-124460000D01*
D26*
X171663000Y-124165000D02*
X171958000Y-124460000D01*
X170830000Y-124165000D02*
X171663000Y-124165000D01*
D25*
X170180000Y-57970000D02*
X170180000Y-117085000D01*
X170180000Y-119135000D02*
X170180000Y-120930060D01*
D26*
X170180000Y-122215000D02*
X170180000Y-121666000D01*
D25*
X149410000Y-124460000D02*
X162805000Y-124460000D01*
X164855000Y-124460000D02*
X167640000Y-124460000D01*
X167640000Y-124460000D02*
X168402000Y-124460000D01*
D26*
X168697000Y-124165000D02*
X168402000Y-124460000D01*
X169530000Y-124165000D02*
X168697000Y-124165000D01*
D23*
X190505010Y-77475010D02*
X191770000Y-78740000D01*
X189230000Y-76200000D02*
X190505010Y-77475010D01*
X191770000Y-84255000D02*
X191770000Y-83820000D01*
X189230000Y-86795000D02*
X191770000Y-84255000D01*
X191770000Y-78740000D02*
X191770000Y-83820000D01*
X170830000Y-122215000D02*
X175260000Y-117785000D01*
X175260000Y-109220000D02*
X177800000Y-106680000D01*
X175260000Y-117785000D02*
X175260000Y-109220000D01*
X189230000Y-95250000D02*
X189230000Y-86795000D01*
X177800000Y-106680000D02*
X189230000Y-95250000D01*
X148590000Y-76200000D02*
X149860000Y-76200000D01*
X150358653Y-90668653D02*
X151130000Y-91440000D01*
X149860000Y-76200000D02*
X151130000Y-77470000D01*
X151130000Y-77470000D02*
X151130000Y-80010000D01*
X151130000Y-80010000D02*
X148590000Y-82550000D01*
X148590000Y-82550000D02*
X148590000Y-88900000D01*
X148590000Y-88900000D02*
X150358653Y-90668653D01*
X152400000Y-82550000D02*
X151130000Y-83820000D01*
X152400000Y-76320000D02*
X152400000Y-82550000D01*
X148590000Y-73660000D02*
X149740000Y-73660000D01*
X149740000Y-73660000D02*
X152400000Y-76320000D01*
X189230000Y-83820000D02*
X185420000Y-83820000D01*
X185420000Y-79175000D02*
X189230000Y-79175000D01*
X154105000Y-83820000D02*
X154940000Y-83820000D01*
X151130000Y-86795000D02*
X154105000Y-83820000D01*
X154105000Y-91440000D02*
X154940000Y-91440000D01*
X151130000Y-94415000D02*
X154105000Y-91440000D01*
G36*
X170780527Y-124947725D02*
X171056801Y-125361199D01*
X171470275Y-125637473D01*
X171834891Y-125710000D01*
X174264058Y-125710000D01*
X174308748Y-125739861D01*
X174580000Y-125793816D01*
X175505000Y-125793816D01*
X175776252Y-125739861D01*
X175902681Y-125655384D01*
X175992725Y-125637473D01*
X176406199Y-125361199D01*
X176530000Y-125175917D01*
X176653801Y-125361199D01*
X177067275Y-125637473D01*
X177157319Y-125655384D01*
X177283748Y-125739861D01*
X177555000Y-125793816D01*
X178480000Y-125793816D01*
X178751252Y-125739861D01*
X178795942Y-125710000D01*
X187972070Y-125710000D01*
X187986109Y-125780581D01*
X188085568Y-125929432D01*
X188234419Y-126028891D01*
X188410000Y-126063816D01*
X193490000Y-126063816D01*
X193665581Y-126028891D01*
X193760001Y-125965802D01*
X193760001Y-127029624D01*
X193620884Y-126972000D01*
X191218500Y-126972000D01*
X191054000Y-127136500D01*
X191054000Y-128736000D01*
X191074000Y-128736000D01*
X191074000Y-128944000D01*
X191054000Y-128944000D01*
X191054000Y-128964000D01*
X190846000Y-128964000D01*
X190846000Y-128944000D01*
X190826000Y-128944000D01*
X190826000Y-128736000D01*
X190846000Y-128736000D01*
X190846000Y-127136500D01*
X190681500Y-126972000D01*
X188279116Y-126972000D01*
X188037273Y-127072174D01*
X187852175Y-127257273D01*
X187752000Y-127499115D01*
X187752000Y-127712786D01*
X187679844Y-127687050D01*
X187225701Y-127709817D01*
X186911870Y-127839809D01*
X186879632Y-128062554D01*
X186990763Y-128173685D01*
X186927175Y-128237273D01*
X186878267Y-128355345D01*
X186732554Y-128209632D01*
X186509809Y-128241870D01*
X186357050Y-128670156D01*
X186379817Y-129124299D01*
X186509809Y-129438130D01*
X186732554Y-129470368D01*
X186878267Y-129324655D01*
X186927175Y-129442727D01*
X186990763Y-129506315D01*
X186879632Y-129617446D01*
X186911870Y-129840191D01*
X187340156Y-129992950D01*
X187752000Y-129972304D01*
X187752000Y-130180885D01*
X187784771Y-130260000D01*
X152575229Y-130260000D01*
X152608000Y-130180885D01*
X152608000Y-129967214D01*
X152680156Y-129992950D01*
X153134299Y-129970183D01*
X153448130Y-129840191D01*
X153480368Y-129617446D01*
X153369237Y-129506315D01*
X153432825Y-129442727D01*
X153481733Y-129324655D01*
X153627446Y-129470368D01*
X153850191Y-129438130D01*
X154002950Y-129009844D01*
X153980183Y-128555701D01*
X153850191Y-128241870D01*
X153627446Y-128209632D01*
X153481733Y-128355345D01*
X153432825Y-128237273D01*
X153369237Y-128173685D01*
X153480368Y-128062554D01*
X153448130Y-127839809D01*
X153019844Y-127687050D01*
X152608000Y-127707696D01*
X152608000Y-127499115D01*
X152507825Y-127257273D01*
X152322727Y-127072174D01*
X152080884Y-126972000D01*
X149678500Y-126972000D01*
X149514000Y-127136500D01*
X149514000Y-128736000D01*
X149534000Y-128736000D01*
X149534000Y-128944000D01*
X149514000Y-128944000D01*
X149514000Y-128964000D01*
X149306000Y-128964000D01*
X149306000Y-128944000D01*
X149286000Y-128944000D01*
X149286000Y-128736000D01*
X149306000Y-128736000D01*
X149306000Y-127136500D01*
X149141500Y-126972000D01*
X146739116Y-126972000D01*
X146600000Y-127029623D01*
X146600000Y-125965802D01*
X146694419Y-126028891D01*
X146870000Y-126063816D01*
X151950000Y-126063816D01*
X152125581Y-126028891D01*
X152274432Y-125929432D01*
X152373891Y-125780581D01*
X152387930Y-125710000D01*
X161564058Y-125710000D01*
X161608748Y-125739861D01*
X161880000Y-125793816D01*
X162805000Y-125793816D01*
X163076252Y-125739861D01*
X163202681Y-125655384D01*
X163292725Y-125637473D01*
X163706199Y-125361199D01*
X163830000Y-125175917D01*
X163953801Y-125361199D01*
X164367275Y-125637473D01*
X164457319Y-125655384D01*
X164583748Y-125739861D01*
X164855000Y-125793816D01*
X165780000Y-125793816D01*
X166051252Y-125739861D01*
X166095942Y-125710000D01*
X168525109Y-125710000D01*
X168889725Y-125637473D01*
X169303199Y-125361199D01*
X169579473Y-124947725D01*
X169581050Y-124939799D01*
X169723262Y-125034822D01*
X169980000Y-125085890D01*
X170380000Y-125085890D01*
X170636738Y-125034822D01*
X170778950Y-124939799D01*
X170780527Y-124947725D01*
X170780527Y-124947725D01*
G37*
X170780527Y-124947725D02*
X171056801Y-125361199D01*
X171470275Y-125637473D01*
X171834891Y-125710000D01*
X174264058Y-125710000D01*
X174308748Y-125739861D01*
X174580000Y-125793816D01*
X175505000Y-125793816D01*
X175776252Y-125739861D01*
X175902681Y-125655384D01*
X175992725Y-125637473D01*
X176406199Y-125361199D01*
X176530000Y-125175917D01*
X176653801Y-125361199D01*
X177067275Y-125637473D01*
X177157319Y-125655384D01*
X177283748Y-125739861D01*
X177555000Y-125793816D01*
X178480000Y-125793816D01*
X178751252Y-125739861D01*
X178795942Y-125710000D01*
X187972070Y-125710000D01*
X187986109Y-125780581D01*
X188085568Y-125929432D01*
X188234419Y-126028891D01*
X188410000Y-126063816D01*
X193490000Y-126063816D01*
X193665581Y-126028891D01*
X193760001Y-125965802D01*
X193760001Y-127029624D01*
X193620884Y-126972000D01*
X191218500Y-126972000D01*
X191054000Y-127136500D01*
X191054000Y-128736000D01*
X191074000Y-128736000D01*
X191074000Y-128944000D01*
X191054000Y-128944000D01*
X191054000Y-128964000D01*
X190846000Y-128964000D01*
X190846000Y-128944000D01*
X190826000Y-128944000D01*
X190826000Y-128736000D01*
X190846000Y-128736000D01*
X190846000Y-127136500D01*
X190681500Y-126972000D01*
X188279116Y-126972000D01*
X188037273Y-127072174D01*
X187852175Y-127257273D01*
X187752000Y-127499115D01*
X187752000Y-127712786D01*
X187679844Y-127687050D01*
X187225701Y-127709817D01*
X186911870Y-127839809D01*
X186879632Y-128062554D01*
X186990763Y-128173685D01*
X186927175Y-128237273D01*
X186878267Y-128355345D01*
X186732554Y-128209632D01*
X186509809Y-128241870D01*
X186357050Y-128670156D01*
X186379817Y-129124299D01*
X186509809Y-129438130D01*
X186732554Y-129470368D01*
X186878267Y-129324655D01*
X186927175Y-129442727D01*
X186990763Y-129506315D01*
X186879632Y-129617446D01*
X186911870Y-129840191D01*
X187340156Y-129992950D01*
X187752000Y-129972304D01*
X187752000Y-130180885D01*
X187784771Y-130260000D01*
X152575229Y-130260000D01*
X152608000Y-130180885D01*
X152608000Y-129967214D01*
X152680156Y-129992950D01*
X153134299Y-129970183D01*
X153448130Y-129840191D01*
X153480368Y-129617446D01*
X153369237Y-129506315D01*
X153432825Y-129442727D01*
X153481733Y-129324655D01*
X153627446Y-129470368D01*
X153850191Y-129438130D01*
X154002950Y-129009844D01*
X153980183Y-128555701D01*
X153850191Y-128241870D01*
X153627446Y-128209632D01*
X153481733Y-128355345D01*
X153432825Y-128237273D01*
X153369237Y-128173685D01*
X153480368Y-128062554D01*
X153448130Y-127839809D01*
X153019844Y-127687050D01*
X152608000Y-127707696D01*
X152608000Y-127499115D01*
X152507825Y-127257273D01*
X152322727Y-127072174D01*
X152080884Y-126972000D01*
X149678500Y-126972000D01*
X149514000Y-127136500D01*
X149514000Y-128736000D01*
X149534000Y-128736000D01*
X149534000Y-128944000D01*
X149514000Y-128944000D01*
X149514000Y-128964000D01*
X149306000Y-128964000D01*
X149306000Y-128944000D01*
X149286000Y-128944000D01*
X149286000Y-128736000D01*
X149306000Y-128736000D01*
X149306000Y-127136500D01*
X149141500Y-126972000D01*
X146739116Y-126972000D01*
X146600000Y-127029623D01*
X146600000Y-125965802D01*
X146694419Y-126028891D01*
X146870000Y-126063816D01*
X151950000Y-126063816D01*
X152125581Y-126028891D01*
X152274432Y-125929432D01*
X152373891Y-125780581D01*
X152387930Y-125710000D01*
X161564058Y-125710000D01*
X161608748Y-125739861D01*
X161880000Y-125793816D01*
X162805000Y-125793816D01*
X163076252Y-125739861D01*
X163202681Y-125655384D01*
X163292725Y-125637473D01*
X163706199Y-125361199D01*
X163830000Y-125175917D01*
X163953801Y-125361199D01*
X164367275Y-125637473D01*
X164457319Y-125655384D01*
X164583748Y-125739861D01*
X164855000Y-125793816D01*
X165780000Y-125793816D01*
X166051252Y-125739861D01*
X166095942Y-125710000D01*
X168525109Y-125710000D01*
X168889725Y-125637473D01*
X169303199Y-125361199D01*
X169579473Y-124947725D01*
X169581050Y-124939799D01*
X169723262Y-125034822D01*
X169980000Y-125085890D01*
X170380000Y-125085890D01*
X170636738Y-125034822D01*
X170778950Y-124939799D01*
X170780527Y-124947725D01*
G36*
X163932000Y-55299116D02*
X163932000Y-57701500D01*
X164096500Y-57866000D01*
X165696000Y-57866000D01*
X165696000Y-57846000D01*
X165904000Y-57846000D01*
X165904000Y-57866000D01*
X167503500Y-57866000D01*
X167668000Y-57701500D01*
X167668000Y-55299116D01*
X167610377Y-55160000D01*
X168674198Y-55160000D01*
X168611109Y-55254419D01*
X168576184Y-55430000D01*
X168576184Y-60510000D01*
X168611109Y-60685581D01*
X168710568Y-60834432D01*
X168859419Y-60933891D01*
X168930000Y-60947930D01*
X168930001Y-115844056D01*
X168900139Y-115888748D01*
X168846184Y-116160000D01*
X168846184Y-117085000D01*
X168900139Y-117356252D01*
X168984618Y-117482683D01*
X169002528Y-117572725D01*
X169278802Y-117986199D01*
X169464083Y-118110000D01*
X169278801Y-118233801D01*
X169002527Y-118647276D01*
X168984616Y-118737318D01*
X168900139Y-118863748D01*
X168846184Y-119135000D01*
X168846184Y-120060000D01*
X168900139Y-120331252D01*
X168930001Y-120375943D01*
X168930001Y-120766473D01*
X165700000Y-117536473D01*
X165700000Y-114359085D01*
X165711753Y-114299999D01*
X165700000Y-114240913D01*
X165700000Y-114240909D01*
X165665187Y-114065892D01*
X165532575Y-113867425D01*
X165482481Y-113833953D01*
X163806339Y-112157811D01*
X163885468Y-111760000D01*
X163784573Y-111252765D01*
X163497247Y-110822753D01*
X163067235Y-110535427D01*
X162838858Y-110490000D01*
X163067235Y-110444573D01*
X163497247Y-110157247D01*
X163784573Y-109727235D01*
X163885468Y-109220000D01*
X163784573Y-108712765D01*
X163497247Y-108282753D01*
X163067235Y-107995427D01*
X162838858Y-107950000D01*
X163067235Y-107904573D01*
X163497247Y-107617247D01*
X163784573Y-107187235D01*
X163885468Y-106680000D01*
X163784573Y-106172765D01*
X163497247Y-105742753D01*
X163067235Y-105455427D01*
X162838858Y-105410000D01*
X163067235Y-105364573D01*
X163497247Y-105077247D01*
X163784573Y-104647235D01*
X163885468Y-104140000D01*
X163784573Y-103632765D01*
X163497247Y-103202753D01*
X163067235Y-102915427D01*
X162838858Y-102870000D01*
X163067235Y-102824573D01*
X163497247Y-102537247D01*
X163784573Y-102107235D01*
X163885468Y-101600000D01*
X163784573Y-101092765D01*
X163497247Y-100662753D01*
X163067235Y-100375427D01*
X162838858Y-100330000D01*
X163067235Y-100284573D01*
X163497247Y-99997247D01*
X163784573Y-99567235D01*
X163885468Y-99060000D01*
X163784573Y-98552765D01*
X163497247Y-98122753D01*
X163067235Y-97835427D01*
X162838858Y-97790000D01*
X163067235Y-97744573D01*
X163497247Y-97457247D01*
X163784573Y-97027235D01*
X163885468Y-96520000D01*
X163784573Y-96012765D01*
X163497247Y-95582753D01*
X163067235Y-95295427D01*
X162838858Y-95250000D01*
X163067235Y-95204573D01*
X163497247Y-94917247D01*
X163784573Y-94487235D01*
X163885468Y-93980000D01*
X163784573Y-93472765D01*
X163497247Y-93042753D01*
X163067235Y-92755427D01*
X162838858Y-92710000D01*
X163067235Y-92664573D01*
X163497247Y-92377247D01*
X163784573Y-91947235D01*
X163885468Y-91440000D01*
X163784573Y-90932765D01*
X163497247Y-90502753D01*
X163067235Y-90215427D01*
X162838858Y-90170000D01*
X163067235Y-90124573D01*
X163497247Y-89837247D01*
X163784573Y-89407235D01*
X163885468Y-88900000D01*
X163784573Y-88392765D01*
X163497247Y-87962753D01*
X163067235Y-87675427D01*
X162838858Y-87630000D01*
X163067235Y-87584573D01*
X163497247Y-87297247D01*
X163784573Y-86867235D01*
X163885468Y-86360000D01*
X163784573Y-85852765D01*
X163497247Y-85422753D01*
X163067235Y-85135427D01*
X162838858Y-85090000D01*
X163067235Y-85044573D01*
X163497247Y-84757247D01*
X163784573Y-84327235D01*
X163885468Y-83820000D01*
X163784573Y-83312765D01*
X163497247Y-82882753D01*
X163067235Y-82595427D01*
X162838858Y-82550000D01*
X163067235Y-82504573D01*
X163497247Y-82217247D01*
X163784573Y-81787235D01*
X163885468Y-81280000D01*
X163784573Y-80772765D01*
X163497247Y-80342753D01*
X163067235Y-80055427D01*
X162838858Y-80010000D01*
X163067235Y-79964573D01*
X163497247Y-79677247D01*
X163784573Y-79247235D01*
X163885468Y-78740000D01*
X163784573Y-78232765D01*
X163497247Y-77802753D01*
X163067235Y-77515427D01*
X162838858Y-77470000D01*
X163067235Y-77424573D01*
X163497247Y-77137247D01*
X163784573Y-76707235D01*
X163885468Y-76200000D01*
X163784573Y-75692765D01*
X163497247Y-75262753D01*
X163067235Y-74975427D01*
X162838858Y-74930000D01*
X163067235Y-74884573D01*
X163497247Y-74597247D01*
X163784573Y-74167235D01*
X163885468Y-73660000D01*
X163784573Y-73152765D01*
X163497247Y-72722753D01*
X163067235Y-72435427D01*
X162838858Y-72390000D01*
X163067235Y-72344573D01*
X163497247Y-72057247D01*
X163784573Y-71627235D01*
X163885468Y-71120000D01*
X163784573Y-70612765D01*
X163497247Y-70182753D01*
X163067235Y-69895427D01*
X163033999Y-69888816D01*
X163410000Y-69888816D01*
X163585581Y-69853891D01*
X163734432Y-69754432D01*
X163833891Y-69605581D01*
X163868816Y-69430000D01*
X163868816Y-67730000D01*
X163833891Y-67554419D01*
X163734432Y-67405568D01*
X163585581Y-67306109D01*
X163410000Y-67271184D01*
X161710000Y-67271184D01*
X161534419Y-67306109D01*
X161385568Y-67405568D01*
X161286109Y-67554419D01*
X161251184Y-67730000D01*
X161251184Y-69430000D01*
X161286109Y-69605581D01*
X161385568Y-69754432D01*
X161534419Y-69853891D01*
X161710000Y-69888816D01*
X162086001Y-69888816D01*
X162052765Y-69895427D01*
X161622753Y-70182753D01*
X161335427Y-70612765D01*
X161234532Y-71120000D01*
X161335427Y-71627235D01*
X161622753Y-72057247D01*
X162052765Y-72344573D01*
X162281142Y-72390000D01*
X162052765Y-72435427D01*
X161622753Y-72722753D01*
X161335427Y-73152765D01*
X161234532Y-73660000D01*
X161335427Y-74167235D01*
X161622753Y-74597247D01*
X162052765Y-74884573D01*
X162281142Y-74930000D01*
X162052765Y-74975427D01*
X161622753Y-75262753D01*
X161335427Y-75692765D01*
X161234532Y-76200000D01*
X161335427Y-76707235D01*
X161622753Y-77137247D01*
X162052765Y-77424573D01*
X162281142Y-77470000D01*
X162052765Y-77515427D01*
X161622753Y-77802753D01*
X161335427Y-78232765D01*
X161234532Y-78740000D01*
X161335427Y-79247235D01*
X161622753Y-79677247D01*
X162052765Y-79964573D01*
X162281142Y-80010000D01*
X162052765Y-80055427D01*
X161622753Y-80342753D01*
X161335427Y-80772765D01*
X161234532Y-81280000D01*
X161335427Y-81787235D01*
X161622753Y-82217247D01*
X162052765Y-82504573D01*
X162281142Y-82550000D01*
X162052765Y-82595427D01*
X161622753Y-82882753D01*
X161335427Y-83312765D01*
X161234532Y-83820000D01*
X161335427Y-84327235D01*
X161622753Y-84757247D01*
X162052765Y-85044573D01*
X162281142Y-85090000D01*
X162052765Y-85135427D01*
X161622753Y-85422753D01*
X161335427Y-85852765D01*
X161234532Y-86360000D01*
X161335427Y-86867235D01*
X161622753Y-87297247D01*
X162052765Y-87584573D01*
X162281142Y-87630000D01*
X162052765Y-87675427D01*
X161622753Y-87962753D01*
X161335427Y-88392765D01*
X161234532Y-88900000D01*
X161335427Y-89407235D01*
X161622753Y-89837247D01*
X162052765Y-90124573D01*
X162281142Y-90170000D01*
X162052765Y-90215427D01*
X161622753Y-90502753D01*
X161335427Y-90932765D01*
X161234532Y-91440000D01*
X161335427Y-91947235D01*
X161622753Y-92377247D01*
X162052765Y-92664573D01*
X162281142Y-92710000D01*
X162052765Y-92755427D01*
X161622753Y-93042753D01*
X161335427Y-93472765D01*
X161234532Y-93980000D01*
X161335427Y-94487235D01*
X161622753Y-94917247D01*
X162052765Y-95204573D01*
X162281142Y-95250000D01*
X162052765Y-95295427D01*
X161622753Y-95582753D01*
X161335427Y-96012765D01*
X161234532Y-96520000D01*
X161335427Y-97027235D01*
X161622753Y-97457247D01*
X162052765Y-97744573D01*
X162281142Y-97790000D01*
X162052765Y-97835427D01*
X161622753Y-98122753D01*
X161335427Y-98552765D01*
X161234532Y-99060000D01*
X161335427Y-99567235D01*
X161622753Y-99997247D01*
X162052765Y-100284573D01*
X162281142Y-100330000D01*
X162052765Y-100375427D01*
X161622753Y-100662753D01*
X161335427Y-101092765D01*
X161234532Y-101600000D01*
X161335427Y-102107235D01*
X161622753Y-102537247D01*
X162052765Y-102824573D01*
X162281142Y-102870000D01*
X162052765Y-102915427D01*
X161622753Y-103202753D01*
X161335427Y-103632765D01*
X161234532Y-104140000D01*
X161335427Y-104647235D01*
X161622753Y-105077247D01*
X162052765Y-105364573D01*
X162281142Y-105410000D01*
X162052765Y-105455427D01*
X161622753Y-105742753D01*
X161335427Y-106172765D01*
X161234532Y-106680000D01*
X161335427Y-107187235D01*
X161622753Y-107617247D01*
X162052765Y-107904573D01*
X162281142Y-107950000D01*
X162052765Y-107995427D01*
X161622753Y-108282753D01*
X161335427Y-108712765D01*
X161234532Y-109220000D01*
X161325412Y-109676884D01*
X155540000Y-103891473D01*
X155540000Y-95586316D01*
X155565000Y-95586316D01*
X155836252Y-95532361D01*
X156066209Y-95378709D01*
X156219861Y-95148752D01*
X156273816Y-94877500D01*
X156273816Y-93952500D01*
X156270035Y-93933492D01*
X157862482Y-92341046D01*
X157912575Y-92307575D01*
X158045187Y-92109108D01*
X158080000Y-91934091D01*
X158080000Y-91934087D01*
X158091753Y-91875001D01*
X158080000Y-91815915D01*
X158080000Y-89394085D01*
X158091753Y-89334999D01*
X158080000Y-89275913D01*
X158080000Y-89275909D01*
X158045187Y-89100892D01*
X157912575Y-88902425D01*
X157862481Y-88868953D01*
X156270035Y-87276508D01*
X156273816Y-87257500D01*
X156273816Y-86332500D01*
X156219861Y-86061248D01*
X156066209Y-85831291D01*
X155836252Y-85677639D01*
X155565000Y-85623684D01*
X154315000Y-85623684D01*
X154043748Y-85677639D01*
X153813791Y-85831291D01*
X153660139Y-86061248D01*
X153606184Y-86332500D01*
X153606184Y-87257500D01*
X153660139Y-87528752D01*
X153813791Y-87758709D01*
X154043748Y-87912361D01*
X154315000Y-87966316D01*
X155262789Y-87966316D01*
X156880001Y-89583529D01*
X156880000Y-91626472D01*
X155262789Y-93243684D01*
X154315000Y-93243684D01*
X154043748Y-93297639D01*
X153813791Y-93451291D01*
X153660139Y-93681248D01*
X153606184Y-93952500D01*
X153606184Y-94877500D01*
X153660139Y-95148752D01*
X153813791Y-95378709D01*
X154043748Y-95532361D01*
X154315000Y-95586316D01*
X154340001Y-95586316D01*
X154340000Y-104080914D01*
X154328247Y-104140000D01*
X154340000Y-104199086D01*
X154340000Y-104199090D01*
X154374813Y-104374107D01*
X154507425Y-104572575D01*
X154557522Y-104606049D01*
X161313661Y-111362189D01*
X161234532Y-111760000D01*
X161335427Y-112267235D01*
X161622753Y-112697247D01*
X161982841Y-112937851D01*
X161685270Y-113071613D01*
X161281772Y-113499863D01*
X161090381Y-113961939D01*
X161220531Y-114196000D01*
X162456000Y-114196000D01*
X162456000Y-114176000D01*
X162664000Y-114176000D01*
X162664000Y-114196000D01*
X163899469Y-114196000D01*
X163988092Y-114036620D01*
X164500001Y-114548529D01*
X164500000Y-117725914D01*
X164488247Y-117785000D01*
X164500000Y-117844086D01*
X164500000Y-117844090D01*
X164534813Y-118019107D01*
X164667425Y-118217575D01*
X164717522Y-118251049D01*
X168871184Y-122404712D01*
X168871184Y-122465000D01*
X168906109Y-122640581D01*
X169005568Y-122789432D01*
X169154419Y-122888891D01*
X169330000Y-122923816D01*
X169730000Y-122923816D01*
X169855000Y-122898952D01*
X169980000Y-122923816D01*
X170380000Y-122923816D01*
X170505000Y-122898952D01*
X170630000Y-122923816D01*
X171030000Y-122923816D01*
X171205581Y-122888891D01*
X171354432Y-122789432D01*
X171453891Y-122640581D01*
X171488816Y-122465000D01*
X171488816Y-122404711D01*
X173983371Y-119910156D01*
X186357050Y-119910156D01*
X186379817Y-120364299D01*
X186509809Y-120678130D01*
X186732554Y-120710368D01*
X186878267Y-120564655D01*
X186927175Y-120682727D01*
X186990763Y-120746315D01*
X186879632Y-120857446D01*
X186911870Y-121080191D01*
X187340156Y-121232950D01*
X187752000Y-121212304D01*
X187752000Y-121420885D01*
X187852175Y-121662727D01*
X188037273Y-121847826D01*
X188279116Y-121948000D01*
X190681500Y-121948000D01*
X190846000Y-121783500D01*
X190846000Y-120184000D01*
X190826000Y-120184000D01*
X190826000Y-119976000D01*
X190846000Y-119976000D01*
X190846000Y-118376500D01*
X190681500Y-118212000D01*
X188279116Y-118212000D01*
X188037273Y-118312174D01*
X187852175Y-118497273D01*
X187752000Y-118739115D01*
X187752000Y-118952786D01*
X187679844Y-118927050D01*
X187225701Y-118949817D01*
X186911870Y-119079809D01*
X186879632Y-119302554D01*
X186990763Y-119413685D01*
X186927175Y-119477273D01*
X186878267Y-119595345D01*
X186732554Y-119449632D01*
X186509809Y-119481870D01*
X186357050Y-119910156D01*
X173983371Y-119910156D01*
X175642482Y-118251046D01*
X175692575Y-118217575D01*
X175738519Y-118148816D01*
X175761855Y-118113891D01*
X175825187Y-118019108D01*
X175860000Y-117844091D01*
X175860000Y-117844087D01*
X175871753Y-117785001D01*
X175860000Y-117725914D01*
X175860000Y-109468527D01*
X176565412Y-108763116D01*
X176474532Y-109220000D01*
X176575427Y-109727235D01*
X176862753Y-110157247D01*
X177292765Y-110444573D01*
X177521142Y-110490000D01*
X177292765Y-110535427D01*
X176862753Y-110822753D01*
X176575427Y-111252765D01*
X176474532Y-111760000D01*
X176575427Y-112267235D01*
X176862753Y-112697247D01*
X177292765Y-112984573D01*
X177521142Y-113030000D01*
X177292765Y-113075427D01*
X176862753Y-113362753D01*
X176575427Y-113792765D01*
X176474532Y-114300000D01*
X176575427Y-114807235D01*
X176862753Y-115237247D01*
X177292765Y-115524573D01*
X177326001Y-115531184D01*
X176950000Y-115531184D01*
X176774419Y-115566109D01*
X176625568Y-115665568D01*
X176526109Y-115814419D01*
X176491184Y-115990000D01*
X176491184Y-117690000D01*
X176526109Y-117865581D01*
X176625568Y-118014432D01*
X176774419Y-118113891D01*
X176950000Y-118148816D01*
X178650000Y-118148816D01*
X178825581Y-118113891D01*
X178974432Y-118014432D01*
X179073891Y-117865581D01*
X179108816Y-117690000D01*
X179108816Y-115990000D01*
X179073891Y-115814419D01*
X178974432Y-115665568D01*
X178825581Y-115566109D01*
X178650000Y-115531184D01*
X178273999Y-115531184D01*
X178307235Y-115524573D01*
X178737247Y-115237247D01*
X179024573Y-114807235D01*
X179125468Y-114300000D01*
X179024573Y-113792765D01*
X178737247Y-113362753D01*
X178307235Y-113075427D01*
X178078858Y-113030000D01*
X178307235Y-112984573D01*
X178737247Y-112697247D01*
X179024573Y-112267235D01*
X179125468Y-111760000D01*
X179024573Y-111252765D01*
X178737247Y-110822753D01*
X178307235Y-110535427D01*
X178078858Y-110490000D01*
X178307235Y-110444573D01*
X178737247Y-110157247D01*
X179024573Y-109727235D01*
X179125468Y-109220000D01*
X179024573Y-108712765D01*
X178737247Y-108282753D01*
X178307235Y-107995427D01*
X178078858Y-107950000D01*
X178307235Y-107904573D01*
X178737247Y-107617247D01*
X179024573Y-107187235D01*
X179125468Y-106680000D01*
X179046339Y-106282188D01*
X189612482Y-95716046D01*
X189662575Y-95682575D01*
X189795187Y-95484108D01*
X189830000Y-95309091D01*
X189830000Y-95309087D01*
X189841753Y-95250001D01*
X189830000Y-95190914D01*
X189830000Y-87966316D01*
X189855000Y-87966316D01*
X190126252Y-87912361D01*
X190356209Y-87758709D01*
X190509861Y-87528752D01*
X190563816Y-87257500D01*
X190563816Y-86332500D01*
X190560035Y-86313492D01*
X192152482Y-84721046D01*
X192202575Y-84687575D01*
X192335187Y-84489108D01*
X192370000Y-84314091D01*
X192370000Y-84314087D01*
X192381753Y-84255001D01*
X192370000Y-84195915D01*
X192370000Y-78799086D01*
X192381753Y-78739999D01*
X192370000Y-78680913D01*
X192370000Y-78680909D01*
X192335187Y-78505892D01*
X192202575Y-78307425D01*
X192152482Y-78273954D01*
X190971059Y-77092532D01*
X190971057Y-77092529D01*
X190560035Y-76681508D01*
X190563816Y-76662500D01*
X190563816Y-75737500D01*
X190509861Y-75466248D01*
X190356209Y-75236291D01*
X190126252Y-75082639D01*
X189855000Y-75028684D01*
X188605000Y-75028684D01*
X188333748Y-75082639D01*
X188103791Y-75236291D01*
X187950139Y-75466248D01*
X187896184Y-75737500D01*
X187896184Y-76662500D01*
X187950139Y-76933752D01*
X188103791Y-77163709D01*
X188333748Y-77317361D01*
X188605000Y-77371316D01*
X189552788Y-77371316D01*
X190122529Y-77941057D01*
X190122532Y-77941059D01*
X191170000Y-78988528D01*
X191170001Y-83760904D01*
X191170000Y-83760909D01*
X191170000Y-84006472D01*
X189552789Y-85623684D01*
X188605000Y-85623684D01*
X188333748Y-85677639D01*
X188103791Y-85831291D01*
X187950139Y-86061248D01*
X187896184Y-86332500D01*
X187896184Y-87257500D01*
X187950139Y-87528752D01*
X188103791Y-87758709D01*
X188333748Y-87912361D01*
X188605000Y-87966316D01*
X188630001Y-87966316D01*
X188630000Y-95001472D01*
X179034588Y-104596885D01*
X179125468Y-104140000D01*
X179024573Y-103632765D01*
X178737247Y-103202753D01*
X178307235Y-102915427D01*
X178078858Y-102870000D01*
X178307235Y-102824573D01*
X178737247Y-102537247D01*
X179024573Y-102107235D01*
X179125468Y-101600000D01*
X179024573Y-101092765D01*
X178737247Y-100662753D01*
X178307235Y-100375427D01*
X178078858Y-100330000D01*
X178307235Y-100284573D01*
X178737247Y-99997247D01*
X179024573Y-99567235D01*
X179125468Y-99060000D01*
X179024573Y-98552765D01*
X178737247Y-98122753D01*
X178307235Y-97835427D01*
X178078858Y-97790000D01*
X178307235Y-97744573D01*
X178737247Y-97457247D01*
X179024573Y-97027235D01*
X179125468Y-96520000D01*
X179024573Y-96012765D01*
X178737247Y-95582753D01*
X178307235Y-95295427D01*
X178078858Y-95250000D01*
X178307235Y-95204573D01*
X178737247Y-94917247D01*
X179024573Y-94487235D01*
X179125468Y-93980000D01*
X179024573Y-93472765D01*
X178737247Y-93042753D01*
X178307235Y-92755427D01*
X178078858Y-92710000D01*
X178307235Y-92664573D01*
X178737247Y-92377247D01*
X179024573Y-91947235D01*
X179125468Y-91440000D01*
X179024573Y-90932765D01*
X178737247Y-90502753D01*
X178307235Y-90215427D01*
X178078858Y-90170000D01*
X178307235Y-90124573D01*
X178737247Y-89837247D01*
X179024573Y-89407235D01*
X179125468Y-88900000D01*
X179024573Y-88392765D01*
X178737247Y-87962753D01*
X178307235Y-87675427D01*
X178078858Y-87630000D01*
X178307235Y-87584573D01*
X178737247Y-87297247D01*
X178893432Y-87063500D01*
X183887000Y-87063500D01*
X183887000Y-87638384D01*
X183987174Y-87880227D01*
X184172273Y-88065325D01*
X184414115Y-88165500D01*
X185151500Y-88165500D01*
X185316000Y-88001000D01*
X185316000Y-86899000D01*
X185524000Y-86899000D01*
X185524000Y-88001000D01*
X185688500Y-88165500D01*
X186425885Y-88165500D01*
X186667727Y-88065325D01*
X186852826Y-87880227D01*
X186953000Y-87638384D01*
X186953000Y-87063500D01*
X186788500Y-86899000D01*
X185524000Y-86899000D01*
X185316000Y-86899000D01*
X184051500Y-86899000D01*
X183887000Y-87063500D01*
X178893432Y-87063500D01*
X179024573Y-86867235D01*
X179125468Y-86360000D01*
X179044236Y-85951616D01*
X183887000Y-85951616D01*
X183887000Y-86526500D01*
X184051500Y-86691000D01*
X185316000Y-86691000D01*
X185316000Y-85589000D01*
X185524000Y-85589000D01*
X185524000Y-86691000D01*
X186788500Y-86691000D01*
X186953000Y-86526500D01*
X186953000Y-85951616D01*
X186852826Y-85709773D01*
X186667727Y-85524675D01*
X186425885Y-85424500D01*
X185688500Y-85424500D01*
X185524000Y-85589000D01*
X185316000Y-85589000D01*
X185151500Y-85424500D01*
X184414115Y-85424500D01*
X184172273Y-85524675D01*
X183987174Y-85709773D01*
X183887000Y-85951616D01*
X179044236Y-85951616D01*
X179024573Y-85852765D01*
X178737247Y-85422753D01*
X178307235Y-85135427D01*
X178078858Y-85090000D01*
X178307235Y-85044573D01*
X178737247Y-84757247D01*
X179024573Y-84327235D01*
X179125468Y-83820000D01*
X179033472Y-83357500D01*
X184086184Y-83357500D01*
X184086184Y-84282500D01*
X184140139Y-84553752D01*
X184293791Y-84783709D01*
X184523748Y-84937361D01*
X184795000Y-84991316D01*
X186045000Y-84991316D01*
X186316252Y-84937361D01*
X186546209Y-84783709D01*
X186699861Y-84553752D01*
X186726466Y-84420000D01*
X187923534Y-84420000D01*
X187950139Y-84553752D01*
X188103791Y-84783709D01*
X188333748Y-84937361D01*
X188605000Y-84991316D01*
X189855000Y-84991316D01*
X190126252Y-84937361D01*
X190356209Y-84783709D01*
X190509861Y-84553752D01*
X190563816Y-84282500D01*
X190563816Y-83357500D01*
X190509861Y-83086248D01*
X190356209Y-82856291D01*
X190126252Y-82702639D01*
X189855000Y-82648684D01*
X188605000Y-82648684D01*
X188333748Y-82702639D01*
X188103791Y-82856291D01*
X187950139Y-83086248D01*
X187923534Y-83220000D01*
X186726466Y-83220000D01*
X186699861Y-83086248D01*
X186546209Y-82856291D01*
X186316252Y-82702639D01*
X186045000Y-82648684D01*
X184795000Y-82648684D01*
X184523748Y-82702639D01*
X184293791Y-82856291D01*
X184140139Y-83086248D01*
X184086184Y-83357500D01*
X179033472Y-83357500D01*
X179024573Y-83312765D01*
X178737247Y-82882753D01*
X178307235Y-82595427D01*
X178078858Y-82550000D01*
X178307235Y-82504573D01*
X178737247Y-82217247D01*
X179024573Y-81787235D01*
X179125468Y-81280000D01*
X179024573Y-80772765D01*
X178737247Y-80342753D01*
X178307235Y-80055427D01*
X178078858Y-80010000D01*
X178307235Y-79964573D01*
X178737247Y-79677247D01*
X179024573Y-79247235D01*
X179125468Y-78740000D01*
X179119998Y-78712500D01*
X184086184Y-78712500D01*
X184086184Y-79637500D01*
X184140139Y-79908752D01*
X184293791Y-80138709D01*
X184523748Y-80292361D01*
X184795000Y-80346316D01*
X186045000Y-80346316D01*
X186316252Y-80292361D01*
X186546209Y-80138709D01*
X186699861Y-79908752D01*
X186726466Y-79775000D01*
X187923534Y-79775000D01*
X187950139Y-79908752D01*
X188103791Y-80138709D01*
X188333748Y-80292361D01*
X188605000Y-80346316D01*
X189855000Y-80346316D01*
X190126252Y-80292361D01*
X190356209Y-80138709D01*
X190509861Y-79908752D01*
X190563816Y-79637500D01*
X190563816Y-78712500D01*
X190509861Y-78441248D01*
X190356209Y-78211291D01*
X190126252Y-78057639D01*
X189855000Y-78003684D01*
X188605000Y-78003684D01*
X188333748Y-78057639D01*
X188103791Y-78211291D01*
X187950139Y-78441248D01*
X187923534Y-78575000D01*
X186726466Y-78575000D01*
X186699861Y-78441248D01*
X186546209Y-78211291D01*
X186316252Y-78057639D01*
X186045000Y-78003684D01*
X184795000Y-78003684D01*
X184523748Y-78057639D01*
X184293791Y-78211291D01*
X184140139Y-78441248D01*
X184086184Y-78712500D01*
X179119998Y-78712500D01*
X179024573Y-78232765D01*
X178737247Y-77802753D01*
X178307235Y-77515427D01*
X178078858Y-77470000D01*
X178307235Y-77424573D01*
X178737247Y-77137247D01*
X179024573Y-76707235D01*
X179125468Y-76200000D01*
X179024573Y-75692765D01*
X178737247Y-75262753D01*
X178307235Y-74975427D01*
X178078858Y-74930000D01*
X178307235Y-74884573D01*
X178737247Y-74597247D01*
X179024573Y-74167235D01*
X179125468Y-73660000D01*
X179024573Y-73152765D01*
X178737247Y-72722753D01*
X178377159Y-72482149D01*
X178674730Y-72348387D01*
X179078228Y-71920137D01*
X179269619Y-71458061D01*
X179139469Y-71224000D01*
X177904000Y-71224000D01*
X177904000Y-71244000D01*
X177696000Y-71244000D01*
X177696000Y-71224000D01*
X176460531Y-71224000D01*
X176330381Y-71458061D01*
X176521772Y-71920137D01*
X176925270Y-72348387D01*
X177222841Y-72482149D01*
X176862753Y-72722753D01*
X176575427Y-73152765D01*
X176474532Y-73660000D01*
X176575427Y-74167235D01*
X176862753Y-74597247D01*
X177292765Y-74884573D01*
X177521142Y-74930000D01*
X177292765Y-74975427D01*
X176862753Y-75262753D01*
X176575427Y-75692765D01*
X176474532Y-76200000D01*
X176575427Y-76707235D01*
X176862753Y-77137247D01*
X177292765Y-77424573D01*
X177521142Y-77470000D01*
X177292765Y-77515427D01*
X176862753Y-77802753D01*
X176575427Y-78232765D01*
X176474532Y-78740000D01*
X176575427Y-79247235D01*
X176862753Y-79677247D01*
X177292765Y-79964573D01*
X177521142Y-80010000D01*
X177292765Y-80055427D01*
X176862753Y-80342753D01*
X176575427Y-80772765D01*
X176474532Y-81280000D01*
X176575427Y-81787235D01*
X176862753Y-82217247D01*
X177292765Y-82504573D01*
X177521142Y-82550000D01*
X177292765Y-82595427D01*
X176862753Y-82882753D01*
X176575427Y-83312765D01*
X176474532Y-83820000D01*
X176575427Y-84327235D01*
X176862753Y-84757247D01*
X177292765Y-85044573D01*
X177521142Y-85090000D01*
X177292765Y-85135427D01*
X176862753Y-85422753D01*
X176575427Y-85852765D01*
X176474532Y-86360000D01*
X176575427Y-86867235D01*
X176862753Y-87297247D01*
X177292765Y-87584573D01*
X177521142Y-87630000D01*
X177292765Y-87675427D01*
X176862753Y-87962753D01*
X176575427Y-88392765D01*
X176474532Y-88900000D01*
X176575427Y-89407235D01*
X176862753Y-89837247D01*
X177292765Y-90124573D01*
X177521142Y-90170000D01*
X177292765Y-90215427D01*
X176862753Y-90502753D01*
X176575427Y-90932765D01*
X176474532Y-91440000D01*
X176575427Y-91947235D01*
X176862753Y-92377247D01*
X177292765Y-92664573D01*
X177521142Y-92710000D01*
X177292765Y-92755427D01*
X176862753Y-93042753D01*
X176575427Y-93472765D01*
X176474532Y-93980000D01*
X176575427Y-94487235D01*
X176862753Y-94917247D01*
X177292765Y-95204573D01*
X177521142Y-95250000D01*
X177292765Y-95295427D01*
X176862753Y-95582753D01*
X176575427Y-96012765D01*
X176474532Y-96520000D01*
X176575427Y-97027235D01*
X176862753Y-97457247D01*
X177292765Y-97744573D01*
X177521142Y-97790000D01*
X177292765Y-97835427D01*
X176862753Y-98122753D01*
X176575427Y-98552765D01*
X176474532Y-99060000D01*
X176575427Y-99567235D01*
X176862753Y-99997247D01*
X177292765Y-100284573D01*
X177521142Y-100330000D01*
X177292765Y-100375427D01*
X176862753Y-100662753D01*
X176575427Y-101092765D01*
X176474532Y-101600000D01*
X176575427Y-102107235D01*
X176862753Y-102537247D01*
X177292765Y-102824573D01*
X177521142Y-102870000D01*
X177292765Y-102915427D01*
X176862753Y-103202753D01*
X176575427Y-103632765D01*
X176474532Y-104140000D01*
X176575427Y-104647235D01*
X176862753Y-105077247D01*
X177292765Y-105364573D01*
X177521142Y-105410000D01*
X177292765Y-105455427D01*
X176862753Y-105742753D01*
X176575427Y-106172765D01*
X176474532Y-106680000D01*
X176553661Y-107077811D01*
X174877520Y-108753953D01*
X174827426Y-108787425D01*
X174793954Y-108837519D01*
X174793953Y-108837520D01*
X174694814Y-108985892D01*
X174648247Y-109220000D01*
X174660001Y-109279091D01*
X174660000Y-117536472D01*
X171430000Y-120766473D01*
X171430000Y-120375942D01*
X171459861Y-120331252D01*
X171513816Y-120060000D01*
X171513816Y-119135000D01*
X171459861Y-118863748D01*
X171375384Y-118737319D01*
X171357473Y-118647275D01*
X171081199Y-118233801D01*
X170895917Y-118110000D01*
X171081199Y-117986199D01*
X171357473Y-117572725D01*
X171375384Y-117482681D01*
X171459861Y-117356252D01*
X171513816Y-117085000D01*
X171513816Y-116160000D01*
X171459861Y-115888748D01*
X171430000Y-115844058D01*
X171430000Y-70781939D01*
X176330381Y-70781939D01*
X176460531Y-71016000D01*
X177696000Y-71016000D01*
X177696000Y-70996000D01*
X177904000Y-70996000D01*
X177904000Y-71016000D01*
X179139469Y-71016000D01*
X179269619Y-70781939D01*
X179078228Y-70319863D01*
X178674730Y-69891613D01*
X178377159Y-69757851D01*
X178737247Y-69517247D01*
X178962589Y-69180000D01*
X181361473Y-69180000D01*
X184820000Y-72638528D01*
X184820001Y-75028684D01*
X184795000Y-75028684D01*
X184523748Y-75082639D01*
X184293791Y-75236291D01*
X184140139Y-75466248D01*
X184086184Y-75737500D01*
X184086184Y-76662500D01*
X184140139Y-76933752D01*
X184293791Y-77163709D01*
X184523748Y-77317361D01*
X184795000Y-77371316D01*
X186045000Y-77371316D01*
X186316252Y-77317361D01*
X186546209Y-77163709D01*
X186699861Y-76933752D01*
X186753816Y-76662500D01*
X186753816Y-75737500D01*
X186699861Y-75466248D01*
X186546209Y-75236291D01*
X186316252Y-75082639D01*
X186045000Y-75028684D01*
X186020000Y-75028684D01*
X186020000Y-72449088D01*
X186031753Y-72390000D01*
X186020000Y-72330910D01*
X186020000Y-72330909D01*
X185985187Y-72155892D01*
X185852575Y-71957425D01*
X185802482Y-71923954D01*
X185336589Y-71458061D01*
X190300381Y-71458061D01*
X190491772Y-71920137D01*
X190895270Y-72348387D01*
X191431938Y-72589626D01*
X191666000Y-72459917D01*
X191666000Y-71224000D01*
X191874000Y-71224000D01*
X191874000Y-72459917D01*
X192108062Y-72589626D01*
X192644730Y-72348387D01*
X193048228Y-71920137D01*
X193239619Y-71458061D01*
X193109469Y-71224000D01*
X191874000Y-71224000D01*
X191666000Y-71224000D01*
X190430531Y-71224000D01*
X190300381Y-71458061D01*
X185336589Y-71458061D01*
X184660467Y-70781939D01*
X190300381Y-70781939D01*
X190430531Y-71016000D01*
X191666000Y-71016000D01*
X191666000Y-70996000D01*
X191874000Y-70996000D01*
X191874000Y-71016000D01*
X193109469Y-71016000D01*
X193239619Y-70781939D01*
X193048228Y-70319863D01*
X192644730Y-69891613D01*
X192632830Y-69886264D01*
X192795581Y-69853891D01*
X192944432Y-69754432D01*
X193043891Y-69605581D01*
X193078816Y-69430000D01*
X193078816Y-67730000D01*
X193043891Y-67554419D01*
X192944432Y-67405568D01*
X192795581Y-67306109D01*
X192620000Y-67271184D01*
X190920000Y-67271184D01*
X190744419Y-67306109D01*
X190595568Y-67405568D01*
X190496109Y-67554419D01*
X190461184Y-67730000D01*
X190461184Y-69430000D01*
X190496109Y-69605581D01*
X190595568Y-69754432D01*
X190744419Y-69853891D01*
X190907170Y-69886264D01*
X190895270Y-69891613D01*
X190491772Y-70319863D01*
X190300381Y-70781939D01*
X184660467Y-70781939D01*
X182076049Y-68197522D01*
X182042575Y-68147425D01*
X181844108Y-68014813D01*
X181669091Y-67980000D01*
X181669086Y-67980000D01*
X181610000Y-67968247D01*
X181550914Y-67980000D01*
X178962589Y-67980000D01*
X178737247Y-67642753D01*
X178307235Y-67355427D01*
X177928037Y-67280000D01*
X177671963Y-67280000D01*
X177292765Y-67355427D01*
X176862753Y-67642753D01*
X176575427Y-68072765D01*
X176474532Y-68580000D01*
X176575427Y-69087235D01*
X176862753Y-69517247D01*
X177222841Y-69757851D01*
X176925270Y-69891613D01*
X176521772Y-70319863D01*
X176330381Y-70781939D01*
X171430000Y-70781939D01*
X171430000Y-60947930D01*
X171500581Y-60933891D01*
X171649432Y-60834432D01*
X171748891Y-60685581D01*
X171783816Y-60510000D01*
X171783816Y-58238500D01*
X172692000Y-58238500D01*
X172692000Y-60640884D01*
X172792174Y-60882727D01*
X172977273Y-61067825D01*
X173219115Y-61168000D01*
X173432786Y-61168000D01*
X173407050Y-61240156D01*
X173429817Y-61694299D01*
X173559809Y-62008130D01*
X173782554Y-62040368D01*
X173893685Y-61929237D01*
X173957273Y-61992825D01*
X174075345Y-62041733D01*
X173929632Y-62187446D01*
X173961870Y-62410191D01*
X174390156Y-62562950D01*
X174844299Y-62540183D01*
X175158130Y-62410191D01*
X175190368Y-62187446D01*
X175044655Y-62041733D01*
X175162727Y-61992825D01*
X175226315Y-61929237D01*
X175337446Y-62040368D01*
X175560191Y-62008130D01*
X175712950Y-61579844D01*
X175692304Y-61168000D01*
X175900885Y-61168000D01*
X176142727Y-61067825D01*
X176327826Y-60882727D01*
X176428000Y-60640884D01*
X176428000Y-58238500D01*
X176263500Y-58074000D01*
X174664000Y-58074000D01*
X174664000Y-58094000D01*
X174456000Y-58094000D01*
X174456000Y-58074000D01*
X172856500Y-58074000D01*
X172692000Y-58238500D01*
X171783816Y-58238500D01*
X171783816Y-55430000D01*
X171748891Y-55254419D01*
X171685802Y-55160000D01*
X172749623Y-55160000D01*
X172692000Y-55299116D01*
X172692000Y-57701500D01*
X172856500Y-57866000D01*
X174456000Y-57866000D01*
X174456000Y-57846000D01*
X174664000Y-57846000D01*
X174664000Y-57866000D01*
X176263500Y-57866000D01*
X176428000Y-57701500D01*
X176428000Y-55299116D01*
X176370377Y-55160000D01*
X193760000Y-55160000D01*
X193760001Y-118269624D01*
X193620884Y-118212000D01*
X191218500Y-118212000D01*
X191054000Y-118376500D01*
X191054000Y-119976000D01*
X191074000Y-119976000D01*
X191074000Y-120184000D01*
X191054000Y-120184000D01*
X191054000Y-121783500D01*
X191218500Y-121948000D01*
X193620884Y-121948000D01*
X193760001Y-121890376D01*
X193760001Y-122954198D01*
X193665581Y-122891109D01*
X193490000Y-122856184D01*
X188410000Y-122856184D01*
X188234419Y-122891109D01*
X188085568Y-122990568D01*
X187986109Y-123139419D01*
X187972070Y-123210000D01*
X178795942Y-123210000D01*
X178751252Y-123180139D01*
X178480000Y-123126184D01*
X177555000Y-123126184D01*
X177283748Y-123180139D01*
X177157319Y-123264616D01*
X177067275Y-123282527D01*
X176653801Y-123558801D01*
X176530000Y-123744083D01*
X176406199Y-123558801D01*
X175992725Y-123282527D01*
X175902681Y-123264616D01*
X175776252Y-123180139D01*
X175505000Y-123126184D01*
X174580000Y-123126184D01*
X174308748Y-123180139D01*
X174264058Y-123210000D01*
X171834891Y-123210000D01*
X171470275Y-123282527D01*
X171168999Y-123483833D01*
X171030000Y-123456184D01*
X170864798Y-123456184D01*
X170854391Y-123440609D01*
X170636738Y-123295178D01*
X170380000Y-123244110D01*
X169980000Y-123244110D01*
X169723262Y-123295178D01*
X169505609Y-123440609D01*
X169495202Y-123456184D01*
X169330000Y-123456184D01*
X169191001Y-123483833D01*
X168889725Y-123282527D01*
X168525109Y-123210000D01*
X166095942Y-123210000D01*
X166051252Y-123180139D01*
X165780000Y-123126184D01*
X164855000Y-123126184D01*
X164583748Y-123180139D01*
X164457319Y-123264616D01*
X164367275Y-123282527D01*
X163953801Y-123558801D01*
X163830000Y-123744083D01*
X163706199Y-123558801D01*
X163292725Y-123282527D01*
X163202681Y-123264616D01*
X163076252Y-123180139D01*
X162805000Y-123126184D01*
X161880000Y-123126184D01*
X161608748Y-123180139D01*
X161564058Y-123210000D01*
X152387930Y-123210000D01*
X152373891Y-123139419D01*
X152274432Y-122990568D01*
X152125581Y-122891109D01*
X151950000Y-122856184D01*
X146870000Y-122856184D01*
X146694419Y-122891109D01*
X146600000Y-122954198D01*
X146600000Y-121890377D01*
X146739116Y-121948000D01*
X149141500Y-121948000D01*
X149306000Y-121783500D01*
X149306000Y-120184000D01*
X149286000Y-120184000D01*
X149286000Y-119976000D01*
X149306000Y-119976000D01*
X149306000Y-118376500D01*
X149514000Y-118376500D01*
X149514000Y-119976000D01*
X149534000Y-119976000D01*
X149534000Y-120184000D01*
X149514000Y-120184000D01*
X149514000Y-121783500D01*
X149678500Y-121948000D01*
X152080884Y-121948000D01*
X152322727Y-121847826D01*
X152507825Y-121662727D01*
X152608000Y-121420885D01*
X152608000Y-121207214D01*
X152680156Y-121232950D01*
X153134299Y-121210183D01*
X153448130Y-121080191D01*
X153480368Y-120857446D01*
X153369237Y-120746315D01*
X153432825Y-120682727D01*
X153481733Y-120564655D01*
X153627446Y-120710368D01*
X153850191Y-120678130D01*
X154002950Y-120249844D01*
X153980183Y-119795701D01*
X153850191Y-119481870D01*
X153627446Y-119449632D01*
X153481733Y-119595345D01*
X153432825Y-119477273D01*
X153369237Y-119413685D01*
X153480368Y-119302554D01*
X153448130Y-119079809D01*
X153019844Y-118927050D01*
X152608000Y-118947696D01*
X152608000Y-118739115D01*
X152507825Y-118497273D01*
X152322727Y-118312174D01*
X152080884Y-118212000D01*
X149678500Y-118212000D01*
X149514000Y-118376500D01*
X149306000Y-118376500D01*
X149141500Y-118212000D01*
X146739116Y-118212000D01*
X146600000Y-118269623D01*
X146600000Y-117178061D01*
X161090381Y-117178061D01*
X161281772Y-117640137D01*
X161685270Y-118068387D01*
X162221938Y-118309626D01*
X162456000Y-118179917D01*
X162456000Y-116944000D01*
X162664000Y-116944000D01*
X162664000Y-118179917D01*
X162898062Y-118309626D01*
X163434730Y-118068387D01*
X163838228Y-117640137D01*
X164029619Y-117178061D01*
X163899469Y-116944000D01*
X162664000Y-116944000D01*
X162456000Y-116944000D01*
X161220531Y-116944000D01*
X161090381Y-117178061D01*
X146600000Y-117178061D01*
X146600000Y-114638061D01*
X161090381Y-114638061D01*
X161281772Y-115100137D01*
X161685270Y-115528387D01*
X161777844Y-115570000D01*
X161685270Y-115611613D01*
X161281772Y-116039863D01*
X161090381Y-116501939D01*
X161220531Y-116736000D01*
X162456000Y-116736000D01*
X162456000Y-114404000D01*
X162664000Y-114404000D01*
X162664000Y-116736000D01*
X163899469Y-116736000D01*
X164029619Y-116501939D01*
X163838228Y-116039863D01*
X163434730Y-115611613D01*
X163342156Y-115570000D01*
X163434730Y-115528387D01*
X163838228Y-115100137D01*
X164029619Y-114638061D01*
X163899469Y-114404000D01*
X162664000Y-114404000D01*
X162456000Y-114404000D01*
X161220531Y-114404000D01*
X161090381Y-114638061D01*
X146600000Y-114638061D01*
X146600000Y-93952500D01*
X149796184Y-93952500D01*
X149796184Y-94877500D01*
X149850139Y-95148752D01*
X150003791Y-95378709D01*
X150233748Y-95532361D01*
X150505000Y-95586316D01*
X151755000Y-95586316D01*
X152026252Y-95532361D01*
X152256209Y-95378709D01*
X152409861Y-95148752D01*
X152463816Y-94877500D01*
X152463816Y-93952500D01*
X152460035Y-93933492D01*
X153919312Y-92474216D01*
X154043748Y-92557361D01*
X154315000Y-92611316D01*
X155565000Y-92611316D01*
X155836252Y-92557361D01*
X156066209Y-92403709D01*
X156219861Y-92173752D01*
X156273816Y-91902500D01*
X156273816Y-90977500D01*
X156219861Y-90706248D01*
X156066209Y-90476291D01*
X155836252Y-90322639D01*
X155565000Y-90268684D01*
X154315000Y-90268684D01*
X154043748Y-90322639D01*
X153813791Y-90476291D01*
X153660139Y-90706248D01*
X153606184Y-90977500D01*
X153606184Y-91090288D01*
X151452789Y-93243684D01*
X150505000Y-93243684D01*
X150233748Y-93297639D01*
X150003791Y-93451291D01*
X149850139Y-93681248D01*
X149796184Y-93952500D01*
X146600000Y-93952500D01*
X146600000Y-79078061D01*
X147120381Y-79078061D01*
X147311772Y-79540137D01*
X147715270Y-79968387D01*
X148251938Y-80209626D01*
X148486000Y-80079917D01*
X148486000Y-78844000D01*
X148694000Y-78844000D01*
X148694000Y-80079917D01*
X148928062Y-80209626D01*
X149464730Y-79968387D01*
X149868228Y-79540137D01*
X150059619Y-79078061D01*
X149929469Y-78844000D01*
X148694000Y-78844000D01*
X148486000Y-78844000D01*
X147250531Y-78844000D01*
X147120381Y-79078061D01*
X146600000Y-79078061D01*
X146600000Y-78401939D01*
X147120381Y-78401939D01*
X147250531Y-78636000D01*
X148486000Y-78636000D01*
X148486000Y-78616000D01*
X148694000Y-78616000D01*
X148694000Y-78636000D01*
X149929469Y-78636000D01*
X150059619Y-78401939D01*
X149868228Y-77939863D01*
X149464730Y-77511613D01*
X149167159Y-77377851D01*
X149527247Y-77137247D01*
X149696066Y-76884593D01*
X150530000Y-77718528D01*
X150530001Y-79761471D01*
X148207522Y-82083951D01*
X148157425Y-82117425D01*
X148024813Y-82315893D01*
X147990000Y-82490910D01*
X147990000Y-82490914D01*
X147978247Y-82550000D01*
X147990000Y-82609086D01*
X147990001Y-88840909D01*
X147978247Y-88900000D01*
X148024814Y-89134108D01*
X148119563Y-89275909D01*
X148157426Y-89332575D01*
X148207520Y-89366047D01*
X149799965Y-90958493D01*
X149796184Y-90977500D01*
X149796184Y-91902500D01*
X149850139Y-92173752D01*
X150003791Y-92403709D01*
X150233748Y-92557361D01*
X150505000Y-92611316D01*
X151755000Y-92611316D01*
X152026252Y-92557361D01*
X152256209Y-92403709D01*
X152409861Y-92173752D01*
X152463816Y-91902500D01*
X152463816Y-90977500D01*
X152409861Y-90706248D01*
X152256209Y-90476291D01*
X152026252Y-90322639D01*
X151755000Y-90268684D01*
X150807212Y-90268684D01*
X149190000Y-88651473D01*
X149190000Y-86332500D01*
X149796184Y-86332500D01*
X149796184Y-87257500D01*
X149850139Y-87528752D01*
X150003791Y-87758709D01*
X150233748Y-87912361D01*
X150505000Y-87966316D01*
X151755000Y-87966316D01*
X152026252Y-87912361D01*
X152256209Y-87758709D01*
X152409861Y-87528752D01*
X152463816Y-87257500D01*
X152463816Y-86332500D01*
X152460035Y-86313492D01*
X153919312Y-84854216D01*
X154043748Y-84937361D01*
X154315000Y-84991316D01*
X155565000Y-84991316D01*
X155836252Y-84937361D01*
X156066209Y-84783709D01*
X156219861Y-84553752D01*
X156273816Y-84282500D01*
X156273816Y-83357500D01*
X156219861Y-83086248D01*
X156066209Y-82856291D01*
X155836252Y-82702639D01*
X155565000Y-82648684D01*
X154315000Y-82648684D01*
X154043748Y-82702639D01*
X153813791Y-82856291D01*
X153660139Y-83086248D01*
X153606184Y-83357500D01*
X153606184Y-83470288D01*
X151452789Y-85623684D01*
X150505000Y-85623684D01*
X150233748Y-85677639D01*
X150003791Y-85831291D01*
X149850139Y-86061248D01*
X149796184Y-86332500D01*
X149190000Y-86332500D01*
X149190000Y-82798527D01*
X151512481Y-80476047D01*
X151562575Y-80442575D01*
X151695187Y-80244108D01*
X151730000Y-80069091D01*
X151730000Y-80069087D01*
X151741753Y-80010001D01*
X151730000Y-79950915D01*
X151730000Y-77529086D01*
X151741753Y-77469999D01*
X151730000Y-77410913D01*
X151730000Y-77410909D01*
X151695187Y-77235892D01*
X151620785Y-77124541D01*
X151596047Y-77087519D01*
X151562575Y-77037425D01*
X151512482Y-77003954D01*
X150326049Y-75817521D01*
X150292575Y-75767425D01*
X150094108Y-75634813D01*
X149919091Y-75600000D01*
X149919086Y-75600000D01*
X149860000Y-75588247D01*
X149800914Y-75600000D01*
X149752589Y-75600000D01*
X149527247Y-75262753D01*
X149097235Y-74975427D01*
X149063999Y-74968816D01*
X149440000Y-74968816D01*
X149615581Y-74933891D01*
X149764432Y-74834432D01*
X149863891Y-74685581D01*
X149872711Y-74641238D01*
X151800000Y-76568528D01*
X151800001Y-82301471D01*
X151452788Y-82648684D01*
X150505000Y-82648684D01*
X150233748Y-82702639D01*
X150003791Y-82856291D01*
X149850139Y-83086248D01*
X149796184Y-83357500D01*
X149796184Y-84282500D01*
X149850139Y-84553752D01*
X150003791Y-84783709D01*
X150233748Y-84937361D01*
X150505000Y-84991316D01*
X151755000Y-84991316D01*
X152026252Y-84937361D01*
X152256209Y-84783709D01*
X152409861Y-84553752D01*
X152463816Y-84282500D01*
X152463816Y-83357500D01*
X152460035Y-83338493D01*
X152782481Y-83016047D01*
X152832575Y-82982575D01*
X152965187Y-82784108D01*
X153000000Y-82609091D01*
X153000000Y-82609087D01*
X153011753Y-82550001D01*
X153000000Y-82490914D01*
X153000000Y-76379086D01*
X153011753Y-76319999D01*
X153000000Y-76260913D01*
X153000000Y-76260909D01*
X152965187Y-76085892D01*
X152832575Y-75887425D01*
X152782482Y-75853954D01*
X150206049Y-73277522D01*
X150172575Y-73227425D01*
X149974108Y-73094813D01*
X149898816Y-73079837D01*
X149898816Y-72810000D01*
X149863891Y-72634419D01*
X149764432Y-72485568D01*
X149615581Y-72386109D01*
X149440000Y-72351184D01*
X147740000Y-72351184D01*
X147564419Y-72386109D01*
X147415568Y-72485568D01*
X147316109Y-72634419D01*
X147281184Y-72810000D01*
X147281184Y-74510000D01*
X147316109Y-74685581D01*
X147415568Y-74834432D01*
X147564419Y-74933891D01*
X147740000Y-74968816D01*
X148116001Y-74968816D01*
X148082765Y-74975427D01*
X147652753Y-75262753D01*
X147365427Y-75692765D01*
X147264532Y-76200000D01*
X147365427Y-76707235D01*
X147652753Y-77137247D01*
X148012841Y-77377851D01*
X147715270Y-77511613D01*
X147311772Y-77939863D01*
X147120381Y-78401939D01*
X146600000Y-78401939D01*
X146600000Y-58238500D01*
X163932000Y-58238500D01*
X163932000Y-60640884D01*
X164032174Y-60882727D01*
X164217273Y-61067825D01*
X164459115Y-61168000D01*
X164672786Y-61168000D01*
X164647050Y-61240156D01*
X164669817Y-61694299D01*
X164799809Y-62008130D01*
X165022554Y-62040368D01*
X165133685Y-61929237D01*
X165197273Y-61992825D01*
X165315345Y-62041733D01*
X165169632Y-62187446D01*
X165201870Y-62410191D01*
X165630156Y-62562950D01*
X166084299Y-62540183D01*
X166398130Y-62410191D01*
X166430368Y-62187446D01*
X166284655Y-62041733D01*
X166402727Y-61992825D01*
X166466315Y-61929237D01*
X166577446Y-62040368D01*
X166800191Y-62008130D01*
X166952950Y-61579844D01*
X166932304Y-61168000D01*
X167140885Y-61168000D01*
X167382727Y-61067825D01*
X167567826Y-60882727D01*
X167668000Y-60640884D01*
X167668000Y-58238500D01*
X167503500Y-58074000D01*
X165904000Y-58074000D01*
X165904000Y-58094000D01*
X165696000Y-58094000D01*
X165696000Y-58074000D01*
X164096500Y-58074000D01*
X163932000Y-58238500D01*
X146600000Y-58238500D01*
X146600000Y-55160000D01*
X163989623Y-55160000D01*
X163932000Y-55299116D01*
X163932000Y-55299116D01*
G37*
X163932000Y-55299116D02*
X163932000Y-57701500D01*
X164096500Y-57866000D01*
X165696000Y-57866000D01*
X165696000Y-57846000D01*
X165904000Y-57846000D01*
X165904000Y-57866000D01*
X167503500Y-57866000D01*
X167668000Y-57701500D01*
X167668000Y-55299116D01*
X167610377Y-55160000D01*
X168674198Y-55160000D01*
X168611109Y-55254419D01*
X168576184Y-55430000D01*
X168576184Y-60510000D01*
X168611109Y-60685581D01*
X168710568Y-60834432D01*
X168859419Y-60933891D01*
X168930000Y-60947930D01*
X168930001Y-115844056D01*
X168900139Y-115888748D01*
X168846184Y-116160000D01*
X168846184Y-117085000D01*
X168900139Y-117356252D01*
X168984618Y-117482683D01*
X169002528Y-117572725D01*
X169278802Y-117986199D01*
X169464083Y-118110000D01*
X169278801Y-118233801D01*
X169002527Y-118647276D01*
X168984616Y-118737318D01*
X168900139Y-118863748D01*
X168846184Y-119135000D01*
X168846184Y-120060000D01*
X168900139Y-120331252D01*
X168930001Y-120375943D01*
X168930001Y-120766473D01*
X165700000Y-117536473D01*
X165700000Y-114359085D01*
X165711753Y-114299999D01*
X165700000Y-114240913D01*
X165700000Y-114240909D01*
X165665187Y-114065892D01*
X165532575Y-113867425D01*
X165482481Y-113833953D01*
X163806339Y-112157811D01*
X163885468Y-111760000D01*
X163784573Y-111252765D01*
X163497247Y-110822753D01*
X163067235Y-110535427D01*
X162838858Y-110490000D01*
X163067235Y-110444573D01*
X163497247Y-110157247D01*
X163784573Y-109727235D01*
X163885468Y-109220000D01*
X163784573Y-108712765D01*
X163497247Y-108282753D01*
X163067235Y-107995427D01*
X162838858Y-107950000D01*
X163067235Y-107904573D01*
X163497247Y-107617247D01*
X163784573Y-107187235D01*
X163885468Y-106680000D01*
X163784573Y-106172765D01*
X163497247Y-105742753D01*
X163067235Y-105455427D01*
X162838858Y-105410000D01*
X163067235Y-105364573D01*
X163497247Y-105077247D01*
X163784573Y-104647235D01*
X163885468Y-104140000D01*
X163784573Y-103632765D01*
X163497247Y-103202753D01*
X163067235Y-102915427D01*
X162838858Y-102870000D01*
X163067235Y-102824573D01*
X163497247Y-102537247D01*
X163784573Y-102107235D01*
X163885468Y-101600000D01*
X163784573Y-101092765D01*
X163497247Y-100662753D01*
X163067235Y-100375427D01*
X162838858Y-100330000D01*
X163067235Y-100284573D01*
X163497247Y-99997247D01*
X163784573Y-99567235D01*
X163885468Y-99060000D01*
X163784573Y-98552765D01*
X163497247Y-98122753D01*
X163067235Y-97835427D01*
X162838858Y-97790000D01*
X163067235Y-97744573D01*
X163497247Y-97457247D01*
X163784573Y-97027235D01*
X163885468Y-96520000D01*
X163784573Y-96012765D01*
X163497247Y-95582753D01*
X163067235Y-95295427D01*
X162838858Y-95250000D01*
X163067235Y-95204573D01*
X163497247Y-94917247D01*
X163784573Y-94487235D01*
X163885468Y-93980000D01*
X163784573Y-93472765D01*
X163497247Y-93042753D01*
X163067235Y-92755427D01*
X162838858Y-92710000D01*
X163067235Y-92664573D01*
X163497247Y-92377247D01*
X163784573Y-91947235D01*
X163885468Y-91440000D01*
X163784573Y-90932765D01*
X163497247Y-90502753D01*
X163067235Y-90215427D01*
X162838858Y-90170000D01*
X163067235Y-90124573D01*
X163497247Y-89837247D01*
X163784573Y-89407235D01*
X163885468Y-88900000D01*
X163784573Y-88392765D01*
X163497247Y-87962753D01*
X163067235Y-87675427D01*
X162838858Y-87630000D01*
X163067235Y-87584573D01*
X163497247Y-87297247D01*
X163784573Y-86867235D01*
X163885468Y-86360000D01*
X163784573Y-85852765D01*
X163497247Y-85422753D01*
X163067235Y-85135427D01*
X162838858Y-85090000D01*
X163067235Y-85044573D01*
X163497247Y-84757247D01*
X163784573Y-84327235D01*
X163885468Y-83820000D01*
X163784573Y-83312765D01*
X163497247Y-82882753D01*
X163067235Y-82595427D01*
X162838858Y-82550000D01*
X163067235Y-82504573D01*
X163497247Y-82217247D01*
X163784573Y-81787235D01*
X163885468Y-81280000D01*
X163784573Y-80772765D01*
X163497247Y-80342753D01*
X163067235Y-80055427D01*
X162838858Y-80010000D01*
X163067235Y-79964573D01*
X163497247Y-79677247D01*
X163784573Y-79247235D01*
X163885468Y-78740000D01*
X163784573Y-78232765D01*
X163497247Y-77802753D01*
X163067235Y-77515427D01*
X162838858Y-77470000D01*
X163067235Y-77424573D01*
X163497247Y-77137247D01*
X163784573Y-76707235D01*
X163885468Y-76200000D01*
X163784573Y-75692765D01*
X163497247Y-75262753D01*
X163067235Y-74975427D01*
X162838858Y-74930000D01*
X163067235Y-74884573D01*
X163497247Y-74597247D01*
X163784573Y-74167235D01*
X163885468Y-73660000D01*
X163784573Y-73152765D01*
X163497247Y-72722753D01*
X163067235Y-72435427D01*
X162838858Y-72390000D01*
X163067235Y-72344573D01*
X163497247Y-72057247D01*
X163784573Y-71627235D01*
X163885468Y-71120000D01*
X163784573Y-70612765D01*
X163497247Y-70182753D01*
X163067235Y-69895427D01*
X163033999Y-69888816D01*
X163410000Y-69888816D01*
X163585581Y-69853891D01*
X163734432Y-69754432D01*
X163833891Y-69605581D01*
X163868816Y-69430000D01*
X163868816Y-67730000D01*
X163833891Y-67554419D01*
X163734432Y-67405568D01*
X163585581Y-67306109D01*
X163410000Y-67271184D01*
X161710000Y-67271184D01*
X161534419Y-67306109D01*
X161385568Y-67405568D01*
X161286109Y-67554419D01*
X161251184Y-67730000D01*
X161251184Y-69430000D01*
X161286109Y-69605581D01*
X161385568Y-69754432D01*
X161534419Y-69853891D01*
X161710000Y-69888816D01*
X162086001Y-69888816D01*
X162052765Y-69895427D01*
X161622753Y-70182753D01*
X161335427Y-70612765D01*
X161234532Y-71120000D01*
X161335427Y-71627235D01*
X161622753Y-72057247D01*
X162052765Y-72344573D01*
X162281142Y-72390000D01*
X162052765Y-72435427D01*
X161622753Y-72722753D01*
X161335427Y-73152765D01*
X161234532Y-73660000D01*
X161335427Y-74167235D01*
X161622753Y-74597247D01*
X162052765Y-74884573D01*
X162281142Y-74930000D01*
X162052765Y-74975427D01*
X161622753Y-75262753D01*
X161335427Y-75692765D01*
X161234532Y-76200000D01*
X161335427Y-76707235D01*
X161622753Y-77137247D01*
X162052765Y-77424573D01*
X162281142Y-77470000D01*
X162052765Y-77515427D01*
X161622753Y-77802753D01*
X161335427Y-78232765D01*
X161234532Y-78740000D01*
X161335427Y-79247235D01*
X161622753Y-79677247D01*
X162052765Y-79964573D01*
X162281142Y-80010000D01*
X162052765Y-80055427D01*
X161622753Y-80342753D01*
X161335427Y-80772765D01*
X161234532Y-81280000D01*
X161335427Y-81787235D01*
X161622753Y-82217247D01*
X162052765Y-82504573D01*
X162281142Y-82550000D01*
X162052765Y-82595427D01*
X161622753Y-82882753D01*
X161335427Y-83312765D01*
X161234532Y-83820000D01*
X161335427Y-84327235D01*
X161622753Y-84757247D01*
X162052765Y-85044573D01*
X162281142Y-85090000D01*
X162052765Y-85135427D01*
X161622753Y-85422753D01*
X161335427Y-85852765D01*
X161234532Y-86360000D01*
X161335427Y-86867235D01*
X161622753Y-87297247D01*
X162052765Y-87584573D01*
X162281142Y-87630000D01*
X162052765Y-87675427D01*
X161622753Y-87962753D01*
X161335427Y-88392765D01*
X161234532Y-88900000D01*
X161335427Y-89407235D01*
X161622753Y-89837247D01*
X162052765Y-90124573D01*
X162281142Y-90170000D01*
X162052765Y-90215427D01*
X161622753Y-90502753D01*
X161335427Y-90932765D01*
X161234532Y-91440000D01*
X161335427Y-91947235D01*
X161622753Y-92377247D01*
X162052765Y-92664573D01*
X162281142Y-92710000D01*
X162052765Y-92755427D01*
X161622753Y-93042753D01*
X161335427Y-93472765D01*
X161234532Y-93980000D01*
X161335427Y-94487235D01*
X161622753Y-94917247D01*
X162052765Y-95204573D01*
X162281142Y-95250000D01*
X162052765Y-95295427D01*
X161622753Y-95582753D01*
X161335427Y-96012765D01*
X161234532Y-96520000D01*
X161335427Y-97027235D01*
X161622753Y-97457247D01*
X162052765Y-97744573D01*
X162281142Y-97790000D01*
X162052765Y-97835427D01*
X161622753Y-98122753D01*
X161335427Y-98552765D01*
X161234532Y-99060000D01*
X161335427Y-99567235D01*
X161622753Y-99997247D01*
X162052765Y-100284573D01*
X162281142Y-100330000D01*
X162052765Y-100375427D01*
X161622753Y-100662753D01*
X161335427Y-101092765D01*
X161234532Y-101600000D01*
X161335427Y-102107235D01*
X161622753Y-102537247D01*
X162052765Y-102824573D01*
X162281142Y-102870000D01*
X162052765Y-102915427D01*
X161622753Y-103202753D01*
X161335427Y-103632765D01*
X161234532Y-104140000D01*
X161335427Y-104647235D01*
X161622753Y-105077247D01*
X162052765Y-105364573D01*
X162281142Y-105410000D01*
X162052765Y-105455427D01*
X161622753Y-105742753D01*
X161335427Y-106172765D01*
X161234532Y-106680000D01*
X161335427Y-107187235D01*
X161622753Y-107617247D01*
X162052765Y-107904573D01*
X162281142Y-107950000D01*
X162052765Y-107995427D01*
X161622753Y-108282753D01*
X161335427Y-108712765D01*
X161234532Y-109220000D01*
X161325412Y-109676884D01*
X155540000Y-103891473D01*
X155540000Y-95586316D01*
X155565000Y-95586316D01*
X155836252Y-95532361D01*
X156066209Y-95378709D01*
X156219861Y-95148752D01*
X156273816Y-94877500D01*
X156273816Y-93952500D01*
X156270035Y-93933492D01*
X157862482Y-92341046D01*
X157912575Y-92307575D01*
X158045187Y-92109108D01*
X158080000Y-91934091D01*
X158080000Y-91934087D01*
X158091753Y-91875001D01*
X158080000Y-91815915D01*
X158080000Y-89394085D01*
X158091753Y-89334999D01*
X158080000Y-89275913D01*
X158080000Y-89275909D01*
X158045187Y-89100892D01*
X157912575Y-88902425D01*
X157862481Y-88868953D01*
X156270035Y-87276508D01*
X156273816Y-87257500D01*
X156273816Y-86332500D01*
X156219861Y-86061248D01*
X156066209Y-85831291D01*
X155836252Y-85677639D01*
X155565000Y-85623684D01*
X154315000Y-85623684D01*
X154043748Y-85677639D01*
X153813791Y-85831291D01*
X153660139Y-86061248D01*
X153606184Y-86332500D01*
X153606184Y-87257500D01*
X153660139Y-87528752D01*
X153813791Y-87758709D01*
X154043748Y-87912361D01*
X154315000Y-87966316D01*
X155262789Y-87966316D01*
X156880001Y-89583529D01*
X156880000Y-91626472D01*
X155262789Y-93243684D01*
X154315000Y-93243684D01*
X154043748Y-93297639D01*
X153813791Y-93451291D01*
X153660139Y-93681248D01*
X153606184Y-93952500D01*
X153606184Y-94877500D01*
X153660139Y-95148752D01*
X153813791Y-95378709D01*
X154043748Y-95532361D01*
X154315000Y-95586316D01*
X154340001Y-95586316D01*
X154340000Y-104080914D01*
X154328247Y-104140000D01*
X154340000Y-104199086D01*
X154340000Y-104199090D01*
X154374813Y-104374107D01*
X154507425Y-104572575D01*
X154557522Y-104606049D01*
X161313661Y-111362189D01*
X161234532Y-111760000D01*
X161335427Y-112267235D01*
X161622753Y-112697247D01*
X161982841Y-112937851D01*
X161685270Y-113071613D01*
X161281772Y-113499863D01*
X161090381Y-113961939D01*
X161220531Y-114196000D01*
X162456000Y-114196000D01*
X162456000Y-114176000D01*
X162664000Y-114176000D01*
X162664000Y-114196000D01*
X163899469Y-114196000D01*
X163988092Y-114036620D01*
X164500001Y-114548529D01*
X164500000Y-117725914D01*
X164488247Y-117785000D01*
X164500000Y-117844086D01*
X164500000Y-117844090D01*
X164534813Y-118019107D01*
X164667425Y-118217575D01*
X164717522Y-118251049D01*
X168871184Y-122404712D01*
X168871184Y-122465000D01*
X168906109Y-122640581D01*
X169005568Y-122789432D01*
X169154419Y-122888891D01*
X169330000Y-122923816D01*
X169730000Y-122923816D01*
X169855000Y-122898952D01*
X169980000Y-122923816D01*
X170380000Y-122923816D01*
X170505000Y-122898952D01*
X170630000Y-122923816D01*
X171030000Y-122923816D01*
X171205581Y-122888891D01*
X171354432Y-122789432D01*
X171453891Y-122640581D01*
X171488816Y-122465000D01*
X171488816Y-122404711D01*
X173983371Y-119910156D01*
X186357050Y-119910156D01*
X186379817Y-120364299D01*
X186509809Y-120678130D01*
X186732554Y-120710368D01*
X186878267Y-120564655D01*
X186927175Y-120682727D01*
X186990763Y-120746315D01*
X186879632Y-120857446D01*
X186911870Y-121080191D01*
X187340156Y-121232950D01*
X187752000Y-121212304D01*
X187752000Y-121420885D01*
X187852175Y-121662727D01*
X188037273Y-121847826D01*
X188279116Y-121948000D01*
X190681500Y-121948000D01*
X190846000Y-121783500D01*
X190846000Y-120184000D01*
X190826000Y-120184000D01*
X190826000Y-119976000D01*
X190846000Y-119976000D01*
X190846000Y-118376500D01*
X190681500Y-118212000D01*
X188279116Y-118212000D01*
X188037273Y-118312174D01*
X187852175Y-118497273D01*
X187752000Y-118739115D01*
X187752000Y-118952786D01*
X187679844Y-118927050D01*
X187225701Y-118949817D01*
X186911870Y-119079809D01*
X186879632Y-119302554D01*
X186990763Y-119413685D01*
X186927175Y-119477273D01*
X186878267Y-119595345D01*
X186732554Y-119449632D01*
X186509809Y-119481870D01*
X186357050Y-119910156D01*
X173983371Y-119910156D01*
X175642482Y-118251046D01*
X175692575Y-118217575D01*
X175738519Y-118148816D01*
X175761855Y-118113891D01*
X175825187Y-118019108D01*
X175860000Y-117844091D01*
X175860000Y-117844087D01*
X175871753Y-117785001D01*
X175860000Y-117725914D01*
X175860000Y-109468527D01*
X176565412Y-108763116D01*
X176474532Y-109220000D01*
X176575427Y-109727235D01*
X176862753Y-110157247D01*
X177292765Y-110444573D01*
X177521142Y-110490000D01*
X177292765Y-110535427D01*
X176862753Y-110822753D01*
X176575427Y-111252765D01*
X176474532Y-111760000D01*
X176575427Y-112267235D01*
X176862753Y-112697247D01*
X177292765Y-112984573D01*
X177521142Y-113030000D01*
X177292765Y-113075427D01*
X176862753Y-113362753D01*
X176575427Y-113792765D01*
X176474532Y-114300000D01*
X176575427Y-114807235D01*
X176862753Y-115237247D01*
X177292765Y-115524573D01*
X177326001Y-115531184D01*
X176950000Y-115531184D01*
X176774419Y-115566109D01*
X176625568Y-115665568D01*
X176526109Y-115814419D01*
X176491184Y-115990000D01*
X176491184Y-117690000D01*
X176526109Y-117865581D01*
X176625568Y-118014432D01*
X176774419Y-118113891D01*
X176950000Y-118148816D01*
X178650000Y-118148816D01*
X178825581Y-118113891D01*
X178974432Y-118014432D01*
X179073891Y-117865581D01*
X179108816Y-117690000D01*
X179108816Y-115990000D01*
X179073891Y-115814419D01*
X178974432Y-115665568D01*
X178825581Y-115566109D01*
X178650000Y-115531184D01*
X178273999Y-115531184D01*
X178307235Y-115524573D01*
X178737247Y-115237247D01*
X179024573Y-114807235D01*
X179125468Y-114300000D01*
X179024573Y-113792765D01*
X178737247Y-113362753D01*
X178307235Y-113075427D01*
X178078858Y-113030000D01*
X178307235Y-112984573D01*
X178737247Y-112697247D01*
X179024573Y-112267235D01*
X179125468Y-111760000D01*
X179024573Y-111252765D01*
X178737247Y-110822753D01*
X178307235Y-110535427D01*
X178078858Y-110490000D01*
X178307235Y-110444573D01*
X178737247Y-110157247D01*
X179024573Y-109727235D01*
X179125468Y-109220000D01*
X179024573Y-108712765D01*
X178737247Y-108282753D01*
X178307235Y-107995427D01*
X178078858Y-107950000D01*
X178307235Y-107904573D01*
X178737247Y-107617247D01*
X179024573Y-107187235D01*
X179125468Y-106680000D01*
X179046339Y-106282188D01*
X189612482Y-95716046D01*
X189662575Y-95682575D01*
X189795187Y-95484108D01*
X189830000Y-95309091D01*
X189830000Y-95309087D01*
X189841753Y-95250001D01*
X189830000Y-95190914D01*
X189830000Y-87966316D01*
X189855000Y-87966316D01*
X190126252Y-87912361D01*
X190356209Y-87758709D01*
X190509861Y-87528752D01*
X190563816Y-87257500D01*
X190563816Y-86332500D01*
X190560035Y-86313492D01*
X192152482Y-84721046D01*
X192202575Y-84687575D01*
X192335187Y-84489108D01*
X192370000Y-84314091D01*
X192370000Y-84314087D01*
X192381753Y-84255001D01*
X192370000Y-84195915D01*
X192370000Y-78799086D01*
X192381753Y-78739999D01*
X192370000Y-78680913D01*
X192370000Y-78680909D01*
X192335187Y-78505892D01*
X192202575Y-78307425D01*
X192152482Y-78273954D01*
X190971059Y-77092532D01*
X190971057Y-77092529D01*
X190560035Y-76681508D01*
X190563816Y-76662500D01*
X190563816Y-75737500D01*
X190509861Y-75466248D01*
X190356209Y-75236291D01*
X190126252Y-75082639D01*
X189855000Y-75028684D01*
X188605000Y-75028684D01*
X188333748Y-75082639D01*
X188103791Y-75236291D01*
X187950139Y-75466248D01*
X187896184Y-75737500D01*
X187896184Y-76662500D01*
X187950139Y-76933752D01*
X188103791Y-77163709D01*
X188333748Y-77317361D01*
X188605000Y-77371316D01*
X189552788Y-77371316D01*
X190122529Y-77941057D01*
X190122532Y-77941059D01*
X191170000Y-78988528D01*
X191170001Y-83760904D01*
X191170000Y-83760909D01*
X191170000Y-84006472D01*
X189552789Y-85623684D01*
X188605000Y-85623684D01*
X188333748Y-85677639D01*
X188103791Y-85831291D01*
X187950139Y-86061248D01*
X187896184Y-86332500D01*
X187896184Y-87257500D01*
X187950139Y-87528752D01*
X188103791Y-87758709D01*
X188333748Y-87912361D01*
X188605000Y-87966316D01*
X188630001Y-87966316D01*
X188630000Y-95001472D01*
X179034588Y-104596885D01*
X179125468Y-104140000D01*
X179024573Y-103632765D01*
X178737247Y-103202753D01*
X178307235Y-102915427D01*
X178078858Y-102870000D01*
X178307235Y-102824573D01*
X178737247Y-102537247D01*
X179024573Y-102107235D01*
X179125468Y-101600000D01*
X179024573Y-101092765D01*
X178737247Y-100662753D01*
X178307235Y-100375427D01*
X178078858Y-100330000D01*
X178307235Y-100284573D01*
X178737247Y-99997247D01*
X179024573Y-99567235D01*
X179125468Y-99060000D01*
X179024573Y-98552765D01*
X178737247Y-98122753D01*
X178307235Y-97835427D01*
X178078858Y-97790000D01*
X178307235Y-97744573D01*
X178737247Y-97457247D01*
X179024573Y-97027235D01*
X179125468Y-96520000D01*
X179024573Y-96012765D01*
X178737247Y-95582753D01*
X178307235Y-95295427D01*
X178078858Y-95250000D01*
X178307235Y-95204573D01*
X178737247Y-94917247D01*
X179024573Y-94487235D01*
X179125468Y-93980000D01*
X179024573Y-93472765D01*
X178737247Y-93042753D01*
X178307235Y-92755427D01*
X178078858Y-92710000D01*
X178307235Y-92664573D01*
X178737247Y-92377247D01*
X179024573Y-91947235D01*
X179125468Y-91440000D01*
X179024573Y-90932765D01*
X178737247Y-90502753D01*
X178307235Y-90215427D01*
X178078858Y-90170000D01*
X178307235Y-90124573D01*
X178737247Y-89837247D01*
X179024573Y-89407235D01*
X179125468Y-88900000D01*
X179024573Y-88392765D01*
X178737247Y-87962753D01*
X178307235Y-87675427D01*
X178078858Y-87630000D01*
X178307235Y-87584573D01*
X178737247Y-87297247D01*
X178893432Y-87063500D01*
X183887000Y-87063500D01*
X183887000Y-87638384D01*
X183987174Y-87880227D01*
X184172273Y-88065325D01*
X184414115Y-88165500D01*
X185151500Y-88165500D01*
X185316000Y-88001000D01*
X185316000Y-86899000D01*
X185524000Y-86899000D01*
X185524000Y-88001000D01*
X185688500Y-88165500D01*
X186425885Y-88165500D01*
X186667727Y-88065325D01*
X186852826Y-87880227D01*
X186953000Y-87638384D01*
X186953000Y-87063500D01*
X186788500Y-86899000D01*
X185524000Y-86899000D01*
X185316000Y-86899000D01*
X184051500Y-86899000D01*
X183887000Y-87063500D01*
X178893432Y-87063500D01*
X179024573Y-86867235D01*
X179125468Y-86360000D01*
X179044236Y-85951616D01*
X183887000Y-85951616D01*
X183887000Y-86526500D01*
X184051500Y-86691000D01*
X185316000Y-86691000D01*
X185316000Y-85589000D01*
X185524000Y-85589000D01*
X185524000Y-86691000D01*
X186788500Y-86691000D01*
X186953000Y-86526500D01*
X186953000Y-85951616D01*
X186852826Y-85709773D01*
X186667727Y-85524675D01*
X186425885Y-85424500D01*
X185688500Y-85424500D01*
X185524000Y-85589000D01*
X185316000Y-85589000D01*
X185151500Y-85424500D01*
X184414115Y-85424500D01*
X184172273Y-85524675D01*
X183987174Y-85709773D01*
X183887000Y-85951616D01*
X179044236Y-85951616D01*
X179024573Y-85852765D01*
X178737247Y-85422753D01*
X178307235Y-85135427D01*
X178078858Y-85090000D01*
X178307235Y-85044573D01*
X178737247Y-84757247D01*
X179024573Y-84327235D01*
X179125468Y-83820000D01*
X179033472Y-83357500D01*
X184086184Y-83357500D01*
X184086184Y-84282500D01*
X184140139Y-84553752D01*
X184293791Y-84783709D01*
X184523748Y-84937361D01*
X184795000Y-84991316D01*
X186045000Y-84991316D01*
X186316252Y-84937361D01*
X186546209Y-84783709D01*
X186699861Y-84553752D01*
X186726466Y-84420000D01*
X187923534Y-84420000D01*
X187950139Y-84553752D01*
X188103791Y-84783709D01*
X188333748Y-84937361D01*
X188605000Y-84991316D01*
X189855000Y-84991316D01*
X190126252Y-84937361D01*
X190356209Y-84783709D01*
X190509861Y-84553752D01*
X190563816Y-84282500D01*
X190563816Y-83357500D01*
X190509861Y-83086248D01*
X190356209Y-82856291D01*
X190126252Y-82702639D01*
X189855000Y-82648684D01*
X188605000Y-82648684D01*
X188333748Y-82702639D01*
X188103791Y-82856291D01*
X187950139Y-83086248D01*
X187923534Y-83220000D01*
X186726466Y-83220000D01*
X186699861Y-83086248D01*
X186546209Y-82856291D01*
X186316252Y-82702639D01*
X186045000Y-82648684D01*
X184795000Y-82648684D01*
X184523748Y-82702639D01*
X184293791Y-82856291D01*
X184140139Y-83086248D01*
X184086184Y-83357500D01*
X179033472Y-83357500D01*
X179024573Y-83312765D01*
X178737247Y-82882753D01*
X178307235Y-82595427D01*
X178078858Y-82550000D01*
X178307235Y-82504573D01*
X178737247Y-82217247D01*
X179024573Y-81787235D01*
X179125468Y-81280000D01*
X179024573Y-80772765D01*
X178737247Y-80342753D01*
X178307235Y-80055427D01*
X178078858Y-80010000D01*
X178307235Y-79964573D01*
X178737247Y-79677247D01*
X179024573Y-79247235D01*
X179125468Y-78740000D01*
X179119998Y-78712500D01*
X184086184Y-78712500D01*
X184086184Y-79637500D01*
X184140139Y-79908752D01*
X184293791Y-80138709D01*
X184523748Y-80292361D01*
X184795000Y-80346316D01*
X186045000Y-80346316D01*
X186316252Y-80292361D01*
X186546209Y-80138709D01*
X186699861Y-79908752D01*
X186726466Y-79775000D01*
X187923534Y-79775000D01*
X187950139Y-79908752D01*
X188103791Y-80138709D01*
X188333748Y-80292361D01*
X188605000Y-80346316D01*
X189855000Y-80346316D01*
X190126252Y-80292361D01*
X190356209Y-80138709D01*
X190509861Y-79908752D01*
X190563816Y-79637500D01*
X190563816Y-78712500D01*
X190509861Y-78441248D01*
X190356209Y-78211291D01*
X190126252Y-78057639D01*
X189855000Y-78003684D01*
X188605000Y-78003684D01*
X188333748Y-78057639D01*
X188103791Y-78211291D01*
X187950139Y-78441248D01*
X187923534Y-78575000D01*
X186726466Y-78575000D01*
X186699861Y-78441248D01*
X186546209Y-78211291D01*
X186316252Y-78057639D01*
X186045000Y-78003684D01*
X184795000Y-78003684D01*
X184523748Y-78057639D01*
X184293791Y-78211291D01*
X184140139Y-78441248D01*
X184086184Y-78712500D01*
X179119998Y-78712500D01*
X179024573Y-78232765D01*
X178737247Y-77802753D01*
X178307235Y-77515427D01*
X178078858Y-77470000D01*
X178307235Y-77424573D01*
X178737247Y-77137247D01*
X179024573Y-76707235D01*
X179125468Y-76200000D01*
X179024573Y-75692765D01*
X178737247Y-75262753D01*
X178307235Y-74975427D01*
X178078858Y-74930000D01*
X178307235Y-74884573D01*
X178737247Y-74597247D01*
X179024573Y-74167235D01*
X179125468Y-73660000D01*
X179024573Y-73152765D01*
X178737247Y-72722753D01*
X178377159Y-72482149D01*
X178674730Y-72348387D01*
X179078228Y-71920137D01*
X179269619Y-71458061D01*
X179139469Y-71224000D01*
X177904000Y-71224000D01*
X177904000Y-71244000D01*
X177696000Y-71244000D01*
X177696000Y-71224000D01*
X176460531Y-71224000D01*
X176330381Y-71458061D01*
X176521772Y-71920137D01*
X176925270Y-72348387D01*
X177222841Y-72482149D01*
X176862753Y-72722753D01*
X176575427Y-73152765D01*
X176474532Y-73660000D01*
X176575427Y-74167235D01*
X176862753Y-74597247D01*
X177292765Y-74884573D01*
X177521142Y-74930000D01*
X177292765Y-74975427D01*
X176862753Y-75262753D01*
X176575427Y-75692765D01*
X176474532Y-76200000D01*
X176575427Y-76707235D01*
X176862753Y-77137247D01*
X177292765Y-77424573D01*
X177521142Y-77470000D01*
X177292765Y-77515427D01*
X176862753Y-77802753D01*
X176575427Y-78232765D01*
X176474532Y-78740000D01*
X176575427Y-79247235D01*
X176862753Y-79677247D01*
X177292765Y-79964573D01*
X177521142Y-80010000D01*
X177292765Y-80055427D01*
X176862753Y-80342753D01*
X176575427Y-80772765D01*
X176474532Y-81280000D01*
X176575427Y-81787235D01*
X176862753Y-82217247D01*
X177292765Y-82504573D01*
X177521142Y-82550000D01*
X177292765Y-82595427D01*
X176862753Y-82882753D01*
X176575427Y-83312765D01*
X176474532Y-83820000D01*
X176575427Y-84327235D01*
X176862753Y-84757247D01*
X177292765Y-85044573D01*
X177521142Y-85090000D01*
X177292765Y-85135427D01*
X176862753Y-85422753D01*
X176575427Y-85852765D01*
X176474532Y-86360000D01*
X176575427Y-86867235D01*
X176862753Y-87297247D01*
X177292765Y-87584573D01*
X177521142Y-87630000D01*
X177292765Y-87675427D01*
X176862753Y-87962753D01*
X176575427Y-88392765D01*
X176474532Y-88900000D01*
X176575427Y-89407235D01*
X176862753Y-89837247D01*
X177292765Y-90124573D01*
X177521142Y-90170000D01*
X177292765Y-90215427D01*
X176862753Y-90502753D01*
X176575427Y-90932765D01*
X176474532Y-91440000D01*
X176575427Y-91947235D01*
X176862753Y-92377247D01*
X177292765Y-92664573D01*
X177521142Y-92710000D01*
X177292765Y-92755427D01*
X176862753Y-93042753D01*
X176575427Y-93472765D01*
X176474532Y-93980000D01*
X176575427Y-94487235D01*
X176862753Y-94917247D01*
X177292765Y-95204573D01*
X177521142Y-95250000D01*
X177292765Y-95295427D01*
X176862753Y-95582753D01*
X176575427Y-96012765D01*
X176474532Y-96520000D01*
X176575427Y-97027235D01*
X176862753Y-97457247D01*
X177292765Y-97744573D01*
X177521142Y-97790000D01*
X177292765Y-97835427D01*
X176862753Y-98122753D01*
X176575427Y-98552765D01*
X176474532Y-99060000D01*
X176575427Y-99567235D01*
X176862753Y-99997247D01*
X177292765Y-100284573D01*
X177521142Y-100330000D01*
X177292765Y-100375427D01*
X176862753Y-100662753D01*
X176575427Y-101092765D01*
X176474532Y-101600000D01*
X176575427Y-102107235D01*
X176862753Y-102537247D01*
X177292765Y-102824573D01*
X177521142Y-102870000D01*
X177292765Y-102915427D01*
X176862753Y-103202753D01*
X176575427Y-103632765D01*
X176474532Y-104140000D01*
X176575427Y-104647235D01*
X176862753Y-105077247D01*
X177292765Y-105364573D01*
X177521142Y-105410000D01*
X177292765Y-105455427D01*
X176862753Y-105742753D01*
X176575427Y-106172765D01*
X176474532Y-106680000D01*
X176553661Y-107077811D01*
X174877520Y-108753953D01*
X174827426Y-108787425D01*
X174793954Y-108837519D01*
X174793953Y-108837520D01*
X174694814Y-108985892D01*
X174648247Y-109220000D01*
X174660001Y-109279091D01*
X174660000Y-117536472D01*
X171430000Y-120766473D01*
X171430000Y-120375942D01*
X171459861Y-120331252D01*
X171513816Y-120060000D01*
X171513816Y-119135000D01*
X171459861Y-118863748D01*
X171375384Y-118737319D01*
X171357473Y-118647275D01*
X171081199Y-118233801D01*
X170895917Y-118110000D01*
X171081199Y-117986199D01*
X171357473Y-117572725D01*
X171375384Y-117482681D01*
X171459861Y-117356252D01*
X171513816Y-117085000D01*
X171513816Y-116160000D01*
X171459861Y-115888748D01*
X171430000Y-115844058D01*
X171430000Y-70781939D01*
X176330381Y-70781939D01*
X176460531Y-71016000D01*
X177696000Y-71016000D01*
X177696000Y-70996000D01*
X177904000Y-70996000D01*
X177904000Y-71016000D01*
X179139469Y-71016000D01*
X179269619Y-70781939D01*
X179078228Y-70319863D01*
X178674730Y-69891613D01*
X178377159Y-69757851D01*
X178737247Y-69517247D01*
X178962589Y-69180000D01*
X181361473Y-69180000D01*
X184820000Y-72638528D01*
X184820001Y-75028684D01*
X184795000Y-75028684D01*
X184523748Y-75082639D01*
X184293791Y-75236291D01*
X184140139Y-75466248D01*
X184086184Y-75737500D01*
X184086184Y-76662500D01*
X184140139Y-76933752D01*
X184293791Y-77163709D01*
X184523748Y-77317361D01*
X184795000Y-77371316D01*
X186045000Y-77371316D01*
X186316252Y-77317361D01*
X186546209Y-77163709D01*
X186699861Y-76933752D01*
X186753816Y-76662500D01*
X186753816Y-75737500D01*
X186699861Y-75466248D01*
X186546209Y-75236291D01*
X186316252Y-75082639D01*
X186045000Y-75028684D01*
X186020000Y-75028684D01*
X186020000Y-72449088D01*
X186031753Y-72390000D01*
X186020000Y-72330910D01*
X186020000Y-72330909D01*
X185985187Y-72155892D01*
X185852575Y-71957425D01*
X185802482Y-71923954D01*
X185336589Y-71458061D01*
X190300381Y-71458061D01*
X190491772Y-71920137D01*
X190895270Y-72348387D01*
X191431938Y-72589626D01*
X191666000Y-72459917D01*
X191666000Y-71224000D01*
X191874000Y-71224000D01*
X191874000Y-72459917D01*
X192108062Y-72589626D01*
X192644730Y-72348387D01*
X193048228Y-71920137D01*
X193239619Y-71458061D01*
X193109469Y-71224000D01*
X191874000Y-71224000D01*
X191666000Y-71224000D01*
X190430531Y-71224000D01*
X190300381Y-71458061D01*
X185336589Y-71458061D01*
X184660467Y-70781939D01*
X190300381Y-70781939D01*
X190430531Y-71016000D01*
X191666000Y-71016000D01*
X191666000Y-70996000D01*
X191874000Y-70996000D01*
X191874000Y-71016000D01*
X193109469Y-71016000D01*
X193239619Y-70781939D01*
X193048228Y-70319863D01*
X192644730Y-69891613D01*
X192632830Y-69886264D01*
X192795581Y-69853891D01*
X192944432Y-69754432D01*
X193043891Y-69605581D01*
X193078816Y-69430000D01*
X193078816Y-67730000D01*
X193043891Y-67554419D01*
X192944432Y-67405568D01*
X192795581Y-67306109D01*
X192620000Y-67271184D01*
X190920000Y-67271184D01*
X190744419Y-67306109D01*
X190595568Y-67405568D01*
X190496109Y-67554419D01*
X190461184Y-67730000D01*
X190461184Y-69430000D01*
X190496109Y-69605581D01*
X190595568Y-69754432D01*
X190744419Y-69853891D01*
X190907170Y-69886264D01*
X190895270Y-69891613D01*
X190491772Y-70319863D01*
X190300381Y-70781939D01*
X184660467Y-70781939D01*
X182076049Y-68197522D01*
X182042575Y-68147425D01*
X181844108Y-68014813D01*
X181669091Y-67980000D01*
X181669086Y-67980000D01*
X181610000Y-67968247D01*
X181550914Y-67980000D01*
X178962589Y-67980000D01*
X178737247Y-67642753D01*
X178307235Y-67355427D01*
X177928037Y-67280000D01*
X177671963Y-67280000D01*
X177292765Y-67355427D01*
X176862753Y-67642753D01*
X176575427Y-68072765D01*
X176474532Y-68580000D01*
X176575427Y-69087235D01*
X176862753Y-69517247D01*
X177222841Y-69757851D01*
X176925270Y-69891613D01*
X176521772Y-70319863D01*
X176330381Y-70781939D01*
X171430000Y-70781939D01*
X171430000Y-60947930D01*
X171500581Y-60933891D01*
X171649432Y-60834432D01*
X171748891Y-60685581D01*
X171783816Y-60510000D01*
X171783816Y-58238500D01*
X172692000Y-58238500D01*
X172692000Y-60640884D01*
X172792174Y-60882727D01*
X172977273Y-61067825D01*
X173219115Y-61168000D01*
X173432786Y-61168000D01*
X173407050Y-61240156D01*
X173429817Y-61694299D01*
X173559809Y-62008130D01*
X173782554Y-62040368D01*
X173893685Y-61929237D01*
X173957273Y-61992825D01*
X174075345Y-62041733D01*
X173929632Y-62187446D01*
X173961870Y-62410191D01*
X174390156Y-62562950D01*
X174844299Y-62540183D01*
X175158130Y-62410191D01*
X175190368Y-62187446D01*
X175044655Y-62041733D01*
X175162727Y-61992825D01*
X175226315Y-61929237D01*
X175337446Y-62040368D01*
X175560191Y-62008130D01*
X175712950Y-61579844D01*
X175692304Y-61168000D01*
X175900885Y-61168000D01*
X176142727Y-61067825D01*
X176327826Y-60882727D01*
X176428000Y-60640884D01*
X176428000Y-58238500D01*
X176263500Y-58074000D01*
X174664000Y-58074000D01*
X174664000Y-58094000D01*
X174456000Y-58094000D01*
X174456000Y-58074000D01*
X172856500Y-58074000D01*
X172692000Y-58238500D01*
X171783816Y-58238500D01*
X171783816Y-55430000D01*
X171748891Y-55254419D01*
X171685802Y-55160000D01*
X172749623Y-55160000D01*
X172692000Y-55299116D01*
X172692000Y-57701500D01*
X172856500Y-57866000D01*
X174456000Y-57866000D01*
X174456000Y-57846000D01*
X174664000Y-57846000D01*
X174664000Y-57866000D01*
X176263500Y-57866000D01*
X176428000Y-57701500D01*
X176428000Y-55299116D01*
X176370377Y-55160000D01*
X193760000Y-55160000D01*
X193760001Y-118269624D01*
X193620884Y-118212000D01*
X191218500Y-118212000D01*
X191054000Y-118376500D01*
X191054000Y-119976000D01*
X191074000Y-119976000D01*
X191074000Y-120184000D01*
X191054000Y-120184000D01*
X191054000Y-121783500D01*
X191218500Y-121948000D01*
X193620884Y-121948000D01*
X193760001Y-121890376D01*
X193760001Y-122954198D01*
X193665581Y-122891109D01*
X193490000Y-122856184D01*
X188410000Y-122856184D01*
X188234419Y-122891109D01*
X188085568Y-122990568D01*
X187986109Y-123139419D01*
X187972070Y-123210000D01*
X178795942Y-123210000D01*
X178751252Y-123180139D01*
X178480000Y-123126184D01*
X177555000Y-123126184D01*
X177283748Y-123180139D01*
X177157319Y-123264616D01*
X177067275Y-123282527D01*
X176653801Y-123558801D01*
X176530000Y-123744083D01*
X176406199Y-123558801D01*
X175992725Y-123282527D01*
X175902681Y-123264616D01*
X175776252Y-123180139D01*
X175505000Y-123126184D01*
X174580000Y-123126184D01*
X174308748Y-123180139D01*
X174264058Y-123210000D01*
X171834891Y-123210000D01*
X171470275Y-123282527D01*
X171168999Y-123483833D01*
X171030000Y-123456184D01*
X170864798Y-123456184D01*
X170854391Y-123440609D01*
X170636738Y-123295178D01*
X170380000Y-123244110D01*
X169980000Y-123244110D01*
X169723262Y-123295178D01*
X169505609Y-123440609D01*
X169495202Y-123456184D01*
X169330000Y-123456184D01*
X169191001Y-123483833D01*
X168889725Y-123282527D01*
X168525109Y-123210000D01*
X166095942Y-123210000D01*
X166051252Y-123180139D01*
X165780000Y-123126184D01*
X164855000Y-123126184D01*
X164583748Y-123180139D01*
X164457319Y-123264616D01*
X164367275Y-123282527D01*
X163953801Y-123558801D01*
X163830000Y-123744083D01*
X163706199Y-123558801D01*
X163292725Y-123282527D01*
X163202681Y-123264616D01*
X163076252Y-123180139D01*
X162805000Y-123126184D01*
X161880000Y-123126184D01*
X161608748Y-123180139D01*
X161564058Y-123210000D01*
X152387930Y-123210000D01*
X152373891Y-123139419D01*
X152274432Y-122990568D01*
X152125581Y-122891109D01*
X151950000Y-122856184D01*
X146870000Y-122856184D01*
X146694419Y-122891109D01*
X146600000Y-122954198D01*
X146600000Y-121890377D01*
X146739116Y-121948000D01*
X149141500Y-121948000D01*
X149306000Y-121783500D01*
X149306000Y-120184000D01*
X149286000Y-120184000D01*
X149286000Y-119976000D01*
X149306000Y-119976000D01*
X149306000Y-118376500D01*
X149514000Y-118376500D01*
X149514000Y-119976000D01*
X149534000Y-119976000D01*
X149534000Y-120184000D01*
X149514000Y-120184000D01*
X149514000Y-121783500D01*
X149678500Y-121948000D01*
X152080884Y-121948000D01*
X152322727Y-121847826D01*
X152507825Y-121662727D01*
X152608000Y-121420885D01*
X152608000Y-121207214D01*
X152680156Y-121232950D01*
X153134299Y-121210183D01*
X153448130Y-121080191D01*
X153480368Y-120857446D01*
X153369237Y-120746315D01*
X153432825Y-120682727D01*
X153481733Y-120564655D01*
X153627446Y-120710368D01*
X153850191Y-120678130D01*
X154002950Y-120249844D01*
X153980183Y-119795701D01*
X153850191Y-119481870D01*
X153627446Y-119449632D01*
X153481733Y-119595345D01*
X153432825Y-119477273D01*
X153369237Y-119413685D01*
X153480368Y-119302554D01*
X153448130Y-119079809D01*
X153019844Y-118927050D01*
X152608000Y-118947696D01*
X152608000Y-118739115D01*
X152507825Y-118497273D01*
X152322727Y-118312174D01*
X152080884Y-118212000D01*
X149678500Y-118212000D01*
X149514000Y-118376500D01*
X149306000Y-118376500D01*
X149141500Y-118212000D01*
X146739116Y-118212000D01*
X146600000Y-118269623D01*
X146600000Y-117178061D01*
X161090381Y-117178061D01*
X161281772Y-117640137D01*
X161685270Y-118068387D01*
X162221938Y-118309626D01*
X162456000Y-118179917D01*
X162456000Y-116944000D01*
X162664000Y-116944000D01*
X162664000Y-118179917D01*
X162898062Y-118309626D01*
X163434730Y-118068387D01*
X163838228Y-117640137D01*
X164029619Y-117178061D01*
X163899469Y-116944000D01*
X162664000Y-116944000D01*
X162456000Y-116944000D01*
X161220531Y-116944000D01*
X161090381Y-117178061D01*
X146600000Y-117178061D01*
X146600000Y-114638061D01*
X161090381Y-114638061D01*
X161281772Y-115100137D01*
X161685270Y-115528387D01*
X161777844Y-115570000D01*
X161685270Y-115611613D01*
X161281772Y-116039863D01*
X161090381Y-116501939D01*
X161220531Y-116736000D01*
X162456000Y-116736000D01*
X162456000Y-114404000D01*
X162664000Y-114404000D01*
X162664000Y-116736000D01*
X163899469Y-116736000D01*
X164029619Y-116501939D01*
X163838228Y-116039863D01*
X163434730Y-115611613D01*
X163342156Y-115570000D01*
X163434730Y-115528387D01*
X163838228Y-115100137D01*
X164029619Y-114638061D01*
X163899469Y-114404000D01*
X162664000Y-114404000D01*
X162456000Y-114404000D01*
X161220531Y-114404000D01*
X161090381Y-114638061D01*
X146600000Y-114638061D01*
X146600000Y-93952500D01*
X149796184Y-93952500D01*
X149796184Y-94877500D01*
X149850139Y-95148752D01*
X150003791Y-95378709D01*
X150233748Y-95532361D01*
X150505000Y-95586316D01*
X151755000Y-95586316D01*
X152026252Y-95532361D01*
X152256209Y-95378709D01*
X152409861Y-95148752D01*
X152463816Y-94877500D01*
X152463816Y-93952500D01*
X152460035Y-93933492D01*
X153919312Y-92474216D01*
X154043748Y-92557361D01*
X154315000Y-92611316D01*
X155565000Y-92611316D01*
X155836252Y-92557361D01*
X156066209Y-92403709D01*
X156219861Y-92173752D01*
X156273816Y-91902500D01*
X156273816Y-90977500D01*
X156219861Y-90706248D01*
X156066209Y-90476291D01*
X155836252Y-90322639D01*
X155565000Y-90268684D01*
X154315000Y-90268684D01*
X154043748Y-90322639D01*
X153813791Y-90476291D01*
X153660139Y-90706248D01*
X153606184Y-90977500D01*
X153606184Y-91090288D01*
X151452789Y-93243684D01*
X150505000Y-93243684D01*
X150233748Y-93297639D01*
X150003791Y-93451291D01*
X149850139Y-93681248D01*
X149796184Y-93952500D01*
X146600000Y-93952500D01*
X146600000Y-79078061D01*
X147120381Y-79078061D01*
X147311772Y-79540137D01*
X147715270Y-79968387D01*
X148251938Y-80209626D01*
X148486000Y-80079917D01*
X148486000Y-78844000D01*
X148694000Y-78844000D01*
X148694000Y-80079917D01*
X148928062Y-80209626D01*
X149464730Y-79968387D01*
X149868228Y-79540137D01*
X150059619Y-79078061D01*
X149929469Y-78844000D01*
X148694000Y-78844000D01*
X148486000Y-78844000D01*
X147250531Y-78844000D01*
X147120381Y-79078061D01*
X146600000Y-79078061D01*
X146600000Y-78401939D01*
X147120381Y-78401939D01*
X147250531Y-78636000D01*
X148486000Y-78636000D01*
X148486000Y-78616000D01*
X148694000Y-78616000D01*
X148694000Y-78636000D01*
X149929469Y-78636000D01*
X150059619Y-78401939D01*
X149868228Y-77939863D01*
X149464730Y-77511613D01*
X149167159Y-77377851D01*
X149527247Y-77137247D01*
X149696066Y-76884593D01*
X150530000Y-77718528D01*
X150530001Y-79761471D01*
X148207522Y-82083951D01*
X148157425Y-82117425D01*
X148024813Y-82315893D01*
X147990000Y-82490910D01*
X147990000Y-82490914D01*
X147978247Y-82550000D01*
X147990000Y-82609086D01*
X147990001Y-88840909D01*
X147978247Y-88900000D01*
X148024814Y-89134108D01*
X148119563Y-89275909D01*
X148157426Y-89332575D01*
X148207520Y-89366047D01*
X149799965Y-90958493D01*
X149796184Y-90977500D01*
X149796184Y-91902500D01*
X149850139Y-92173752D01*
X150003791Y-92403709D01*
X150233748Y-92557361D01*
X150505000Y-92611316D01*
X151755000Y-92611316D01*
X152026252Y-92557361D01*
X152256209Y-92403709D01*
X152409861Y-92173752D01*
X152463816Y-91902500D01*
X152463816Y-90977500D01*
X152409861Y-90706248D01*
X152256209Y-90476291D01*
X152026252Y-90322639D01*
X151755000Y-90268684D01*
X150807212Y-90268684D01*
X149190000Y-88651473D01*
X149190000Y-86332500D01*
X149796184Y-86332500D01*
X149796184Y-87257500D01*
X149850139Y-87528752D01*
X150003791Y-87758709D01*
X150233748Y-87912361D01*
X150505000Y-87966316D01*
X151755000Y-87966316D01*
X152026252Y-87912361D01*
X152256209Y-87758709D01*
X152409861Y-87528752D01*
X152463816Y-87257500D01*
X152463816Y-86332500D01*
X152460035Y-86313492D01*
X153919312Y-84854216D01*
X154043748Y-84937361D01*
X154315000Y-84991316D01*
X155565000Y-84991316D01*
X155836252Y-84937361D01*
X156066209Y-84783709D01*
X156219861Y-84553752D01*
X156273816Y-84282500D01*
X156273816Y-83357500D01*
X156219861Y-83086248D01*
X156066209Y-82856291D01*
X155836252Y-82702639D01*
X155565000Y-82648684D01*
X154315000Y-82648684D01*
X154043748Y-82702639D01*
X153813791Y-82856291D01*
X153660139Y-83086248D01*
X153606184Y-83357500D01*
X153606184Y-83470288D01*
X151452789Y-85623684D01*
X150505000Y-85623684D01*
X150233748Y-85677639D01*
X150003791Y-85831291D01*
X149850139Y-86061248D01*
X149796184Y-86332500D01*
X149190000Y-86332500D01*
X149190000Y-82798527D01*
X151512481Y-80476047D01*
X151562575Y-80442575D01*
X151695187Y-80244108D01*
X151730000Y-80069091D01*
X151730000Y-80069087D01*
X151741753Y-80010001D01*
X151730000Y-79950915D01*
X151730000Y-77529086D01*
X151741753Y-77469999D01*
X151730000Y-77410913D01*
X151730000Y-77410909D01*
X151695187Y-77235892D01*
X151620785Y-77124541D01*
X151596047Y-77087519D01*
X151562575Y-77037425D01*
X151512482Y-77003954D01*
X150326049Y-75817521D01*
X150292575Y-75767425D01*
X150094108Y-75634813D01*
X149919091Y-75600000D01*
X149919086Y-75600000D01*
X149860000Y-75588247D01*
X149800914Y-75600000D01*
X149752589Y-75600000D01*
X149527247Y-75262753D01*
X149097235Y-74975427D01*
X149063999Y-74968816D01*
X149440000Y-74968816D01*
X149615581Y-74933891D01*
X149764432Y-74834432D01*
X149863891Y-74685581D01*
X149872711Y-74641238D01*
X151800000Y-76568528D01*
X151800001Y-82301471D01*
X151452788Y-82648684D01*
X150505000Y-82648684D01*
X150233748Y-82702639D01*
X150003791Y-82856291D01*
X149850139Y-83086248D01*
X149796184Y-83357500D01*
X149796184Y-84282500D01*
X149850139Y-84553752D01*
X150003791Y-84783709D01*
X150233748Y-84937361D01*
X150505000Y-84991316D01*
X151755000Y-84991316D01*
X152026252Y-84937361D01*
X152256209Y-84783709D01*
X152409861Y-84553752D01*
X152463816Y-84282500D01*
X152463816Y-83357500D01*
X152460035Y-83338493D01*
X152782481Y-83016047D01*
X152832575Y-82982575D01*
X152965187Y-82784108D01*
X153000000Y-82609091D01*
X153000000Y-82609087D01*
X153011753Y-82550001D01*
X153000000Y-82490914D01*
X153000000Y-76379086D01*
X153011753Y-76319999D01*
X153000000Y-76260913D01*
X153000000Y-76260909D01*
X152965187Y-76085892D01*
X152832575Y-75887425D01*
X152782482Y-75853954D01*
X150206049Y-73277522D01*
X150172575Y-73227425D01*
X149974108Y-73094813D01*
X149898816Y-73079837D01*
X149898816Y-72810000D01*
X149863891Y-72634419D01*
X149764432Y-72485568D01*
X149615581Y-72386109D01*
X149440000Y-72351184D01*
X147740000Y-72351184D01*
X147564419Y-72386109D01*
X147415568Y-72485568D01*
X147316109Y-72634419D01*
X147281184Y-72810000D01*
X147281184Y-74510000D01*
X147316109Y-74685581D01*
X147415568Y-74834432D01*
X147564419Y-74933891D01*
X147740000Y-74968816D01*
X148116001Y-74968816D01*
X148082765Y-74975427D01*
X147652753Y-75262753D01*
X147365427Y-75692765D01*
X147264532Y-76200000D01*
X147365427Y-76707235D01*
X147652753Y-77137247D01*
X148012841Y-77377851D01*
X147715270Y-77511613D01*
X147311772Y-77939863D01*
X147120381Y-78401939D01*
X146600000Y-78401939D01*
X146600000Y-58238500D01*
X163932000Y-58238500D01*
X163932000Y-60640884D01*
X164032174Y-60882727D01*
X164217273Y-61067825D01*
X164459115Y-61168000D01*
X164672786Y-61168000D01*
X164647050Y-61240156D01*
X164669817Y-61694299D01*
X164799809Y-62008130D01*
X165022554Y-62040368D01*
X165133685Y-61929237D01*
X165197273Y-61992825D01*
X165315345Y-62041733D01*
X165169632Y-62187446D01*
X165201870Y-62410191D01*
X165630156Y-62562950D01*
X166084299Y-62540183D01*
X166398130Y-62410191D01*
X166430368Y-62187446D01*
X166284655Y-62041733D01*
X166402727Y-61992825D01*
X166466315Y-61929237D01*
X166577446Y-62040368D01*
X166800191Y-62008130D01*
X166952950Y-61579844D01*
X166932304Y-61168000D01*
X167140885Y-61168000D01*
X167382727Y-61067825D01*
X167567826Y-60882727D01*
X167668000Y-60640884D01*
X167668000Y-58238500D01*
X167503500Y-58074000D01*
X165904000Y-58074000D01*
X165904000Y-58094000D01*
X165696000Y-58094000D01*
X165696000Y-58074000D01*
X164096500Y-58074000D01*
X163932000Y-58238500D01*
X146600000Y-58238500D01*
X146600000Y-55160000D01*
X163989623Y-55160000D01*
X163932000Y-55299116D01*
M02*
