%TF.GenerationSoftware,KiCad,Pcbnew,(5.0.0)*%
%TF.CreationDate,2018-11-11T16:52:16+07:00*%
%TF.ProjectId,AntennaSwitch_v1.1,416E74656E6E615377697463685F7631,rev?*%
%TF.SameCoordinates,Original*%
%TF.FileFunction,Soldermask,Top*%
%TF.FilePolarity,Negative*%
%FSLAX46Y46*%
G04 Gerber Fmt 4.6, Leading zero omitted, Abs format (unit mm)*
G04 Created by KiCad (PCBNEW (5.0.0)) date 11/11/18 16:52:16*
%MOMM*%
%LPD*%
G01*
G04 APERTURE LIST*
%ADD10C,0.200000*%
%ADD11C,0.100000*%
%ADD12C,1.825000*%
%ADD13C,0.800000*%
%ADD14R,5.480000X2.820000*%
%ADD15R,5.480000X2.690000*%
%ADD16R,2.690000X5.480000*%
%ADD17R,2.820000X5.480000*%
%ADD18R,2.100000X2.100000*%
%ADD19O,2.100000X2.100000*%
G04 APERTURE END LIST*
D10*
X194310000Y-54610000D02*
X194310000Y-130810000D01*
X146050000Y-54610000D02*
X194310000Y-54610000D01*
X146050000Y-130810000D02*
X146050000Y-54610000D01*
X194310000Y-130810000D02*
X146050000Y-130810000D01*
D11*
G36*
X151916207Y-90529042D02*
X151947287Y-90533652D01*
X151977766Y-90541287D01*
X152007350Y-90551872D01*
X152035754Y-90565306D01*
X152062704Y-90581459D01*
X152087942Y-90600177D01*
X152111223Y-90621277D01*
X152132323Y-90644558D01*
X152151041Y-90669796D01*
X152167194Y-90696746D01*
X152180628Y-90725150D01*
X152191213Y-90754734D01*
X152198848Y-90785213D01*
X152203458Y-90816293D01*
X152205000Y-90847676D01*
X152205000Y-92032324D01*
X152203458Y-92063707D01*
X152198848Y-92094787D01*
X152191213Y-92125266D01*
X152180628Y-92154850D01*
X152167194Y-92183254D01*
X152151041Y-92210204D01*
X152132323Y-92235442D01*
X152111223Y-92258723D01*
X152087942Y-92279823D01*
X152062704Y-92298541D01*
X152035754Y-92314694D01*
X152007350Y-92328128D01*
X151977766Y-92338713D01*
X151947287Y-92346348D01*
X151916207Y-92350958D01*
X151884824Y-92352500D01*
X150375176Y-92352500D01*
X150343793Y-92350958D01*
X150312713Y-92346348D01*
X150282234Y-92338713D01*
X150252650Y-92328128D01*
X150224246Y-92314694D01*
X150197296Y-92298541D01*
X150172058Y-92279823D01*
X150148777Y-92258723D01*
X150127677Y-92235442D01*
X150108959Y-92210204D01*
X150092806Y-92183254D01*
X150079372Y-92154850D01*
X150068787Y-92125266D01*
X150061152Y-92094787D01*
X150056542Y-92063707D01*
X150055000Y-92032324D01*
X150055000Y-90847676D01*
X150056542Y-90816293D01*
X150061152Y-90785213D01*
X150068787Y-90754734D01*
X150079372Y-90725150D01*
X150092806Y-90696746D01*
X150108959Y-90669796D01*
X150127677Y-90644558D01*
X150148777Y-90621277D01*
X150172058Y-90600177D01*
X150197296Y-90581459D01*
X150224246Y-90565306D01*
X150252650Y-90551872D01*
X150282234Y-90541287D01*
X150312713Y-90533652D01*
X150343793Y-90529042D01*
X150375176Y-90527500D01*
X151884824Y-90527500D01*
X151916207Y-90529042D01*
X151916207Y-90529042D01*
G37*
D12*
X151130000Y-91440000D03*
D11*
G36*
X151916207Y-93504042D02*
X151947287Y-93508652D01*
X151977766Y-93516287D01*
X152007350Y-93526872D01*
X152035754Y-93540306D01*
X152062704Y-93556459D01*
X152087942Y-93575177D01*
X152111223Y-93596277D01*
X152132323Y-93619558D01*
X152151041Y-93644796D01*
X152167194Y-93671746D01*
X152180628Y-93700150D01*
X152191213Y-93729734D01*
X152198848Y-93760213D01*
X152203458Y-93791293D01*
X152205000Y-93822676D01*
X152205000Y-95007324D01*
X152203458Y-95038707D01*
X152198848Y-95069787D01*
X152191213Y-95100266D01*
X152180628Y-95129850D01*
X152167194Y-95158254D01*
X152151041Y-95185204D01*
X152132323Y-95210442D01*
X152111223Y-95233723D01*
X152087942Y-95254823D01*
X152062704Y-95273541D01*
X152035754Y-95289694D01*
X152007350Y-95303128D01*
X151977766Y-95313713D01*
X151947287Y-95321348D01*
X151916207Y-95325958D01*
X151884824Y-95327500D01*
X150375176Y-95327500D01*
X150343793Y-95325958D01*
X150312713Y-95321348D01*
X150282234Y-95313713D01*
X150252650Y-95303128D01*
X150224246Y-95289694D01*
X150197296Y-95273541D01*
X150172058Y-95254823D01*
X150148777Y-95233723D01*
X150127677Y-95210442D01*
X150108959Y-95185204D01*
X150092806Y-95158254D01*
X150079372Y-95129850D01*
X150068787Y-95100266D01*
X150061152Y-95069787D01*
X150056542Y-95038707D01*
X150055000Y-95007324D01*
X150055000Y-93822676D01*
X150056542Y-93791293D01*
X150061152Y-93760213D01*
X150068787Y-93729734D01*
X150079372Y-93700150D01*
X150092806Y-93671746D01*
X150108959Y-93644796D01*
X150127677Y-93619558D01*
X150148777Y-93596277D01*
X150172058Y-93575177D01*
X150197296Y-93556459D01*
X150224246Y-93540306D01*
X150252650Y-93526872D01*
X150282234Y-93516287D01*
X150312713Y-93508652D01*
X150343793Y-93504042D01*
X150375176Y-93502500D01*
X151884824Y-93502500D01*
X151916207Y-93504042D01*
X151916207Y-93504042D01*
G37*
D12*
X151130000Y-94415000D03*
D13*
X170180000Y-124165000D03*
D11*
G36*
X169780000Y-124615000D02*
X169780000Y-123715000D01*
X170580000Y-123715000D01*
X170580000Y-124615000D01*
X169780000Y-124615000D01*
X169780000Y-124615000D01*
G37*
D13*
X169530000Y-124165000D03*
D11*
G36*
X169130000Y-124615000D02*
X169130000Y-123715000D01*
X169930000Y-123715000D01*
X169930000Y-124615000D01*
X169130000Y-124615000D01*
X169130000Y-124615000D01*
G37*
D13*
X170830000Y-124165000D03*
D11*
G36*
X170430000Y-124615000D02*
X170430000Y-123715000D01*
X171230000Y-123715000D01*
X171230000Y-124615000D01*
X170430000Y-124615000D01*
X170430000Y-124615000D01*
G37*
D13*
X170830000Y-122215000D03*
D11*
G36*
X170430000Y-122665000D02*
X170430000Y-121765000D01*
X171230000Y-121765000D01*
X171230000Y-122665000D01*
X170430000Y-122665000D01*
X170430000Y-122665000D01*
G37*
D13*
X170180000Y-122215000D03*
D11*
G36*
X169780000Y-122665000D02*
X169780000Y-121765000D01*
X170580000Y-121765000D01*
X170580000Y-122665000D01*
X169780000Y-122665000D01*
X169780000Y-122665000D01*
G37*
D13*
X169530000Y-122215000D03*
D11*
G36*
X169130000Y-122665000D02*
X169130000Y-121765000D01*
X169930000Y-121765000D01*
X169930000Y-122665000D01*
X169130000Y-122665000D01*
X169130000Y-122665000D01*
G37*
D14*
X190950000Y-120080000D03*
X190950000Y-128840000D03*
D15*
X190950000Y-124460000D03*
D16*
X170180000Y-57970000D03*
D17*
X174560000Y-57970000D03*
X165800000Y-57970000D03*
D15*
X149410000Y-124460000D03*
D14*
X149410000Y-120080000D03*
X149410000Y-128840000D03*
D18*
X148590000Y-73660000D03*
D19*
X148590000Y-76200000D03*
X148590000Y-78740000D03*
D18*
X177800000Y-116840000D03*
D19*
X177800000Y-114300000D03*
X177800000Y-111760000D03*
X177800000Y-109220000D03*
X177800000Y-106680000D03*
X177800000Y-104140000D03*
X177800000Y-101600000D03*
X177800000Y-99060000D03*
X177800000Y-96520000D03*
X177800000Y-93980000D03*
X177800000Y-91440000D03*
X177800000Y-88900000D03*
X177800000Y-86360000D03*
X177800000Y-83820000D03*
X177800000Y-81280000D03*
X177800000Y-78740000D03*
X177800000Y-76200000D03*
X177800000Y-73660000D03*
X177800000Y-71120000D03*
X177800000Y-68580000D03*
X162560000Y-116840000D03*
X162560000Y-114300000D03*
X162560000Y-111760000D03*
X162560000Y-109220000D03*
X162560000Y-106680000D03*
X162560000Y-104140000D03*
X162560000Y-101600000D03*
X162560000Y-99060000D03*
X162560000Y-96520000D03*
X162560000Y-93980000D03*
X162560000Y-91440000D03*
X162560000Y-88900000D03*
X162560000Y-86360000D03*
X162560000Y-83820000D03*
X162560000Y-81280000D03*
X162560000Y-78740000D03*
X162560000Y-76200000D03*
X162560000Y-73660000D03*
X162560000Y-71120000D03*
D18*
X162560000Y-68580000D03*
X191770000Y-68580000D03*
D19*
X191770000Y-71120000D03*
D11*
G36*
X175666207Y-123386542D02*
X175697287Y-123391152D01*
X175727766Y-123398787D01*
X175757350Y-123409372D01*
X175785754Y-123422806D01*
X175812704Y-123438959D01*
X175837942Y-123457677D01*
X175861223Y-123478777D01*
X175882323Y-123502058D01*
X175901041Y-123527296D01*
X175917194Y-123554246D01*
X175930628Y-123582650D01*
X175941213Y-123612234D01*
X175948848Y-123642713D01*
X175953458Y-123673793D01*
X175955000Y-123705176D01*
X175955000Y-125214824D01*
X175953458Y-125246207D01*
X175948848Y-125277287D01*
X175941213Y-125307766D01*
X175930628Y-125337350D01*
X175917194Y-125365754D01*
X175901041Y-125392704D01*
X175882323Y-125417942D01*
X175861223Y-125441223D01*
X175837942Y-125462323D01*
X175812704Y-125481041D01*
X175785754Y-125497194D01*
X175757350Y-125510628D01*
X175727766Y-125521213D01*
X175697287Y-125528848D01*
X175666207Y-125533458D01*
X175634824Y-125535000D01*
X174450176Y-125535000D01*
X174418793Y-125533458D01*
X174387713Y-125528848D01*
X174357234Y-125521213D01*
X174327650Y-125510628D01*
X174299246Y-125497194D01*
X174272296Y-125481041D01*
X174247058Y-125462323D01*
X174223777Y-125441223D01*
X174202677Y-125417942D01*
X174183959Y-125392704D01*
X174167806Y-125365754D01*
X174154372Y-125337350D01*
X174143787Y-125307766D01*
X174136152Y-125277287D01*
X174131542Y-125246207D01*
X174130000Y-125214824D01*
X174130000Y-123705176D01*
X174131542Y-123673793D01*
X174136152Y-123642713D01*
X174143787Y-123612234D01*
X174154372Y-123582650D01*
X174167806Y-123554246D01*
X174183959Y-123527296D01*
X174202677Y-123502058D01*
X174223777Y-123478777D01*
X174247058Y-123457677D01*
X174272296Y-123438959D01*
X174299246Y-123422806D01*
X174327650Y-123409372D01*
X174357234Y-123398787D01*
X174387713Y-123391152D01*
X174418793Y-123386542D01*
X174450176Y-123385000D01*
X175634824Y-123385000D01*
X175666207Y-123386542D01*
X175666207Y-123386542D01*
G37*
D12*
X175042500Y-124460000D03*
D11*
G36*
X178641207Y-123386542D02*
X178672287Y-123391152D01*
X178702766Y-123398787D01*
X178732350Y-123409372D01*
X178760754Y-123422806D01*
X178787704Y-123438959D01*
X178812942Y-123457677D01*
X178836223Y-123478777D01*
X178857323Y-123502058D01*
X178876041Y-123527296D01*
X178892194Y-123554246D01*
X178905628Y-123582650D01*
X178916213Y-123612234D01*
X178923848Y-123642713D01*
X178928458Y-123673793D01*
X178930000Y-123705176D01*
X178930000Y-125214824D01*
X178928458Y-125246207D01*
X178923848Y-125277287D01*
X178916213Y-125307766D01*
X178905628Y-125337350D01*
X178892194Y-125365754D01*
X178876041Y-125392704D01*
X178857323Y-125417942D01*
X178836223Y-125441223D01*
X178812942Y-125462323D01*
X178787704Y-125481041D01*
X178760754Y-125497194D01*
X178732350Y-125510628D01*
X178702766Y-125521213D01*
X178672287Y-125528848D01*
X178641207Y-125533458D01*
X178609824Y-125535000D01*
X177425176Y-125535000D01*
X177393793Y-125533458D01*
X177362713Y-125528848D01*
X177332234Y-125521213D01*
X177302650Y-125510628D01*
X177274246Y-125497194D01*
X177247296Y-125481041D01*
X177222058Y-125462323D01*
X177198777Y-125441223D01*
X177177677Y-125417942D01*
X177158959Y-125392704D01*
X177142806Y-125365754D01*
X177129372Y-125337350D01*
X177118787Y-125307766D01*
X177111152Y-125277287D01*
X177106542Y-125246207D01*
X177105000Y-125214824D01*
X177105000Y-123705176D01*
X177106542Y-123673793D01*
X177111152Y-123642713D01*
X177118787Y-123612234D01*
X177129372Y-123582650D01*
X177142806Y-123554246D01*
X177158959Y-123527296D01*
X177177677Y-123502058D01*
X177198777Y-123478777D01*
X177222058Y-123457677D01*
X177247296Y-123438959D01*
X177274246Y-123422806D01*
X177302650Y-123409372D01*
X177332234Y-123398787D01*
X177362713Y-123391152D01*
X177393793Y-123386542D01*
X177425176Y-123385000D01*
X178609824Y-123385000D01*
X178641207Y-123386542D01*
X178641207Y-123386542D01*
G37*
D12*
X178017500Y-124460000D03*
D11*
G36*
X170966207Y-115711542D02*
X170997287Y-115716152D01*
X171027766Y-115723787D01*
X171057350Y-115734372D01*
X171085754Y-115747806D01*
X171112704Y-115763959D01*
X171137942Y-115782677D01*
X171161223Y-115803777D01*
X171182323Y-115827058D01*
X171201041Y-115852296D01*
X171217194Y-115879246D01*
X171230628Y-115907650D01*
X171241213Y-115937234D01*
X171248848Y-115967713D01*
X171253458Y-115998793D01*
X171255000Y-116030176D01*
X171255000Y-117214824D01*
X171253458Y-117246207D01*
X171248848Y-117277287D01*
X171241213Y-117307766D01*
X171230628Y-117337350D01*
X171217194Y-117365754D01*
X171201041Y-117392704D01*
X171182323Y-117417942D01*
X171161223Y-117441223D01*
X171137942Y-117462323D01*
X171112704Y-117481041D01*
X171085754Y-117497194D01*
X171057350Y-117510628D01*
X171027766Y-117521213D01*
X170997287Y-117528848D01*
X170966207Y-117533458D01*
X170934824Y-117535000D01*
X169425176Y-117535000D01*
X169393793Y-117533458D01*
X169362713Y-117528848D01*
X169332234Y-117521213D01*
X169302650Y-117510628D01*
X169274246Y-117497194D01*
X169247296Y-117481041D01*
X169222058Y-117462323D01*
X169198777Y-117441223D01*
X169177677Y-117417942D01*
X169158959Y-117392704D01*
X169142806Y-117365754D01*
X169129372Y-117337350D01*
X169118787Y-117307766D01*
X169111152Y-117277287D01*
X169106542Y-117246207D01*
X169105000Y-117214824D01*
X169105000Y-116030176D01*
X169106542Y-115998793D01*
X169111152Y-115967713D01*
X169118787Y-115937234D01*
X169129372Y-115907650D01*
X169142806Y-115879246D01*
X169158959Y-115852296D01*
X169177677Y-115827058D01*
X169198777Y-115803777D01*
X169222058Y-115782677D01*
X169247296Y-115763959D01*
X169274246Y-115747806D01*
X169302650Y-115734372D01*
X169332234Y-115723787D01*
X169362713Y-115716152D01*
X169393793Y-115711542D01*
X169425176Y-115710000D01*
X170934824Y-115710000D01*
X170966207Y-115711542D01*
X170966207Y-115711542D01*
G37*
D12*
X170180000Y-116622500D03*
D11*
G36*
X170966207Y-118686542D02*
X170997287Y-118691152D01*
X171027766Y-118698787D01*
X171057350Y-118709372D01*
X171085754Y-118722806D01*
X171112704Y-118738959D01*
X171137942Y-118757677D01*
X171161223Y-118778777D01*
X171182323Y-118802058D01*
X171201041Y-118827296D01*
X171217194Y-118854246D01*
X171230628Y-118882650D01*
X171241213Y-118912234D01*
X171248848Y-118942713D01*
X171253458Y-118973793D01*
X171255000Y-119005176D01*
X171255000Y-120189824D01*
X171253458Y-120221207D01*
X171248848Y-120252287D01*
X171241213Y-120282766D01*
X171230628Y-120312350D01*
X171217194Y-120340754D01*
X171201041Y-120367704D01*
X171182323Y-120392942D01*
X171161223Y-120416223D01*
X171137942Y-120437323D01*
X171112704Y-120456041D01*
X171085754Y-120472194D01*
X171057350Y-120485628D01*
X171027766Y-120496213D01*
X170997287Y-120503848D01*
X170966207Y-120508458D01*
X170934824Y-120510000D01*
X169425176Y-120510000D01*
X169393793Y-120508458D01*
X169362713Y-120503848D01*
X169332234Y-120496213D01*
X169302650Y-120485628D01*
X169274246Y-120472194D01*
X169247296Y-120456041D01*
X169222058Y-120437323D01*
X169198777Y-120416223D01*
X169177677Y-120392942D01*
X169158959Y-120367704D01*
X169142806Y-120340754D01*
X169129372Y-120312350D01*
X169118787Y-120282766D01*
X169111152Y-120252287D01*
X169106542Y-120221207D01*
X169105000Y-120189824D01*
X169105000Y-119005176D01*
X169106542Y-118973793D01*
X169111152Y-118942713D01*
X169118787Y-118912234D01*
X169129372Y-118882650D01*
X169142806Y-118854246D01*
X169158959Y-118827296D01*
X169177677Y-118802058D01*
X169198777Y-118778777D01*
X169222058Y-118757677D01*
X169247296Y-118738959D01*
X169274246Y-118722806D01*
X169302650Y-118709372D01*
X169332234Y-118698787D01*
X169362713Y-118691152D01*
X169393793Y-118686542D01*
X169425176Y-118685000D01*
X170934824Y-118685000D01*
X170966207Y-118686542D01*
X170966207Y-118686542D01*
G37*
D12*
X170180000Y-119597500D03*
D11*
G36*
X162966207Y-123386542D02*
X162997287Y-123391152D01*
X163027766Y-123398787D01*
X163057350Y-123409372D01*
X163085754Y-123422806D01*
X163112704Y-123438959D01*
X163137942Y-123457677D01*
X163161223Y-123478777D01*
X163182323Y-123502058D01*
X163201041Y-123527296D01*
X163217194Y-123554246D01*
X163230628Y-123582650D01*
X163241213Y-123612234D01*
X163248848Y-123642713D01*
X163253458Y-123673793D01*
X163255000Y-123705176D01*
X163255000Y-125214824D01*
X163253458Y-125246207D01*
X163248848Y-125277287D01*
X163241213Y-125307766D01*
X163230628Y-125337350D01*
X163217194Y-125365754D01*
X163201041Y-125392704D01*
X163182323Y-125417942D01*
X163161223Y-125441223D01*
X163137942Y-125462323D01*
X163112704Y-125481041D01*
X163085754Y-125497194D01*
X163057350Y-125510628D01*
X163027766Y-125521213D01*
X162997287Y-125528848D01*
X162966207Y-125533458D01*
X162934824Y-125535000D01*
X161750176Y-125535000D01*
X161718793Y-125533458D01*
X161687713Y-125528848D01*
X161657234Y-125521213D01*
X161627650Y-125510628D01*
X161599246Y-125497194D01*
X161572296Y-125481041D01*
X161547058Y-125462323D01*
X161523777Y-125441223D01*
X161502677Y-125417942D01*
X161483959Y-125392704D01*
X161467806Y-125365754D01*
X161454372Y-125337350D01*
X161443787Y-125307766D01*
X161436152Y-125277287D01*
X161431542Y-125246207D01*
X161430000Y-125214824D01*
X161430000Y-123705176D01*
X161431542Y-123673793D01*
X161436152Y-123642713D01*
X161443787Y-123612234D01*
X161454372Y-123582650D01*
X161467806Y-123554246D01*
X161483959Y-123527296D01*
X161502677Y-123502058D01*
X161523777Y-123478777D01*
X161547058Y-123457677D01*
X161572296Y-123438959D01*
X161599246Y-123422806D01*
X161627650Y-123409372D01*
X161657234Y-123398787D01*
X161687713Y-123391152D01*
X161718793Y-123386542D01*
X161750176Y-123385000D01*
X162934824Y-123385000D01*
X162966207Y-123386542D01*
X162966207Y-123386542D01*
G37*
D12*
X162342500Y-124460000D03*
D11*
G36*
X165941207Y-123386542D02*
X165972287Y-123391152D01*
X166002766Y-123398787D01*
X166032350Y-123409372D01*
X166060754Y-123422806D01*
X166087704Y-123438959D01*
X166112942Y-123457677D01*
X166136223Y-123478777D01*
X166157323Y-123502058D01*
X166176041Y-123527296D01*
X166192194Y-123554246D01*
X166205628Y-123582650D01*
X166216213Y-123612234D01*
X166223848Y-123642713D01*
X166228458Y-123673793D01*
X166230000Y-123705176D01*
X166230000Y-125214824D01*
X166228458Y-125246207D01*
X166223848Y-125277287D01*
X166216213Y-125307766D01*
X166205628Y-125337350D01*
X166192194Y-125365754D01*
X166176041Y-125392704D01*
X166157323Y-125417942D01*
X166136223Y-125441223D01*
X166112942Y-125462323D01*
X166087704Y-125481041D01*
X166060754Y-125497194D01*
X166032350Y-125510628D01*
X166002766Y-125521213D01*
X165972287Y-125528848D01*
X165941207Y-125533458D01*
X165909824Y-125535000D01*
X164725176Y-125535000D01*
X164693793Y-125533458D01*
X164662713Y-125528848D01*
X164632234Y-125521213D01*
X164602650Y-125510628D01*
X164574246Y-125497194D01*
X164547296Y-125481041D01*
X164522058Y-125462323D01*
X164498777Y-125441223D01*
X164477677Y-125417942D01*
X164458959Y-125392704D01*
X164442806Y-125365754D01*
X164429372Y-125337350D01*
X164418787Y-125307766D01*
X164411152Y-125277287D01*
X164406542Y-125246207D01*
X164405000Y-125214824D01*
X164405000Y-123705176D01*
X164406542Y-123673793D01*
X164411152Y-123642713D01*
X164418787Y-123612234D01*
X164429372Y-123582650D01*
X164442806Y-123554246D01*
X164458959Y-123527296D01*
X164477677Y-123502058D01*
X164498777Y-123478777D01*
X164522058Y-123457677D01*
X164547296Y-123438959D01*
X164574246Y-123422806D01*
X164602650Y-123409372D01*
X164632234Y-123398787D01*
X164662713Y-123391152D01*
X164693793Y-123386542D01*
X164725176Y-123385000D01*
X165909824Y-123385000D01*
X165941207Y-123386542D01*
X165941207Y-123386542D01*
G37*
D12*
X165317500Y-124460000D03*
D11*
G36*
X190016207Y-85884042D02*
X190047287Y-85888652D01*
X190077766Y-85896287D01*
X190107350Y-85906872D01*
X190135754Y-85920306D01*
X190162704Y-85936459D01*
X190187942Y-85955177D01*
X190211223Y-85976277D01*
X190232323Y-85999558D01*
X190251041Y-86024796D01*
X190267194Y-86051746D01*
X190280628Y-86080150D01*
X190291213Y-86109734D01*
X190298848Y-86140213D01*
X190303458Y-86171293D01*
X190305000Y-86202676D01*
X190305000Y-87387324D01*
X190303458Y-87418707D01*
X190298848Y-87449787D01*
X190291213Y-87480266D01*
X190280628Y-87509850D01*
X190267194Y-87538254D01*
X190251041Y-87565204D01*
X190232323Y-87590442D01*
X190211223Y-87613723D01*
X190187942Y-87634823D01*
X190162704Y-87653541D01*
X190135754Y-87669694D01*
X190107350Y-87683128D01*
X190077766Y-87693713D01*
X190047287Y-87701348D01*
X190016207Y-87705958D01*
X189984824Y-87707500D01*
X188475176Y-87707500D01*
X188443793Y-87705958D01*
X188412713Y-87701348D01*
X188382234Y-87693713D01*
X188352650Y-87683128D01*
X188324246Y-87669694D01*
X188297296Y-87653541D01*
X188272058Y-87634823D01*
X188248777Y-87613723D01*
X188227677Y-87590442D01*
X188208959Y-87565204D01*
X188192806Y-87538254D01*
X188179372Y-87509850D01*
X188168787Y-87480266D01*
X188161152Y-87449787D01*
X188156542Y-87418707D01*
X188155000Y-87387324D01*
X188155000Y-86202676D01*
X188156542Y-86171293D01*
X188161152Y-86140213D01*
X188168787Y-86109734D01*
X188179372Y-86080150D01*
X188192806Y-86051746D01*
X188208959Y-86024796D01*
X188227677Y-85999558D01*
X188248777Y-85976277D01*
X188272058Y-85955177D01*
X188297296Y-85936459D01*
X188324246Y-85920306D01*
X188352650Y-85906872D01*
X188382234Y-85896287D01*
X188412713Y-85888652D01*
X188443793Y-85884042D01*
X188475176Y-85882500D01*
X189984824Y-85882500D01*
X190016207Y-85884042D01*
X190016207Y-85884042D01*
G37*
D12*
X189230000Y-86795000D03*
D11*
G36*
X190016207Y-82909042D02*
X190047287Y-82913652D01*
X190077766Y-82921287D01*
X190107350Y-82931872D01*
X190135754Y-82945306D01*
X190162704Y-82961459D01*
X190187942Y-82980177D01*
X190211223Y-83001277D01*
X190232323Y-83024558D01*
X190251041Y-83049796D01*
X190267194Y-83076746D01*
X190280628Y-83105150D01*
X190291213Y-83134734D01*
X190298848Y-83165213D01*
X190303458Y-83196293D01*
X190305000Y-83227676D01*
X190305000Y-84412324D01*
X190303458Y-84443707D01*
X190298848Y-84474787D01*
X190291213Y-84505266D01*
X190280628Y-84534850D01*
X190267194Y-84563254D01*
X190251041Y-84590204D01*
X190232323Y-84615442D01*
X190211223Y-84638723D01*
X190187942Y-84659823D01*
X190162704Y-84678541D01*
X190135754Y-84694694D01*
X190107350Y-84708128D01*
X190077766Y-84718713D01*
X190047287Y-84726348D01*
X190016207Y-84730958D01*
X189984824Y-84732500D01*
X188475176Y-84732500D01*
X188443793Y-84730958D01*
X188412713Y-84726348D01*
X188382234Y-84718713D01*
X188352650Y-84708128D01*
X188324246Y-84694694D01*
X188297296Y-84678541D01*
X188272058Y-84659823D01*
X188248777Y-84638723D01*
X188227677Y-84615442D01*
X188208959Y-84590204D01*
X188192806Y-84563254D01*
X188179372Y-84534850D01*
X188168787Y-84505266D01*
X188161152Y-84474787D01*
X188156542Y-84443707D01*
X188155000Y-84412324D01*
X188155000Y-83227676D01*
X188156542Y-83196293D01*
X188161152Y-83165213D01*
X188168787Y-83134734D01*
X188179372Y-83105150D01*
X188192806Y-83076746D01*
X188208959Y-83049796D01*
X188227677Y-83024558D01*
X188248777Y-83001277D01*
X188272058Y-82980177D01*
X188297296Y-82961459D01*
X188324246Y-82945306D01*
X188352650Y-82931872D01*
X188382234Y-82921287D01*
X188412713Y-82913652D01*
X188443793Y-82909042D01*
X188475176Y-82907500D01*
X189984824Y-82907500D01*
X190016207Y-82909042D01*
X190016207Y-82909042D01*
G37*
D12*
X189230000Y-83820000D03*
D11*
G36*
X190016207Y-75289042D02*
X190047287Y-75293652D01*
X190077766Y-75301287D01*
X190107350Y-75311872D01*
X190135754Y-75325306D01*
X190162704Y-75341459D01*
X190187942Y-75360177D01*
X190211223Y-75381277D01*
X190232323Y-75404558D01*
X190251041Y-75429796D01*
X190267194Y-75456746D01*
X190280628Y-75485150D01*
X190291213Y-75514734D01*
X190298848Y-75545213D01*
X190303458Y-75576293D01*
X190305000Y-75607676D01*
X190305000Y-76792324D01*
X190303458Y-76823707D01*
X190298848Y-76854787D01*
X190291213Y-76885266D01*
X190280628Y-76914850D01*
X190267194Y-76943254D01*
X190251041Y-76970204D01*
X190232323Y-76995442D01*
X190211223Y-77018723D01*
X190187942Y-77039823D01*
X190162704Y-77058541D01*
X190135754Y-77074694D01*
X190107350Y-77088128D01*
X190077766Y-77098713D01*
X190047287Y-77106348D01*
X190016207Y-77110958D01*
X189984824Y-77112500D01*
X188475176Y-77112500D01*
X188443793Y-77110958D01*
X188412713Y-77106348D01*
X188382234Y-77098713D01*
X188352650Y-77088128D01*
X188324246Y-77074694D01*
X188297296Y-77058541D01*
X188272058Y-77039823D01*
X188248777Y-77018723D01*
X188227677Y-76995442D01*
X188208959Y-76970204D01*
X188192806Y-76943254D01*
X188179372Y-76914850D01*
X188168787Y-76885266D01*
X188161152Y-76854787D01*
X188156542Y-76823707D01*
X188155000Y-76792324D01*
X188155000Y-75607676D01*
X188156542Y-75576293D01*
X188161152Y-75545213D01*
X188168787Y-75514734D01*
X188179372Y-75485150D01*
X188192806Y-75456746D01*
X188208959Y-75429796D01*
X188227677Y-75404558D01*
X188248777Y-75381277D01*
X188272058Y-75360177D01*
X188297296Y-75341459D01*
X188324246Y-75325306D01*
X188352650Y-75311872D01*
X188382234Y-75301287D01*
X188412713Y-75293652D01*
X188443793Y-75289042D01*
X188475176Y-75287500D01*
X189984824Y-75287500D01*
X190016207Y-75289042D01*
X190016207Y-75289042D01*
G37*
D12*
X189230000Y-76200000D03*
D11*
G36*
X190016207Y-78264042D02*
X190047287Y-78268652D01*
X190077766Y-78276287D01*
X190107350Y-78286872D01*
X190135754Y-78300306D01*
X190162704Y-78316459D01*
X190187942Y-78335177D01*
X190211223Y-78356277D01*
X190232323Y-78379558D01*
X190251041Y-78404796D01*
X190267194Y-78431746D01*
X190280628Y-78460150D01*
X190291213Y-78489734D01*
X190298848Y-78520213D01*
X190303458Y-78551293D01*
X190305000Y-78582676D01*
X190305000Y-79767324D01*
X190303458Y-79798707D01*
X190298848Y-79829787D01*
X190291213Y-79860266D01*
X190280628Y-79889850D01*
X190267194Y-79918254D01*
X190251041Y-79945204D01*
X190232323Y-79970442D01*
X190211223Y-79993723D01*
X190187942Y-80014823D01*
X190162704Y-80033541D01*
X190135754Y-80049694D01*
X190107350Y-80063128D01*
X190077766Y-80073713D01*
X190047287Y-80081348D01*
X190016207Y-80085958D01*
X189984824Y-80087500D01*
X188475176Y-80087500D01*
X188443793Y-80085958D01*
X188412713Y-80081348D01*
X188382234Y-80073713D01*
X188352650Y-80063128D01*
X188324246Y-80049694D01*
X188297296Y-80033541D01*
X188272058Y-80014823D01*
X188248777Y-79993723D01*
X188227677Y-79970442D01*
X188208959Y-79945204D01*
X188192806Y-79918254D01*
X188179372Y-79889850D01*
X188168787Y-79860266D01*
X188161152Y-79829787D01*
X188156542Y-79798707D01*
X188155000Y-79767324D01*
X188155000Y-78582676D01*
X188156542Y-78551293D01*
X188161152Y-78520213D01*
X188168787Y-78489734D01*
X188179372Y-78460150D01*
X188192806Y-78431746D01*
X188208959Y-78404796D01*
X188227677Y-78379558D01*
X188248777Y-78356277D01*
X188272058Y-78335177D01*
X188297296Y-78316459D01*
X188324246Y-78300306D01*
X188352650Y-78286872D01*
X188382234Y-78276287D01*
X188412713Y-78268652D01*
X188443793Y-78264042D01*
X188475176Y-78262500D01*
X189984824Y-78262500D01*
X190016207Y-78264042D01*
X190016207Y-78264042D01*
G37*
D12*
X189230000Y-79175000D03*
D11*
G36*
X151916207Y-85884042D02*
X151947287Y-85888652D01*
X151977766Y-85896287D01*
X152007350Y-85906872D01*
X152035754Y-85920306D01*
X152062704Y-85936459D01*
X152087942Y-85955177D01*
X152111223Y-85976277D01*
X152132323Y-85999558D01*
X152151041Y-86024796D01*
X152167194Y-86051746D01*
X152180628Y-86080150D01*
X152191213Y-86109734D01*
X152198848Y-86140213D01*
X152203458Y-86171293D01*
X152205000Y-86202676D01*
X152205000Y-87387324D01*
X152203458Y-87418707D01*
X152198848Y-87449787D01*
X152191213Y-87480266D01*
X152180628Y-87509850D01*
X152167194Y-87538254D01*
X152151041Y-87565204D01*
X152132323Y-87590442D01*
X152111223Y-87613723D01*
X152087942Y-87634823D01*
X152062704Y-87653541D01*
X152035754Y-87669694D01*
X152007350Y-87683128D01*
X151977766Y-87693713D01*
X151947287Y-87701348D01*
X151916207Y-87705958D01*
X151884824Y-87707500D01*
X150375176Y-87707500D01*
X150343793Y-87705958D01*
X150312713Y-87701348D01*
X150282234Y-87693713D01*
X150252650Y-87683128D01*
X150224246Y-87669694D01*
X150197296Y-87653541D01*
X150172058Y-87634823D01*
X150148777Y-87613723D01*
X150127677Y-87590442D01*
X150108959Y-87565204D01*
X150092806Y-87538254D01*
X150079372Y-87509850D01*
X150068787Y-87480266D01*
X150061152Y-87449787D01*
X150056542Y-87418707D01*
X150055000Y-87387324D01*
X150055000Y-86202676D01*
X150056542Y-86171293D01*
X150061152Y-86140213D01*
X150068787Y-86109734D01*
X150079372Y-86080150D01*
X150092806Y-86051746D01*
X150108959Y-86024796D01*
X150127677Y-85999558D01*
X150148777Y-85976277D01*
X150172058Y-85955177D01*
X150197296Y-85936459D01*
X150224246Y-85920306D01*
X150252650Y-85906872D01*
X150282234Y-85896287D01*
X150312713Y-85888652D01*
X150343793Y-85884042D01*
X150375176Y-85882500D01*
X151884824Y-85882500D01*
X151916207Y-85884042D01*
X151916207Y-85884042D01*
G37*
D12*
X151130000Y-86795000D03*
D11*
G36*
X151916207Y-82909042D02*
X151947287Y-82913652D01*
X151977766Y-82921287D01*
X152007350Y-82931872D01*
X152035754Y-82945306D01*
X152062704Y-82961459D01*
X152087942Y-82980177D01*
X152111223Y-83001277D01*
X152132323Y-83024558D01*
X152151041Y-83049796D01*
X152167194Y-83076746D01*
X152180628Y-83105150D01*
X152191213Y-83134734D01*
X152198848Y-83165213D01*
X152203458Y-83196293D01*
X152205000Y-83227676D01*
X152205000Y-84412324D01*
X152203458Y-84443707D01*
X152198848Y-84474787D01*
X152191213Y-84505266D01*
X152180628Y-84534850D01*
X152167194Y-84563254D01*
X152151041Y-84590204D01*
X152132323Y-84615442D01*
X152111223Y-84638723D01*
X152087942Y-84659823D01*
X152062704Y-84678541D01*
X152035754Y-84694694D01*
X152007350Y-84708128D01*
X151977766Y-84718713D01*
X151947287Y-84726348D01*
X151916207Y-84730958D01*
X151884824Y-84732500D01*
X150375176Y-84732500D01*
X150343793Y-84730958D01*
X150312713Y-84726348D01*
X150282234Y-84718713D01*
X150252650Y-84708128D01*
X150224246Y-84694694D01*
X150197296Y-84678541D01*
X150172058Y-84659823D01*
X150148777Y-84638723D01*
X150127677Y-84615442D01*
X150108959Y-84590204D01*
X150092806Y-84563254D01*
X150079372Y-84534850D01*
X150068787Y-84505266D01*
X150061152Y-84474787D01*
X150056542Y-84443707D01*
X150055000Y-84412324D01*
X150055000Y-83227676D01*
X150056542Y-83196293D01*
X150061152Y-83165213D01*
X150068787Y-83134734D01*
X150079372Y-83105150D01*
X150092806Y-83076746D01*
X150108959Y-83049796D01*
X150127677Y-83024558D01*
X150148777Y-83001277D01*
X150172058Y-82980177D01*
X150197296Y-82961459D01*
X150224246Y-82945306D01*
X150252650Y-82931872D01*
X150282234Y-82921287D01*
X150312713Y-82913652D01*
X150343793Y-82909042D01*
X150375176Y-82907500D01*
X151884824Y-82907500D01*
X151916207Y-82909042D01*
X151916207Y-82909042D01*
G37*
D12*
X151130000Y-83820000D03*
D11*
G36*
X186206207Y-85884042D02*
X186237287Y-85888652D01*
X186267766Y-85896287D01*
X186297350Y-85906872D01*
X186325754Y-85920306D01*
X186352704Y-85936459D01*
X186377942Y-85955177D01*
X186401223Y-85976277D01*
X186422323Y-85999558D01*
X186441041Y-86024796D01*
X186457194Y-86051746D01*
X186470628Y-86080150D01*
X186481213Y-86109734D01*
X186488848Y-86140213D01*
X186493458Y-86171293D01*
X186495000Y-86202676D01*
X186495000Y-87387324D01*
X186493458Y-87418707D01*
X186488848Y-87449787D01*
X186481213Y-87480266D01*
X186470628Y-87509850D01*
X186457194Y-87538254D01*
X186441041Y-87565204D01*
X186422323Y-87590442D01*
X186401223Y-87613723D01*
X186377942Y-87634823D01*
X186352704Y-87653541D01*
X186325754Y-87669694D01*
X186297350Y-87683128D01*
X186267766Y-87693713D01*
X186237287Y-87701348D01*
X186206207Y-87705958D01*
X186174824Y-87707500D01*
X184665176Y-87707500D01*
X184633793Y-87705958D01*
X184602713Y-87701348D01*
X184572234Y-87693713D01*
X184542650Y-87683128D01*
X184514246Y-87669694D01*
X184487296Y-87653541D01*
X184462058Y-87634823D01*
X184438777Y-87613723D01*
X184417677Y-87590442D01*
X184398959Y-87565204D01*
X184382806Y-87538254D01*
X184369372Y-87509850D01*
X184358787Y-87480266D01*
X184351152Y-87449787D01*
X184346542Y-87418707D01*
X184345000Y-87387324D01*
X184345000Y-86202676D01*
X184346542Y-86171293D01*
X184351152Y-86140213D01*
X184358787Y-86109734D01*
X184369372Y-86080150D01*
X184382806Y-86051746D01*
X184398959Y-86024796D01*
X184417677Y-85999558D01*
X184438777Y-85976277D01*
X184462058Y-85955177D01*
X184487296Y-85936459D01*
X184514246Y-85920306D01*
X184542650Y-85906872D01*
X184572234Y-85896287D01*
X184602713Y-85888652D01*
X184633793Y-85884042D01*
X184665176Y-85882500D01*
X186174824Y-85882500D01*
X186206207Y-85884042D01*
X186206207Y-85884042D01*
G37*
D12*
X185420000Y-86795000D03*
D11*
G36*
X186206207Y-82909042D02*
X186237287Y-82913652D01*
X186267766Y-82921287D01*
X186297350Y-82931872D01*
X186325754Y-82945306D01*
X186352704Y-82961459D01*
X186377942Y-82980177D01*
X186401223Y-83001277D01*
X186422323Y-83024558D01*
X186441041Y-83049796D01*
X186457194Y-83076746D01*
X186470628Y-83105150D01*
X186481213Y-83134734D01*
X186488848Y-83165213D01*
X186493458Y-83196293D01*
X186495000Y-83227676D01*
X186495000Y-84412324D01*
X186493458Y-84443707D01*
X186488848Y-84474787D01*
X186481213Y-84505266D01*
X186470628Y-84534850D01*
X186457194Y-84563254D01*
X186441041Y-84590204D01*
X186422323Y-84615442D01*
X186401223Y-84638723D01*
X186377942Y-84659823D01*
X186352704Y-84678541D01*
X186325754Y-84694694D01*
X186297350Y-84708128D01*
X186267766Y-84718713D01*
X186237287Y-84726348D01*
X186206207Y-84730958D01*
X186174824Y-84732500D01*
X184665176Y-84732500D01*
X184633793Y-84730958D01*
X184602713Y-84726348D01*
X184572234Y-84718713D01*
X184542650Y-84708128D01*
X184514246Y-84694694D01*
X184487296Y-84678541D01*
X184462058Y-84659823D01*
X184438777Y-84638723D01*
X184417677Y-84615442D01*
X184398959Y-84590204D01*
X184382806Y-84563254D01*
X184369372Y-84534850D01*
X184358787Y-84505266D01*
X184351152Y-84474787D01*
X184346542Y-84443707D01*
X184345000Y-84412324D01*
X184345000Y-83227676D01*
X184346542Y-83196293D01*
X184351152Y-83165213D01*
X184358787Y-83134734D01*
X184369372Y-83105150D01*
X184382806Y-83076746D01*
X184398959Y-83049796D01*
X184417677Y-83024558D01*
X184438777Y-83001277D01*
X184462058Y-82980177D01*
X184487296Y-82961459D01*
X184514246Y-82945306D01*
X184542650Y-82931872D01*
X184572234Y-82921287D01*
X184602713Y-82913652D01*
X184633793Y-82909042D01*
X184665176Y-82907500D01*
X186174824Y-82907500D01*
X186206207Y-82909042D01*
X186206207Y-82909042D01*
G37*
D12*
X185420000Y-83820000D03*
D11*
G36*
X186206207Y-75289042D02*
X186237287Y-75293652D01*
X186267766Y-75301287D01*
X186297350Y-75311872D01*
X186325754Y-75325306D01*
X186352704Y-75341459D01*
X186377942Y-75360177D01*
X186401223Y-75381277D01*
X186422323Y-75404558D01*
X186441041Y-75429796D01*
X186457194Y-75456746D01*
X186470628Y-75485150D01*
X186481213Y-75514734D01*
X186488848Y-75545213D01*
X186493458Y-75576293D01*
X186495000Y-75607676D01*
X186495000Y-76792324D01*
X186493458Y-76823707D01*
X186488848Y-76854787D01*
X186481213Y-76885266D01*
X186470628Y-76914850D01*
X186457194Y-76943254D01*
X186441041Y-76970204D01*
X186422323Y-76995442D01*
X186401223Y-77018723D01*
X186377942Y-77039823D01*
X186352704Y-77058541D01*
X186325754Y-77074694D01*
X186297350Y-77088128D01*
X186267766Y-77098713D01*
X186237287Y-77106348D01*
X186206207Y-77110958D01*
X186174824Y-77112500D01*
X184665176Y-77112500D01*
X184633793Y-77110958D01*
X184602713Y-77106348D01*
X184572234Y-77098713D01*
X184542650Y-77088128D01*
X184514246Y-77074694D01*
X184487296Y-77058541D01*
X184462058Y-77039823D01*
X184438777Y-77018723D01*
X184417677Y-76995442D01*
X184398959Y-76970204D01*
X184382806Y-76943254D01*
X184369372Y-76914850D01*
X184358787Y-76885266D01*
X184351152Y-76854787D01*
X184346542Y-76823707D01*
X184345000Y-76792324D01*
X184345000Y-75607676D01*
X184346542Y-75576293D01*
X184351152Y-75545213D01*
X184358787Y-75514734D01*
X184369372Y-75485150D01*
X184382806Y-75456746D01*
X184398959Y-75429796D01*
X184417677Y-75404558D01*
X184438777Y-75381277D01*
X184462058Y-75360177D01*
X184487296Y-75341459D01*
X184514246Y-75325306D01*
X184542650Y-75311872D01*
X184572234Y-75301287D01*
X184602713Y-75293652D01*
X184633793Y-75289042D01*
X184665176Y-75287500D01*
X186174824Y-75287500D01*
X186206207Y-75289042D01*
X186206207Y-75289042D01*
G37*
D12*
X185420000Y-76200000D03*
D11*
G36*
X186206207Y-78264042D02*
X186237287Y-78268652D01*
X186267766Y-78276287D01*
X186297350Y-78286872D01*
X186325754Y-78300306D01*
X186352704Y-78316459D01*
X186377942Y-78335177D01*
X186401223Y-78356277D01*
X186422323Y-78379558D01*
X186441041Y-78404796D01*
X186457194Y-78431746D01*
X186470628Y-78460150D01*
X186481213Y-78489734D01*
X186488848Y-78520213D01*
X186493458Y-78551293D01*
X186495000Y-78582676D01*
X186495000Y-79767324D01*
X186493458Y-79798707D01*
X186488848Y-79829787D01*
X186481213Y-79860266D01*
X186470628Y-79889850D01*
X186457194Y-79918254D01*
X186441041Y-79945204D01*
X186422323Y-79970442D01*
X186401223Y-79993723D01*
X186377942Y-80014823D01*
X186352704Y-80033541D01*
X186325754Y-80049694D01*
X186297350Y-80063128D01*
X186267766Y-80073713D01*
X186237287Y-80081348D01*
X186206207Y-80085958D01*
X186174824Y-80087500D01*
X184665176Y-80087500D01*
X184633793Y-80085958D01*
X184602713Y-80081348D01*
X184572234Y-80073713D01*
X184542650Y-80063128D01*
X184514246Y-80049694D01*
X184487296Y-80033541D01*
X184462058Y-80014823D01*
X184438777Y-79993723D01*
X184417677Y-79970442D01*
X184398959Y-79945204D01*
X184382806Y-79918254D01*
X184369372Y-79889850D01*
X184358787Y-79860266D01*
X184351152Y-79829787D01*
X184346542Y-79798707D01*
X184345000Y-79767324D01*
X184345000Y-78582676D01*
X184346542Y-78551293D01*
X184351152Y-78520213D01*
X184358787Y-78489734D01*
X184369372Y-78460150D01*
X184382806Y-78431746D01*
X184398959Y-78404796D01*
X184417677Y-78379558D01*
X184438777Y-78356277D01*
X184462058Y-78335177D01*
X184487296Y-78316459D01*
X184514246Y-78300306D01*
X184542650Y-78286872D01*
X184572234Y-78276287D01*
X184602713Y-78268652D01*
X184633793Y-78264042D01*
X184665176Y-78262500D01*
X186174824Y-78262500D01*
X186206207Y-78264042D01*
X186206207Y-78264042D01*
G37*
D12*
X185420000Y-79175000D03*
D11*
G36*
X155726207Y-82909042D02*
X155757287Y-82913652D01*
X155787766Y-82921287D01*
X155817350Y-82931872D01*
X155845754Y-82945306D01*
X155872704Y-82961459D01*
X155897942Y-82980177D01*
X155921223Y-83001277D01*
X155942323Y-83024558D01*
X155961041Y-83049796D01*
X155977194Y-83076746D01*
X155990628Y-83105150D01*
X156001213Y-83134734D01*
X156008848Y-83165213D01*
X156013458Y-83196293D01*
X156015000Y-83227676D01*
X156015000Y-84412324D01*
X156013458Y-84443707D01*
X156008848Y-84474787D01*
X156001213Y-84505266D01*
X155990628Y-84534850D01*
X155977194Y-84563254D01*
X155961041Y-84590204D01*
X155942323Y-84615442D01*
X155921223Y-84638723D01*
X155897942Y-84659823D01*
X155872704Y-84678541D01*
X155845754Y-84694694D01*
X155817350Y-84708128D01*
X155787766Y-84718713D01*
X155757287Y-84726348D01*
X155726207Y-84730958D01*
X155694824Y-84732500D01*
X154185176Y-84732500D01*
X154153793Y-84730958D01*
X154122713Y-84726348D01*
X154092234Y-84718713D01*
X154062650Y-84708128D01*
X154034246Y-84694694D01*
X154007296Y-84678541D01*
X153982058Y-84659823D01*
X153958777Y-84638723D01*
X153937677Y-84615442D01*
X153918959Y-84590204D01*
X153902806Y-84563254D01*
X153889372Y-84534850D01*
X153878787Y-84505266D01*
X153871152Y-84474787D01*
X153866542Y-84443707D01*
X153865000Y-84412324D01*
X153865000Y-83227676D01*
X153866542Y-83196293D01*
X153871152Y-83165213D01*
X153878787Y-83134734D01*
X153889372Y-83105150D01*
X153902806Y-83076746D01*
X153918959Y-83049796D01*
X153937677Y-83024558D01*
X153958777Y-83001277D01*
X153982058Y-82980177D01*
X154007296Y-82961459D01*
X154034246Y-82945306D01*
X154062650Y-82931872D01*
X154092234Y-82921287D01*
X154122713Y-82913652D01*
X154153793Y-82909042D01*
X154185176Y-82907500D01*
X155694824Y-82907500D01*
X155726207Y-82909042D01*
X155726207Y-82909042D01*
G37*
D12*
X154940000Y-83820000D03*
D11*
G36*
X155726207Y-85884042D02*
X155757287Y-85888652D01*
X155787766Y-85896287D01*
X155817350Y-85906872D01*
X155845754Y-85920306D01*
X155872704Y-85936459D01*
X155897942Y-85955177D01*
X155921223Y-85976277D01*
X155942323Y-85999558D01*
X155961041Y-86024796D01*
X155977194Y-86051746D01*
X155990628Y-86080150D01*
X156001213Y-86109734D01*
X156008848Y-86140213D01*
X156013458Y-86171293D01*
X156015000Y-86202676D01*
X156015000Y-87387324D01*
X156013458Y-87418707D01*
X156008848Y-87449787D01*
X156001213Y-87480266D01*
X155990628Y-87509850D01*
X155977194Y-87538254D01*
X155961041Y-87565204D01*
X155942323Y-87590442D01*
X155921223Y-87613723D01*
X155897942Y-87634823D01*
X155872704Y-87653541D01*
X155845754Y-87669694D01*
X155817350Y-87683128D01*
X155787766Y-87693713D01*
X155757287Y-87701348D01*
X155726207Y-87705958D01*
X155694824Y-87707500D01*
X154185176Y-87707500D01*
X154153793Y-87705958D01*
X154122713Y-87701348D01*
X154092234Y-87693713D01*
X154062650Y-87683128D01*
X154034246Y-87669694D01*
X154007296Y-87653541D01*
X153982058Y-87634823D01*
X153958777Y-87613723D01*
X153937677Y-87590442D01*
X153918959Y-87565204D01*
X153902806Y-87538254D01*
X153889372Y-87509850D01*
X153878787Y-87480266D01*
X153871152Y-87449787D01*
X153866542Y-87418707D01*
X153865000Y-87387324D01*
X153865000Y-86202676D01*
X153866542Y-86171293D01*
X153871152Y-86140213D01*
X153878787Y-86109734D01*
X153889372Y-86080150D01*
X153902806Y-86051746D01*
X153918959Y-86024796D01*
X153937677Y-85999558D01*
X153958777Y-85976277D01*
X153982058Y-85955177D01*
X154007296Y-85936459D01*
X154034246Y-85920306D01*
X154062650Y-85906872D01*
X154092234Y-85896287D01*
X154122713Y-85888652D01*
X154153793Y-85884042D01*
X154185176Y-85882500D01*
X155694824Y-85882500D01*
X155726207Y-85884042D01*
X155726207Y-85884042D01*
G37*
D12*
X154940000Y-86795000D03*
D11*
G36*
X155726207Y-93504042D02*
X155757287Y-93508652D01*
X155787766Y-93516287D01*
X155817350Y-93526872D01*
X155845754Y-93540306D01*
X155872704Y-93556459D01*
X155897942Y-93575177D01*
X155921223Y-93596277D01*
X155942323Y-93619558D01*
X155961041Y-93644796D01*
X155977194Y-93671746D01*
X155990628Y-93700150D01*
X156001213Y-93729734D01*
X156008848Y-93760213D01*
X156013458Y-93791293D01*
X156015000Y-93822676D01*
X156015000Y-95007324D01*
X156013458Y-95038707D01*
X156008848Y-95069787D01*
X156001213Y-95100266D01*
X155990628Y-95129850D01*
X155977194Y-95158254D01*
X155961041Y-95185204D01*
X155942323Y-95210442D01*
X155921223Y-95233723D01*
X155897942Y-95254823D01*
X155872704Y-95273541D01*
X155845754Y-95289694D01*
X155817350Y-95303128D01*
X155787766Y-95313713D01*
X155757287Y-95321348D01*
X155726207Y-95325958D01*
X155694824Y-95327500D01*
X154185176Y-95327500D01*
X154153793Y-95325958D01*
X154122713Y-95321348D01*
X154092234Y-95313713D01*
X154062650Y-95303128D01*
X154034246Y-95289694D01*
X154007296Y-95273541D01*
X153982058Y-95254823D01*
X153958777Y-95233723D01*
X153937677Y-95210442D01*
X153918959Y-95185204D01*
X153902806Y-95158254D01*
X153889372Y-95129850D01*
X153878787Y-95100266D01*
X153871152Y-95069787D01*
X153866542Y-95038707D01*
X153865000Y-95007324D01*
X153865000Y-93822676D01*
X153866542Y-93791293D01*
X153871152Y-93760213D01*
X153878787Y-93729734D01*
X153889372Y-93700150D01*
X153902806Y-93671746D01*
X153918959Y-93644796D01*
X153937677Y-93619558D01*
X153958777Y-93596277D01*
X153982058Y-93575177D01*
X154007296Y-93556459D01*
X154034246Y-93540306D01*
X154062650Y-93526872D01*
X154092234Y-93516287D01*
X154122713Y-93508652D01*
X154153793Y-93504042D01*
X154185176Y-93502500D01*
X155694824Y-93502500D01*
X155726207Y-93504042D01*
X155726207Y-93504042D01*
G37*
D12*
X154940000Y-94415000D03*
D11*
G36*
X155726207Y-90529042D02*
X155757287Y-90533652D01*
X155787766Y-90541287D01*
X155817350Y-90551872D01*
X155845754Y-90565306D01*
X155872704Y-90581459D01*
X155897942Y-90600177D01*
X155921223Y-90621277D01*
X155942323Y-90644558D01*
X155961041Y-90669796D01*
X155977194Y-90696746D01*
X155990628Y-90725150D01*
X156001213Y-90754734D01*
X156008848Y-90785213D01*
X156013458Y-90816293D01*
X156015000Y-90847676D01*
X156015000Y-92032324D01*
X156013458Y-92063707D01*
X156008848Y-92094787D01*
X156001213Y-92125266D01*
X155990628Y-92154850D01*
X155977194Y-92183254D01*
X155961041Y-92210204D01*
X155942323Y-92235442D01*
X155921223Y-92258723D01*
X155897942Y-92279823D01*
X155872704Y-92298541D01*
X155845754Y-92314694D01*
X155817350Y-92328128D01*
X155787766Y-92338713D01*
X155757287Y-92346348D01*
X155726207Y-92350958D01*
X155694824Y-92352500D01*
X154185176Y-92352500D01*
X154153793Y-92350958D01*
X154122713Y-92346348D01*
X154092234Y-92338713D01*
X154062650Y-92328128D01*
X154034246Y-92314694D01*
X154007296Y-92298541D01*
X153982058Y-92279823D01*
X153958777Y-92258723D01*
X153937677Y-92235442D01*
X153918959Y-92210204D01*
X153902806Y-92183254D01*
X153889372Y-92154850D01*
X153878787Y-92125266D01*
X153871152Y-92094787D01*
X153866542Y-92063707D01*
X153865000Y-92032324D01*
X153865000Y-90847676D01*
X153866542Y-90816293D01*
X153871152Y-90785213D01*
X153878787Y-90754734D01*
X153889372Y-90725150D01*
X153902806Y-90696746D01*
X153918959Y-90669796D01*
X153937677Y-90644558D01*
X153958777Y-90621277D01*
X153982058Y-90600177D01*
X154007296Y-90581459D01*
X154034246Y-90565306D01*
X154062650Y-90551872D01*
X154092234Y-90541287D01*
X154122713Y-90533652D01*
X154153793Y-90529042D01*
X154185176Y-90527500D01*
X155694824Y-90527500D01*
X155726207Y-90529042D01*
X155726207Y-90529042D01*
G37*
D12*
X154940000Y-91440000D03*
M02*
